G04*
G04 #@! TF.GenerationSoftware,Altium Limited,Altium Designer,23.8.1 (32)*
G04*
G04 Layer_Color=32768*
%FSLAX25Y25*%
%MOIN*%
G70*
G04*
G04 #@! TF.SameCoordinates,520AAA89-0166-4477-BFE6-35E59259A02F*
G04*
G04*
G04 #@! TF.FilePolarity,Positive*
G04*
G01*
G75*
%ADD13C,0.00787*%
%ADD55C,0.00197*%
D13*
X77631Y264000D02*
G03*
X59369Y264000I-9131J0D01*
G01*
D02*
G03*
X77631Y264000I9131J0D01*
G01*
X260500Y205369D02*
G03*
X260500Y223631I0J9131D01*
G01*
D02*
G03*
X260500Y205369I0J-9131D01*
G01*
X178437Y201500D02*
G03*
X220563Y201500I21063J0D01*
G01*
D02*
G03*
X178437Y201500I-21063J0D01*
G01*
X90961Y257685D02*
Y268315D01*
Y257685D02*
X136039D01*
Y268315D01*
X90961D02*
X136039D01*
X255185Y183039D02*
X265815D01*
X255185Y137961D02*
Y183039D01*
Y137961D02*
X265815D01*
Y183039D01*
X219185Y128961D02*
X229815D01*
Y174039D01*
X219185D02*
X229815D01*
X219185Y128961D02*
Y174039D01*
X268039Y19185D02*
Y29815D01*
X222961D02*
X268039D01*
X222961Y19185D02*
Y29815D01*
Y19185D02*
X268039D01*
X234074Y87306D02*
Y113694D01*
Y87306D02*
X260626D01*
Y113694D01*
X234074D02*
X260626D01*
X86106Y18106D02*
X96894D01*
Y48894D01*
X86106D02*
X96894D01*
X86106Y18106D02*
Y48894D01*
X174106Y19106D02*
Y29894D01*
Y19106D02*
X204894D01*
Y29894D01*
X174106D02*
X204894D01*
D55*
X239500Y53532D02*
Y57469D01*
X237532Y55500D02*
X241469D01*
X233417Y66878D02*
X245583D01*
X233417Y44122D02*
Y66878D01*
Y44122D02*
X245583D01*
Y66878D01*
X259500Y257032D02*
Y260969D01*
X257532Y259000D02*
X261469D01*
X253417Y270378D02*
X265583D01*
X253417Y247622D02*
Y270378D01*
Y247622D02*
X265583D01*
Y270378D01*
X186532Y284000D02*
X190469D01*
X188500Y282032D02*
Y285969D01*
X177122Y277917D02*
Y290083D01*
Y277917D02*
X199878D01*
Y290083D01*
X177122D02*
X199878D01*
X53500Y31532D02*
Y35469D01*
X51532Y33500D02*
X55469D01*
X47417Y44878D02*
X59583D01*
X47417Y22122D02*
Y44878D01*
Y22122D02*
X59583D01*
Y44878D01*
M02*
