G04*
G04 #@! TF.GenerationSoftware,Altium Limited,Altium Designer,23.8.1 (32)*
G04*
G04 Layer_Color=16711935*
%FSLAX25Y25*%
%MOIN*%
G70*
G04*
G04 #@! TF.SameCoordinates,520AAA89-0166-4477-BFE6-35E59259A02F*
G04*
G04*
G04 #@! TF.FilePolarity,Positive*
G04*
G01*
G75*
%ADD13C,0.00787*%
G36*
X265452Y102404D02*
X265492Y102400D01*
X265539Y102393D01*
X265590Y102382D01*
X265645Y102367D01*
X265696Y102345D01*
X265703Y102342D01*
X265717Y102334D01*
X265743Y102324D01*
X265772Y102305D01*
X265808Y102284D01*
X265841Y102254D01*
X265874Y102225D01*
X265903Y102189D01*
X265907Y102185D01*
X265914Y102171D01*
X265925Y102153D01*
X265943Y102127D01*
X265958Y102091D01*
X265972Y102054D01*
X265990Y102011D01*
X266001Y101963D01*
Y101960D01*
X266005Y101945D01*
X266009Y101923D01*
X266012Y101894D01*
Y101850D01*
X266016Y101799D01*
X266020Y101737D01*
Y101661D01*
Y100540D01*
X265710D01*
Y101647D01*
Y101650D01*
Y101654D01*
Y101679D01*
Y101712D01*
X265706Y101752D01*
X265703Y101799D01*
X265696Y101847D01*
X265685Y101890D01*
X265674Y101930D01*
Y101934D01*
X265666Y101945D01*
X265655Y101963D01*
X265645Y101985D01*
X265626Y102007D01*
X265605Y102032D01*
X265575Y102058D01*
X265543Y102080D01*
X265539Y102083D01*
X265528Y102091D01*
X265506Y102098D01*
X265481Y102109D01*
X265452Y102120D01*
X265415Y102131D01*
X265372Y102134D01*
X265328Y102138D01*
X265310D01*
X265295Y102134D01*
X265259Y102131D01*
X265211Y102123D01*
X265160Y102105D01*
X265102Y102083D01*
X265044Y102054D01*
X264989Y102011D01*
X264982Y102003D01*
X264967Y101985D01*
X264957Y101971D01*
X264946Y101952D01*
X264931Y101930D01*
X264920Y101905D01*
X264906Y101876D01*
X264891Y101839D01*
X264880Y101799D01*
X264869Y101756D01*
X264862Y101708D01*
X264855Y101657D01*
X264847Y101596D01*
Y101534D01*
Y100540D01*
X264538D01*
Y102367D01*
X264815D01*
Y102105D01*
X264818Y102109D01*
X264826Y102120D01*
X264837Y102134D01*
X264851Y102153D01*
X264873Y102174D01*
X264898Y102200D01*
X264928Y102229D01*
X264964Y102258D01*
X265000Y102284D01*
X265044Y102313D01*
X265091Y102338D01*
X265142Y102360D01*
X265200Y102378D01*
X265259Y102393D01*
X265324Y102404D01*
X265393Y102407D01*
X265423D01*
X265452Y102404D01*
D02*
G37*
G36*
X252289D02*
X252344Y102400D01*
X252402Y102393D01*
X252464Y102378D01*
X252530Y102364D01*
X252592Y102342D01*
X252595D01*
X252599Y102338D01*
X252617Y102331D01*
X252646Y102316D01*
X252682Y102298D01*
X252723Y102273D01*
X252763Y102243D01*
X252799Y102211D01*
X252832Y102174D01*
X252835Y102171D01*
X252843Y102156D01*
X252857Y102131D01*
X252875Y102102D01*
X252894Y102058D01*
X252912Y102011D01*
X252926Y101956D01*
X252941Y101894D01*
X252639Y101854D01*
Y101861D01*
X252635Y101876D01*
X252628Y101901D01*
X252617Y101934D01*
X252599Y101967D01*
X252577Y102003D01*
X252552Y102040D01*
X252515Y102072D01*
X252512Y102076D01*
X252497Y102083D01*
X252475Y102098D01*
X252442Y102112D01*
X252406Y102127D01*
X252359Y102142D01*
X252300Y102149D01*
X252238Y102153D01*
X252202D01*
X252166Y102149D01*
X252118Y102145D01*
X252071Y102134D01*
X252020Y102123D01*
X251973Y102105D01*
X251933Y102080D01*
X251929Y102076D01*
X251918Y102069D01*
X251904Y102054D01*
X251889Y102032D01*
X251871Y102011D01*
X251856Y101981D01*
X251845Y101949D01*
X251842Y101916D01*
Y101912D01*
Y101905D01*
X251845Y101894D01*
Y101880D01*
X251856Y101843D01*
X251878Y101807D01*
X251882Y101803D01*
X251885Y101799D01*
X251893Y101788D01*
X251907Y101778D01*
X251922Y101767D01*
X251944Y101752D01*
X251969Y101741D01*
X251998Y101727D01*
X252002D01*
X252009Y101723D01*
X252024Y101719D01*
X252049Y101708D01*
X252086Y101698D01*
X252133Y101687D01*
X252162Y101676D01*
X252195Y101668D01*
X252231Y101657D01*
X252271Y101647D01*
X252275D01*
X252286Y101643D01*
X252304Y101639D01*
X252326Y101632D01*
X252351Y101625D01*
X252384Y101617D01*
X252453Y101596D01*
X252530Y101574D01*
X252606Y101548D01*
X252675Y101523D01*
X252704Y101512D01*
X252730Y101501D01*
X252737Y101497D01*
X252752Y101490D01*
X252773Y101479D01*
X252806Y101461D01*
X252839Y101439D01*
X252872Y101410D01*
X252905Y101377D01*
X252934Y101341D01*
X252937Y101337D01*
X252945Y101323D01*
X252959Y101301D01*
X252974Y101268D01*
X252985Y101228D01*
X252999Y101184D01*
X253007Y101133D01*
X253010Y101075D01*
Y101068D01*
Y101050D01*
X253007Y101021D01*
X252999Y100980D01*
X252988Y100937D01*
X252970Y100889D01*
X252948Y100835D01*
X252919Y100784D01*
X252916Y100777D01*
X252901Y100762D01*
X252883Y100736D01*
X252854Y100707D01*
X252814Y100675D01*
X252770Y100638D01*
X252719Y100605D01*
X252657Y100573D01*
X252653D01*
X252650Y100569D01*
X252628Y100562D01*
X252592Y100551D01*
X252544Y100536D01*
X252486Y100522D01*
X252420Y100511D01*
X252351Y100504D01*
X252271Y100500D01*
X252238D01*
X252213Y100504D01*
X252184D01*
X252148Y100507D01*
X252111Y100511D01*
X252071Y100518D01*
X251984Y100536D01*
X251893Y100562D01*
X251805Y100598D01*
X251765Y100620D01*
X251729Y100646D01*
X251725Y100649D01*
X251722Y100653D01*
X251700Y100675D01*
X251667Y100707D01*
X251631Y100758D01*
X251590Y100820D01*
X251551Y100893D01*
X251518Y100984D01*
X251492Y101086D01*
X251798Y101133D01*
Y101130D01*
Y101126D01*
X251805Y101104D01*
X251813Y101068D01*
X251827Y101028D01*
X251845Y100984D01*
X251867Y100937D01*
X251900Y100889D01*
X251940Y100849D01*
X251947Y100846D01*
X251962Y100835D01*
X251991Y100820D01*
X252027Y100802D01*
X252075Y100784D01*
X252129Y100769D01*
X252195Y100758D01*
X252271Y100755D01*
X252308D01*
X252344Y100758D01*
X252391Y100766D01*
X252442Y100777D01*
X252497Y100791D01*
X252544Y100809D01*
X252588Y100838D01*
X252592Y100842D01*
X252606Y100853D01*
X252621Y100871D01*
X252642Y100897D01*
X252661Y100926D01*
X252679Y100962D01*
X252690Y100999D01*
X252694Y101042D01*
Y101046D01*
Y101060D01*
X252690Y101079D01*
X252682Y101104D01*
X252672Y101130D01*
X252653Y101155D01*
X252632Y101184D01*
X252599Y101206D01*
X252595Y101210D01*
X252584Y101213D01*
X252566Y101224D01*
X252537Y101235D01*
X252493Y101250D01*
X252468Y101261D01*
X252439Y101268D01*
X252406Y101279D01*
X252369Y101290D01*
X252329Y101301D01*
X252282Y101312D01*
X252278D01*
X252268Y101315D01*
X252249Y101319D01*
X252228Y101326D01*
X252198Y101333D01*
X252166Y101344D01*
X252097Y101363D01*
X252016Y101388D01*
X251940Y101410D01*
X251867Y101435D01*
X251834Y101450D01*
X251809Y101461D01*
X251802Y101464D01*
X251787Y101472D01*
X251765Y101486D01*
X251736Y101505D01*
X251703Y101530D01*
X251671Y101559D01*
X251638Y101592D01*
X251609Y101632D01*
X251605Y101636D01*
X251598Y101650D01*
X251587Y101676D01*
X251576Y101705D01*
X251565Y101741D01*
X251554Y101785D01*
X251547Y101829D01*
X251543Y101880D01*
Y101887D01*
Y101901D01*
X251547Y101923D01*
X251551Y101956D01*
X251558Y101989D01*
X251565Y102029D01*
X251580Y102065D01*
X251598Y102105D01*
X251602Y102109D01*
X251609Y102123D01*
X251620Y102142D01*
X251638Y102167D01*
X251660Y102193D01*
X251685Y102225D01*
X251714Y102254D01*
X251751Y102280D01*
X251754Y102284D01*
X251765Y102287D01*
X251780Y102298D01*
X251802Y102309D01*
X251831Y102324D01*
X251864Y102338D01*
X251904Y102353D01*
X251947Y102367D01*
X251955Y102371D01*
X251969Y102374D01*
X251995Y102382D01*
X252027Y102389D01*
X252067Y102396D01*
X252111Y102400D01*
X252162Y102407D01*
X252249D01*
X252289Y102404D01*
D02*
G37*
G36*
X260137Y100540D02*
X259861D01*
Y100806D01*
X259857Y100802D01*
X259850Y100791D01*
X259839Y100777D01*
X259821Y100758D01*
X259799Y100736D01*
X259773Y100707D01*
X259744Y100682D01*
X259708Y100653D01*
X259668Y100624D01*
X259624Y100598D01*
X259577Y100573D01*
X259526Y100547D01*
X259468Y100529D01*
X259409Y100514D01*
X259344Y100504D01*
X259278Y100500D01*
X259253D01*
X259220Y100504D01*
X259180Y100507D01*
X259133Y100514D01*
X259082Y100525D01*
X259031Y100540D01*
X258976Y100562D01*
X258969Y100566D01*
X258954Y100573D01*
X258929Y100587D01*
X258900Y100605D01*
X258863Y100627D01*
X258830Y100653D01*
X258798Y100682D01*
X258769Y100715D01*
X258765Y100718D01*
X258758Y100733D01*
X258747Y100751D01*
X258732Y100780D01*
X258714Y100813D01*
X258699Y100853D01*
X258685Y100897D01*
X258674Y100944D01*
Y100948D01*
X258670Y100962D01*
X258667Y100984D01*
Y101013D01*
X258663Y101057D01*
X258659Y101104D01*
X258656Y101166D01*
Y101235D01*
Y102367D01*
X258965D01*
Y101352D01*
Y101348D01*
Y101341D01*
Y101330D01*
Y101312D01*
Y101272D01*
X258969Y101221D01*
Y101166D01*
X258973Y101111D01*
X258976Y101064D01*
X258983Y101024D01*
Y101021D01*
X258991Y101006D01*
X258998Y100984D01*
X259009Y100955D01*
X259027Y100926D01*
X259049Y100893D01*
X259074Y100864D01*
X259107Y100835D01*
X259111Y100831D01*
X259125Y100824D01*
X259144Y100813D01*
X259173Y100802D01*
X259205Y100787D01*
X259245Y100777D01*
X259289Y100769D01*
X259340Y100766D01*
X259366D01*
X259391Y100769D01*
X259424Y100773D01*
X259464Y100784D01*
X259507Y100795D01*
X259555Y100813D01*
X259602Y100835D01*
X259610Y100838D01*
X259624Y100849D01*
X259646Y100864D01*
X259671Y100886D01*
X259700Y100915D01*
X259730Y100948D01*
X259755Y100984D01*
X259777Y101028D01*
X259781Y101035D01*
X259784Y101050D01*
X259791Y101079D01*
X259802Y101119D01*
X259813Y101170D01*
X259821Y101232D01*
X259824Y101304D01*
X259828Y101388D01*
Y102367D01*
X260137D01*
Y100540D01*
D02*
G37*
G36*
X251132D02*
X250855D01*
Y100806D01*
X250852Y100802D01*
X250844Y100791D01*
X250833Y100777D01*
X250815Y100758D01*
X250793Y100736D01*
X250768Y100707D01*
X250739Y100682D01*
X250702Y100653D01*
X250662Y100624D01*
X250619Y100598D01*
X250571Y100573D01*
X250520Y100547D01*
X250462Y100529D01*
X250404Y100514D01*
X250338Y100504D01*
X250273Y100500D01*
X250247D01*
X250215Y100504D01*
X250175Y100507D01*
X250127Y100514D01*
X250076Y100525D01*
X250025Y100540D01*
X249971Y100562D01*
X249963Y100566D01*
X249949Y100573D01*
X249923Y100587D01*
X249894Y100605D01*
X249858Y100627D01*
X249825Y100653D01*
X249792Y100682D01*
X249763Y100715D01*
X249760Y100718D01*
X249752Y100733D01*
X249741Y100751D01*
X249727Y100780D01*
X249709Y100813D01*
X249694Y100853D01*
X249680Y100897D01*
X249669Y100944D01*
Y100948D01*
X249665Y100962D01*
X249661Y100984D01*
Y101013D01*
X249658Y101057D01*
X249654Y101104D01*
X249650Y101166D01*
Y101235D01*
Y102367D01*
X249960D01*
Y101352D01*
Y101348D01*
Y101341D01*
Y101330D01*
Y101312D01*
Y101272D01*
X249963Y101221D01*
Y101166D01*
X249967Y101111D01*
X249971Y101064D01*
X249978Y101024D01*
Y101021D01*
X249985Y101006D01*
X249993Y100984D01*
X250004Y100955D01*
X250022Y100926D01*
X250044Y100893D01*
X250069Y100864D01*
X250102Y100835D01*
X250105Y100831D01*
X250120Y100824D01*
X250138Y100813D01*
X250167Y100802D01*
X250200Y100787D01*
X250240Y100777D01*
X250284Y100769D01*
X250335Y100766D01*
X250360D01*
X250386Y100769D01*
X250418Y100773D01*
X250459Y100784D01*
X250502Y100795D01*
X250550Y100813D01*
X250597Y100835D01*
X250604Y100838D01*
X250619Y100849D01*
X250641Y100864D01*
X250666Y100886D01*
X250695Y100915D01*
X250724Y100948D01*
X250750Y100984D01*
X250771Y101028D01*
X250775Y101035D01*
X250779Y101050D01*
X250786Y101079D01*
X250797Y101119D01*
X250808Y101170D01*
X250815Y101232D01*
X250819Y101304D01*
X250822Y101388D01*
Y102367D01*
X251132D01*
Y100540D01*
D02*
G37*
G36*
X257356Y103055D02*
X257385D01*
X257451Y103048D01*
X257524Y103041D01*
X257600Y103026D01*
X257677Y103008D01*
X257746Y102982D01*
X257749D01*
X257753Y102979D01*
X257775Y102968D01*
X257808Y102950D01*
X257844Y102924D01*
X257888Y102891D01*
X257935Y102851D01*
X257979Y102800D01*
X258019Y102746D01*
X258022Y102739D01*
X258033Y102717D01*
X258051Y102688D01*
X258070Y102644D01*
X258088Y102593D01*
X258106Y102538D01*
X258117Y102477D01*
X258121Y102415D01*
Y102407D01*
Y102389D01*
X258117Y102356D01*
X258110Y102316D01*
X258099Y102269D01*
X258081Y102218D01*
X258059Y102167D01*
X258030Y102112D01*
X258026Y102105D01*
X258015Y102091D01*
X257993Y102061D01*
X257964Y102032D01*
X257928Y101996D01*
X257884Y101956D01*
X257829Y101920D01*
X257768Y101883D01*
X257771D01*
X257779Y101880D01*
X257789Y101876D01*
X257804Y101869D01*
X257848Y101854D01*
X257899Y101829D01*
X257953Y101796D01*
X258015Y101756D01*
X258070Y101708D01*
X258121Y101650D01*
X258124Y101643D01*
X258139Y101621D01*
X258161Y101588D01*
X258183Y101545D01*
X258204Y101486D01*
X258226Y101425D01*
X258241Y101352D01*
X258244Y101272D01*
Y101268D01*
Y101264D01*
Y101242D01*
X258241Y101206D01*
X258234Y101162D01*
X258226Y101111D01*
X258212Y101057D01*
X258193Y100999D01*
X258168Y100940D01*
X258164Y100933D01*
X258154Y100915D01*
X258139Y100889D01*
X258117Y100853D01*
X258088Y100817D01*
X258059Y100777D01*
X258022Y100736D01*
X257982Y100704D01*
X257979Y100700D01*
X257964Y100689D01*
X257939Y100675D01*
X257906Y100660D01*
X257866Y100638D01*
X257819Y100616D01*
X257768Y100598D01*
X257706Y100580D01*
X257698D01*
X257677Y100573D01*
X257640Y100569D01*
X257593Y100562D01*
X257535Y100555D01*
X257466Y100547D01*
X257389Y100544D01*
X257302Y100540D01*
X256341D01*
Y103059D01*
X257331D01*
X257356Y103055D01*
D02*
G37*
G36*
X253687Y102156D02*
X253691Y102160D01*
X253698Y102167D01*
X253709Y102178D01*
X253727Y102196D01*
X253745Y102214D01*
X253771Y102236D01*
X253804Y102258D01*
X253836Y102284D01*
X253873Y102305D01*
X253913Y102327D01*
X254008Y102367D01*
X254059Y102385D01*
X254113Y102396D01*
X254171Y102404D01*
X254230Y102407D01*
X254262D01*
X254302Y102404D01*
X254350Y102396D01*
X254404Y102389D01*
X254463Y102374D01*
X254521Y102353D01*
X254579Y102327D01*
X254586Y102324D01*
X254605Y102313D01*
X254630Y102295D01*
X254663Y102269D01*
X254696Y102236D01*
X254732Y102200D01*
X254765Y102156D01*
X254794Y102105D01*
X254797Y102098D01*
X254805Y102080D01*
X254816Y102047D01*
X254826Y102000D01*
X254837Y101941D01*
X254848Y101872D01*
X254856Y101788D01*
X254859Y101694D01*
Y100540D01*
X254550D01*
Y101698D01*
Y101701D01*
Y101708D01*
Y101719D01*
Y101734D01*
X254546Y101774D01*
X254539Y101825D01*
X254524Y101880D01*
X254506Y101934D01*
X254481Y101989D01*
X254448Y102032D01*
X254444Y102036D01*
X254430Y102051D01*
X254408Y102069D01*
X254375Y102087D01*
X254335Y102109D01*
X254288Y102123D01*
X254230Y102138D01*
X254164Y102142D01*
X254142D01*
X254117Y102138D01*
X254080Y102134D01*
X254044Y102123D01*
X254000Y102112D01*
X253957Y102094D01*
X253909Y102069D01*
X253906Y102065D01*
X253891Y102054D01*
X253869Y102040D01*
X253844Y102018D01*
X253815Y101989D01*
X253785Y101956D01*
X253760Y101916D01*
X253738Y101872D01*
X253734Y101865D01*
X253731Y101850D01*
X253724Y101821D01*
X253713Y101785D01*
X253702Y101737D01*
X253695Y101679D01*
X253691Y101614D01*
X253687Y101537D01*
Y100540D01*
X253378D01*
Y103059D01*
X253687D01*
Y102156D01*
D02*
G37*
G36*
X248438Y103055D02*
X248500Y103052D01*
X248566Y103048D01*
X248628Y103041D01*
X248682Y103033D01*
X248690D01*
X248715Y103026D01*
X248748Y103019D01*
X248791Y103008D01*
X248839Y102990D01*
X248890Y102968D01*
X248944Y102942D01*
X248992Y102913D01*
X248999Y102910D01*
X249013Y102899D01*
X249035Y102877D01*
X249064Y102851D01*
X249097Y102819D01*
X249130Y102775D01*
X249166Y102728D01*
X249195Y102673D01*
X249199Y102666D01*
X249206Y102648D01*
X249221Y102615D01*
X249236Y102571D01*
X249246Y102520D01*
X249261Y102462D01*
X249268Y102396D01*
X249272Y102327D01*
Y102324D01*
Y102313D01*
Y102298D01*
X249268Y102273D01*
X249265Y102247D01*
X249261Y102214D01*
X249254Y102178D01*
X249246Y102138D01*
X249221Y102054D01*
X249206Y102011D01*
X249184Y101963D01*
X249159Y101916D01*
X249134Y101872D01*
X249101Y101829D01*
X249064Y101785D01*
X249061Y101781D01*
X249054Y101774D01*
X249043Y101763D01*
X249024Y101752D01*
X249003Y101734D01*
X248973Y101716D01*
X248937Y101694D01*
X248897Y101676D01*
X248850Y101654D01*
X248795Y101632D01*
X248737Y101614D01*
X248668Y101599D01*
X248595Y101585D01*
X248515Y101574D01*
X248424Y101567D01*
X248329Y101563D01*
X247685D01*
Y100540D01*
X247350D01*
Y103059D01*
X248384D01*
X248438Y103055D01*
D02*
G37*
G36*
X261961Y102367D02*
X262274D01*
Y102127D01*
X261961D01*
Y101053D01*
Y101046D01*
Y101031D01*
Y101010D01*
X261965Y100984D01*
X261968Y100926D01*
X261972Y100900D01*
X261976Y100882D01*
X261979Y100875D01*
X261990Y100860D01*
X262005Y100842D01*
X262030Y100824D01*
X262037Y100820D01*
X262055Y100813D01*
X262088Y100806D01*
X262136Y100802D01*
X262172D01*
X262190Y100806D01*
X262216D01*
X262245Y100809D01*
X262274Y100813D01*
X262314Y100540D01*
X262307D01*
X262292Y100536D01*
X262267Y100533D01*
X262234Y100529D01*
X262197Y100522D01*
X262158Y100518D01*
X262077Y100514D01*
X262048D01*
X262019Y100518D01*
X261983Y100522D01*
X261939Y100525D01*
X261895Y100536D01*
X261855Y100547D01*
X261815Y100566D01*
X261812Y100569D01*
X261801Y100576D01*
X261786Y100587D01*
X261764Y100605D01*
X261746Y100624D01*
X261724Y100649D01*
X261702Y100675D01*
X261688Y100707D01*
Y100711D01*
X261681Y100726D01*
X261677Y100751D01*
X261670Y100787D01*
X261662Y100835D01*
X261659Y100864D01*
Y100897D01*
X261655Y100937D01*
X261651Y100977D01*
Y101021D01*
Y101071D01*
Y102127D01*
X261422D01*
Y102367D01*
X261651D01*
Y102819D01*
X261961Y103004D01*
Y102367D01*
D02*
G37*
G36*
X260982D02*
X261295D01*
Y102127D01*
X260982D01*
Y101053D01*
Y101046D01*
Y101031D01*
Y101010D01*
X260985Y100984D01*
X260989Y100926D01*
X260993Y100900D01*
X260996Y100882D01*
X261000Y100875D01*
X261011Y100860D01*
X261025Y100842D01*
X261051Y100824D01*
X261058Y100820D01*
X261076Y100813D01*
X261109Y100806D01*
X261157Y100802D01*
X261193D01*
X261211Y100806D01*
X261237D01*
X261266Y100809D01*
X261295Y100813D01*
X261335Y100540D01*
X261328D01*
X261313Y100536D01*
X261287Y100533D01*
X261255Y100529D01*
X261218Y100522D01*
X261178Y100518D01*
X261098Y100514D01*
X261069D01*
X261040Y100518D01*
X261004Y100522D01*
X260960Y100525D01*
X260916Y100536D01*
X260876Y100547D01*
X260836Y100566D01*
X260833Y100569D01*
X260822Y100576D01*
X260807Y100587D01*
X260785Y100605D01*
X260767Y100624D01*
X260745Y100649D01*
X260723Y100675D01*
X260709Y100707D01*
Y100711D01*
X260701Y100726D01*
X260698Y100751D01*
X260690Y100787D01*
X260683Y100835D01*
X260680Y100864D01*
Y100897D01*
X260676Y100937D01*
X260672Y100977D01*
Y101021D01*
Y101071D01*
Y102127D01*
X260443D01*
Y102367D01*
X260672D01*
Y102819D01*
X260982Y103004D01*
Y102367D01*
D02*
G37*
G36*
X263381Y102404D02*
X263413Y102400D01*
X263450Y102393D01*
X263490Y102385D01*
X263537Y102378D01*
X263635Y102345D01*
X263686Y102327D01*
X263737Y102302D01*
X263788Y102276D01*
X263839Y102240D01*
X263886Y102204D01*
X263934Y102160D01*
X263937Y102156D01*
X263945Y102149D01*
X263956Y102134D01*
X263970Y102116D01*
X263988Y102091D01*
X264010Y102058D01*
X264032Y102022D01*
X264054Y101981D01*
X264076Y101938D01*
X264098Y101883D01*
X264119Y101829D01*
X264138Y101767D01*
X264152Y101701D01*
X264163Y101632D01*
X264170Y101559D01*
X264174Y101479D01*
Y101476D01*
Y101464D01*
Y101446D01*
Y101421D01*
X264170Y101392D01*
X264167Y101355D01*
Y101319D01*
X264159Y101279D01*
X264148Y101188D01*
X264127Y101097D01*
X264101Y101006D01*
X264065Y100922D01*
Y100919D01*
X264061Y100915D01*
X264054Y100904D01*
X264047Y100889D01*
X264021Y100853D01*
X263988Y100809D01*
X263945Y100758D01*
X263890Y100707D01*
X263828Y100656D01*
X263755Y100609D01*
X263752D01*
X263748Y100605D01*
X263737Y100598D01*
X263719Y100591D01*
X263701Y100584D01*
X263679Y100576D01*
X263624Y100555D01*
X263562Y100536D01*
X263486Y100518D01*
X263406Y100504D01*
X263319Y100500D01*
X263282D01*
X263253Y100504D01*
X263220Y100507D01*
X263184Y100514D01*
X263140Y100522D01*
X263097Y100529D01*
X262998Y100558D01*
X262944Y100580D01*
X262893Y100602D01*
X262842Y100631D01*
X262791Y100664D01*
X262743Y100700D01*
X262696Y100744D01*
X262692Y100748D01*
X262685Y100755D01*
X262674Y100769D01*
X262660Y100791D01*
X262642Y100817D01*
X262623Y100846D01*
X262601Y100882D01*
X262580Y100926D01*
X262558Y100973D01*
X262536Y101028D01*
X262518Y101086D01*
X262500Y101148D01*
X262485Y101217D01*
X262474Y101290D01*
X262467Y101370D01*
X262463Y101454D01*
Y101461D01*
Y101476D01*
X262467Y101501D01*
Y101537D01*
X262471Y101577D01*
X262478Y101628D01*
X262485Y101679D01*
X262500Y101737D01*
X262514Y101796D01*
X262532Y101858D01*
X262554Y101923D01*
X262583Y101985D01*
X262613Y102043D01*
X262652Y102102D01*
X262692Y102156D01*
X262743Y102204D01*
X262747Y102207D01*
X262754Y102211D01*
X262769Y102222D01*
X262787Y102236D01*
X262809Y102251D01*
X262838Y102269D01*
X262867Y102287D01*
X262904Y102305D01*
X262944Y102324D01*
X262987Y102342D01*
X263086Y102374D01*
X263198Y102400D01*
X263257Y102404D01*
X263319Y102407D01*
X263355D01*
X263381Y102404D01*
D02*
G37*
G36*
X121876Y264205D02*
X121897D01*
X121926Y264201D01*
X121996Y264190D01*
X122072Y264172D01*
X122152Y264143D01*
X122232Y264106D01*
X122309Y264055D01*
X122312D01*
X122316Y264048D01*
X122338Y264026D01*
X122371Y263994D01*
X122411Y263946D01*
X122451Y263888D01*
X122491Y263815D01*
X122527Y263732D01*
X122553Y263633D01*
X122250Y263586D01*
Y263590D01*
X122247Y263593D01*
X122243Y263615D01*
X122232Y263648D01*
X122214Y263688D01*
X122196Y263732D01*
X122167Y263779D01*
X122134Y263823D01*
X122098Y263859D01*
X122094Y263863D01*
X122079Y263874D01*
X122054Y263888D01*
X122025Y263906D01*
X121985Y263925D01*
X121941Y263939D01*
X121890Y263950D01*
X121835Y263954D01*
X121814D01*
X121795Y263950D01*
X121756Y263946D01*
X121701Y263932D01*
X121643Y263914D01*
X121577Y263884D01*
X121515Y263841D01*
X121486Y263815D01*
X121457Y263786D01*
Y263783D01*
X121450Y263779D01*
X121442Y263768D01*
X121435Y263753D01*
X121424Y263735D01*
X121410Y263713D01*
X121399Y263688D01*
X121384Y263659D01*
X121370Y263622D01*
X121359Y263582D01*
X121344Y263539D01*
X121333Y263491D01*
X121326Y263440D01*
X121319Y263382D01*
X121311Y263320D01*
Y263255D01*
Y263251D01*
Y263240D01*
Y263218D01*
X121315Y263196D01*
Y263164D01*
X121319Y263131D01*
X121330Y263051D01*
X121344Y262964D01*
X121370Y262873D01*
X121402Y262792D01*
X121424Y262752D01*
X121450Y262720D01*
X121457Y262712D01*
X121475Y262694D01*
X121508Y262669D01*
X121548Y262640D01*
X121603Y262607D01*
X121665Y262581D01*
X121737Y262563D01*
X121777Y262560D01*
X121817Y262556D01*
X121825D01*
X121846Y262560D01*
X121883Y262563D01*
X121923Y262570D01*
X121970Y262581D01*
X122021Y262603D01*
X122072Y262629D01*
X122119Y262665D01*
X122127Y262669D01*
X122138Y262687D01*
X122160Y262712D01*
X122185Y262752D01*
X122211Y262800D01*
X122240Y262858D01*
X122261Y262931D01*
X122276Y263011D01*
X122582Y262971D01*
Y262967D01*
X122578Y262956D01*
X122574Y262942D01*
X122571Y262920D01*
X122564Y262891D01*
X122556Y262862D01*
X122531Y262789D01*
X122498Y262712D01*
X122451Y262629D01*
X122392Y262549D01*
X122360Y262512D01*
X122323Y262476D01*
X122320Y262472D01*
X122312Y262469D01*
X122301Y262461D01*
X122287Y262450D01*
X122269Y262436D01*
X122243Y262421D01*
X122214Y262407D01*
X122185Y262388D01*
X122112Y262356D01*
X122025Y262330D01*
X121930Y262308D01*
X121876Y262305D01*
X121821Y262301D01*
X121785D01*
X121759Y262305D01*
X121726Y262308D01*
X121690Y262316D01*
X121650Y262323D01*
X121606Y262330D01*
X121508Y262359D01*
X121461Y262381D01*
X121410Y262403D01*
X121359Y262432D01*
X121311Y262465D01*
X121264Y262501D01*
X121220Y262545D01*
X121217Y262549D01*
X121210Y262556D01*
X121199Y262570D01*
X121184Y262589D01*
X121169Y262614D01*
X121148Y262647D01*
X121129Y262683D01*
X121107Y262723D01*
X121086Y262771D01*
X121068Y262825D01*
X121046Y262880D01*
X121031Y262945D01*
X121017Y263011D01*
X121006Y263087D01*
X120998Y263164D01*
X120995Y263247D01*
Y263251D01*
Y263262D01*
Y263277D01*
Y263298D01*
X120998Y263324D01*
Y263353D01*
X121002Y263386D01*
X121006Y263422D01*
X121017Y263502D01*
X121035Y263590D01*
X121057Y263677D01*
X121089Y263764D01*
Y263768D01*
X121093Y263775D01*
X121100Y263786D01*
X121107Y263801D01*
X121129Y263841D01*
X121162Y263888D01*
X121206Y263943D01*
X121257Y263997D01*
X121319Y264052D01*
X121388Y264096D01*
X121391D01*
X121399Y264099D01*
X121410Y264106D01*
X121424Y264114D01*
X121442Y264121D01*
X121464Y264132D01*
X121519Y264154D01*
X121581Y264172D01*
X121657Y264190D01*
X121737Y264205D01*
X121825Y264208D01*
X121854D01*
X121876Y264205D01*
D02*
G37*
G36*
X120114D02*
X120136D01*
X120165Y264201D01*
X120234Y264190D01*
X120310Y264172D01*
X120390Y264143D01*
X120471Y264106D01*
X120547Y264055D01*
X120551D01*
X120554Y264048D01*
X120576Y264026D01*
X120609Y263994D01*
X120649Y263946D01*
X120689Y263888D01*
X120729Y263815D01*
X120765Y263732D01*
X120791Y263633D01*
X120489Y263586D01*
Y263590D01*
X120485Y263593D01*
X120482Y263615D01*
X120471Y263648D01*
X120452Y263688D01*
X120434Y263732D01*
X120405Y263779D01*
X120372Y263823D01*
X120336Y263859D01*
X120332Y263863D01*
X120318Y263874D01*
X120292Y263888D01*
X120263Y263906D01*
X120223Y263925D01*
X120179Y263939D01*
X120128Y263950D01*
X120074Y263954D01*
X120052D01*
X120034Y263950D01*
X119994Y263946D01*
X119939Y263932D01*
X119881Y263914D01*
X119815Y263884D01*
X119754Y263841D01*
X119724Y263815D01*
X119695Y263786D01*
Y263783D01*
X119688Y263779D01*
X119681Y263768D01*
X119673Y263753D01*
X119662Y263735D01*
X119648Y263713D01*
X119637Y263688D01*
X119622Y263659D01*
X119608Y263622D01*
X119597Y263582D01*
X119582Y263539D01*
X119571Y263491D01*
X119564Y263440D01*
X119557Y263382D01*
X119550Y263320D01*
Y263255D01*
Y263251D01*
Y263240D01*
Y263218D01*
X119553Y263196D01*
Y263164D01*
X119557Y263131D01*
X119568Y263051D01*
X119582Y262964D01*
X119608Y262873D01*
X119641Y262792D01*
X119662Y262752D01*
X119688Y262720D01*
X119695Y262712D01*
X119713Y262694D01*
X119746Y262669D01*
X119786Y262640D01*
X119841Y262607D01*
X119903Y262581D01*
X119975Y262563D01*
X120016Y262560D01*
X120056Y262556D01*
X120063D01*
X120085Y262560D01*
X120121Y262563D01*
X120161Y262570D01*
X120209Y262581D01*
X120259Y262603D01*
X120310Y262629D01*
X120358Y262665D01*
X120365Y262669D01*
X120376Y262687D01*
X120398Y262712D01*
X120423Y262752D01*
X120449Y262800D01*
X120478Y262858D01*
X120500Y262931D01*
X120514Y263011D01*
X120820Y262971D01*
Y262967D01*
X120816Y262956D01*
X120813Y262942D01*
X120809Y262920D01*
X120802Y262891D01*
X120794Y262862D01*
X120769Y262789D01*
X120736Y262712D01*
X120689Y262629D01*
X120631Y262549D01*
X120598Y262512D01*
X120562Y262476D01*
X120558Y262472D01*
X120551Y262469D01*
X120540Y262461D01*
X120525Y262450D01*
X120507Y262436D01*
X120482Y262421D01*
X120452Y262407D01*
X120423Y262388D01*
X120350Y262356D01*
X120263Y262330D01*
X120168Y262308D01*
X120114Y262305D01*
X120059Y262301D01*
X120023D01*
X119997Y262305D01*
X119965Y262308D01*
X119928Y262316D01*
X119888Y262323D01*
X119844Y262330D01*
X119746Y262359D01*
X119699Y262381D01*
X119648Y262403D01*
X119597Y262432D01*
X119550Y262465D01*
X119502Y262501D01*
X119459Y262545D01*
X119455Y262549D01*
X119448Y262556D01*
X119437Y262570D01*
X119422Y262589D01*
X119408Y262614D01*
X119386Y262647D01*
X119368Y262683D01*
X119346Y262723D01*
X119324Y262771D01*
X119306Y262825D01*
X119284Y262880D01*
X119269Y262945D01*
X119255Y263011D01*
X119244Y263087D01*
X119237Y263164D01*
X119233Y263247D01*
Y263251D01*
Y263262D01*
Y263277D01*
Y263298D01*
X119237Y263324D01*
Y263353D01*
X119240Y263386D01*
X119244Y263422D01*
X119255Y263502D01*
X119273Y263590D01*
X119295Y263677D01*
X119328Y263764D01*
Y263768D01*
X119331Y263775D01*
X119339Y263786D01*
X119346Y263801D01*
X119368Y263841D01*
X119400Y263888D01*
X119444Y263943D01*
X119495Y263997D01*
X119557Y264052D01*
X119626Y264096D01*
X119630D01*
X119637Y264099D01*
X119648Y264106D01*
X119662Y264114D01*
X119681Y264121D01*
X119702Y264132D01*
X119757Y264154D01*
X119819Y264172D01*
X119895Y264190D01*
X119975Y264205D01*
X120063Y264208D01*
X120092D01*
X120114Y264205D01*
D02*
G37*
G36*
X118079Y262341D02*
X117730D01*
X116754Y264860D01*
X117118D01*
X117773Y263029D01*
Y263025D01*
X117777Y263018D01*
X117781Y263007D01*
X117788Y262993D01*
X117791Y262971D01*
X117799Y262949D01*
X117817Y262894D01*
X117839Y262832D01*
X117861Y262763D01*
X117904Y262618D01*
Y262621D01*
X117908Y262629D01*
X117912Y262640D01*
X117915Y262654D01*
X117926Y262694D01*
X117944Y262749D01*
X117963Y262811D01*
X117984Y262880D01*
X118010Y262953D01*
X118039Y263029D01*
X118723Y264860D01*
X119062D01*
X118079Y262341D01*
D02*
G37*
G36*
X114698Y264856D02*
X114730D01*
X114807Y264853D01*
X114887Y264842D01*
X114974Y264831D01*
X115054Y264813D01*
X115094Y264802D01*
X115127Y264791D01*
X115131D01*
X115134Y264787D01*
X115156Y264776D01*
X115189Y264762D01*
X115229Y264736D01*
X115273Y264703D01*
X115320Y264660D01*
X115364Y264609D01*
X115407Y264551D01*
Y264547D01*
X115411Y264543D01*
X115426Y264522D01*
X115440Y264485D01*
X115462Y264438D01*
X115480Y264383D01*
X115498Y264318D01*
X115509Y264248D01*
X115513Y264172D01*
Y264168D01*
Y264161D01*
Y264146D01*
X115509Y264128D01*
Y264103D01*
X115506Y264077D01*
X115491Y264016D01*
X115469Y263943D01*
X115440Y263866D01*
X115396Y263790D01*
X115367Y263753D01*
X115338Y263717D01*
X115334Y263713D01*
X115331Y263710D01*
X115320Y263699D01*
X115305Y263688D01*
X115287Y263673D01*
X115265Y263659D01*
X115236Y263641D01*
X115207Y263619D01*
X115171Y263601D01*
X115131Y263582D01*
X115087Y263561D01*
X115040Y263542D01*
X114985Y263528D01*
X114930Y263509D01*
X114869Y263499D01*
X114803Y263488D01*
X114810Y263484D01*
X114825Y263477D01*
X114847Y263462D01*
X114876Y263448D01*
X114941Y263408D01*
X114974Y263382D01*
X115003Y263360D01*
X115010Y263353D01*
X115029Y263335D01*
X115058Y263306D01*
X115094Y263269D01*
X115134Y263218D01*
X115182Y263164D01*
X115229Y263098D01*
X115280Y263025D01*
X115713Y262341D01*
X115298D01*
X114967Y262865D01*
Y262869D01*
X114960Y262876D01*
X114952Y262887D01*
X114941Y262902D01*
X114916Y262942D01*
X114883Y262993D01*
X114843Y263047D01*
X114803Y263106D01*
X114763Y263160D01*
X114727Y263211D01*
X114723Y263215D01*
X114712Y263229D01*
X114694Y263251D01*
X114668Y263277D01*
X114614Y263331D01*
X114585Y263357D01*
X114556Y263379D01*
X114552Y263382D01*
X114545Y263386D01*
X114530Y263393D01*
X114508Y263404D01*
X114486Y263415D01*
X114461Y263426D01*
X114403Y263444D01*
X114399D01*
X114392Y263448D01*
X114377D01*
X114359Y263451D01*
X114333Y263455D01*
X114304D01*
X114264Y263459D01*
X113835D01*
Y262341D01*
X113500D01*
Y264860D01*
X114668D01*
X114698Y264856D01*
D02*
G37*
G36*
X263678Y159332D02*
X263674Y159302D01*
Y159270D01*
X263670Y159193D01*
X263660Y159113D01*
X263649Y159026D01*
X263630Y158946D01*
X263619Y158906D01*
X263609Y158873D01*
Y158869D01*
X263605Y158866D01*
X263594Y158844D01*
X263579Y158811D01*
X263554Y158771D01*
X263521Y158727D01*
X263477Y158680D01*
X263426Y158636D01*
X263368Y158593D01*
X263365D01*
X263361Y158589D01*
X263339Y158574D01*
X263303Y158560D01*
X263255Y158538D01*
X263201Y158520D01*
X263135Y158502D01*
X263066Y158491D01*
X262990Y158487D01*
X262986D01*
X262979D01*
X262964D01*
X262946Y158491D01*
X262921D01*
X262895Y158494D01*
X262833Y158509D01*
X262760Y158531D01*
X262684Y158560D01*
X262608Y158604D01*
X262571Y158633D01*
X262535Y158662D01*
X262531Y158666D01*
X262527Y158669D01*
X262516Y158680D01*
X262506Y158695D01*
X262491Y158713D01*
X262476Y158735D01*
X262458Y158764D01*
X262436Y158793D01*
X262418Y158829D01*
X262400Y158869D01*
X262378Y158913D01*
X262360Y158960D01*
X262345Y159015D01*
X262327Y159070D01*
X262316Y159131D01*
X262305Y159197D01*
X262302Y159190D01*
X262295Y159175D01*
X262280Y159153D01*
X262265Y159124D01*
X262225Y159059D01*
X262200Y159026D01*
X262178Y158997D01*
X262171Y158989D01*
X262153Y158971D01*
X262123Y158942D01*
X262087Y158906D01*
X262036Y158866D01*
X261981Y158818D01*
X261916Y158771D01*
X261843Y158720D01*
X261159Y158287D01*
Y158702D01*
X261683Y159033D01*
X261687D01*
X261694Y159040D01*
X261705Y159048D01*
X261719Y159059D01*
X261759Y159084D01*
X261810Y159117D01*
X261865Y159157D01*
X261923Y159197D01*
X261978Y159237D01*
X262029Y159273D01*
X262032Y159277D01*
X262047Y159288D01*
X262069Y159306D01*
X262094Y159332D01*
X262149Y159386D01*
X262174Y159415D01*
X262196Y159444D01*
X262200Y159448D01*
X262204Y159455D01*
X262211Y159470D01*
X262222Y159492D01*
X262233Y159514D01*
X262244Y159539D01*
X262262Y159597D01*
Y159601D01*
X262265Y159608D01*
Y159623D01*
X262269Y159641D01*
X262273Y159667D01*
Y159696D01*
X262276Y159736D01*
Y160165D01*
X261159D01*
Y160500D01*
X263678D01*
Y159332D01*
D02*
G37*
G36*
Y156594D02*
X261159D01*
Y156929D01*
X263678D01*
Y156594D01*
D02*
G37*
G36*
X262986Y155768D02*
X262724D01*
X262728Y155764D01*
X262738Y155757D01*
X262753Y155746D01*
X262771Y155732D01*
X262793Y155710D01*
X262819Y155684D01*
X262848Y155655D01*
X262877Y155619D01*
X262902Y155582D01*
X262931Y155539D01*
X262957Y155491D01*
X262979Y155440D01*
X262997Y155382D01*
X263012Y155324D01*
X263022Y155258D01*
X263026Y155189D01*
Y155160D01*
X263022Y155131D01*
X263019Y155091D01*
X263012Y155044D01*
X263001Y154993D01*
X262986Y154938D01*
X262964Y154887D01*
X262961Y154880D01*
X262953Y154865D01*
X262942Y154840D01*
X262924Y154811D01*
X262902Y154774D01*
X262873Y154742D01*
X262844Y154709D01*
X262808Y154680D01*
X262804Y154676D01*
X262790Y154669D01*
X262771Y154658D01*
X262746Y154640D01*
X262709Y154625D01*
X262673Y154611D01*
X262629Y154592D01*
X262582Y154581D01*
X262578D01*
X262564Y154578D01*
X262542Y154574D01*
X262513Y154570D01*
X262469D01*
X262418Y154567D01*
X262356Y154563D01*
X262280D01*
X261159D01*
Y154873D01*
X262265D01*
X262269D01*
X262273D01*
X262298D01*
X262331D01*
X262371Y154876D01*
X262418Y154880D01*
X262466Y154887D01*
X262509Y154898D01*
X262549Y154909D01*
X262553D01*
X262564Y154916D01*
X262582Y154927D01*
X262604Y154938D01*
X262626Y154956D01*
X262651Y154978D01*
X262677Y155007D01*
X262699Y155040D01*
X262702Y155044D01*
X262709Y155055D01*
X262717Y155076D01*
X262728Y155102D01*
X262738Y155131D01*
X262750Y155167D01*
X262753Y155211D01*
X262757Y155255D01*
Y155273D01*
X262753Y155288D01*
X262750Y155324D01*
X262742Y155371D01*
X262724Y155422D01*
X262702Y155481D01*
X262673Y155539D01*
X262629Y155593D01*
X262622Y155601D01*
X262604Y155615D01*
X262589Y155626D01*
X262571Y155637D01*
X262549Y155651D01*
X262524Y155663D01*
X262495Y155677D01*
X262458Y155692D01*
X262418Y155702D01*
X262374Y155713D01*
X262327Y155721D01*
X262276Y155728D01*
X262214Y155735D01*
X262153D01*
X261159D01*
Y156045D01*
X262986D01*
Y155768D01*
D02*
G37*
G36*
Y153806D02*
X262746D01*
X262753Y153802D01*
X262768Y153788D01*
X262793Y153770D01*
X262822Y153741D01*
X262859Y153708D01*
X262891Y153671D01*
X262924Y153628D01*
X262953Y153584D01*
X262957Y153577D01*
X262964Y153562D01*
X262975Y153533D01*
X262990Y153497D01*
X263004Y153453D01*
X263015Y153402D01*
X263022Y153344D01*
X263026Y153278D01*
Y153238D01*
X263022Y153220D01*
X263019Y153195D01*
X263012Y153140D01*
X262997Y153074D01*
X262975Y153005D01*
X262942Y152936D01*
X262902Y152867D01*
Y152863D01*
X262895Y152860D01*
X262880Y152838D01*
X262851Y152805D01*
X262815Y152765D01*
X262768Y152721D01*
X262709Y152678D01*
X262640Y152634D01*
X262564Y152598D01*
X262560D01*
X262553Y152594D01*
X262542Y152590D01*
X262527Y152583D01*
X262506Y152576D01*
X262480Y152568D01*
X262422Y152550D01*
X262349Y152532D01*
X262269Y152517D01*
X262178Y152507D01*
X262083Y152503D01*
X262080D01*
X262072D01*
X262058D01*
X262036D01*
X262011Y152507D01*
X261981D01*
X261916Y152514D01*
X261836Y152528D01*
X261752Y152547D01*
X261665Y152572D01*
X261577Y152605D01*
X261574D01*
X261566Y152609D01*
X261556Y152616D01*
X261541Y152623D01*
X261501Y152649D01*
X261450Y152681D01*
X261395Y152721D01*
X261341Y152772D01*
X261286Y152831D01*
X261235Y152900D01*
Y152903D01*
X261232Y152907D01*
X261224Y152918D01*
X261217Y152933D01*
X261199Y152969D01*
X261177Y153020D01*
X261155Y153082D01*
X261137Y153147D01*
X261122Y153224D01*
X261119Y153300D01*
Y153326D01*
X261122Y153355D01*
X261126Y153391D01*
X261133Y153435D01*
X261144Y153482D01*
X261159Y153529D01*
X261181Y153577D01*
X261184Y153580D01*
X261192Y153599D01*
X261206Y153620D01*
X261228Y153649D01*
X261250Y153679D01*
X261279Y153715D01*
X261312Y153748D01*
X261348Y153777D01*
X260460D01*
Y154086D01*
X262986D01*
Y153806D01*
D02*
G37*
G36*
Y151826D02*
X261970D01*
X261967D01*
X261960D01*
X261949D01*
X261930D01*
X261890D01*
X261840Y151822D01*
X261785D01*
X261730Y151819D01*
X261683Y151815D01*
X261643Y151808D01*
X261639D01*
X261625Y151800D01*
X261603Y151793D01*
X261574Y151782D01*
X261545Y151764D01*
X261512Y151742D01*
X261483Y151717D01*
X261454Y151684D01*
X261450Y151680D01*
X261443Y151666D01*
X261432Y151648D01*
X261421Y151618D01*
X261406Y151586D01*
X261395Y151546D01*
X261388Y151502D01*
X261385Y151451D01*
Y151426D01*
X261388Y151400D01*
X261392Y151367D01*
X261403Y151327D01*
X261414Y151284D01*
X261432Y151236D01*
X261454Y151189D01*
X261457Y151182D01*
X261468Y151167D01*
X261483Y151145D01*
X261505Y151120D01*
X261534Y151091D01*
X261566Y151061D01*
X261603Y151036D01*
X261647Y151014D01*
X261654Y151011D01*
X261668Y151007D01*
X261698Y151000D01*
X261738Y150989D01*
X261789Y150978D01*
X261850Y150970D01*
X261923Y150967D01*
X262007Y150963D01*
X262986D01*
Y150654D01*
X261159D01*
Y150931D01*
X261424D01*
X261421Y150934D01*
X261410Y150941D01*
X261395Y150952D01*
X261377Y150970D01*
X261355Y150992D01*
X261326Y151018D01*
X261301Y151047D01*
X261272Y151083D01*
X261243Y151123D01*
X261217Y151167D01*
X261192Y151214D01*
X261166Y151265D01*
X261148Y151324D01*
X261133Y151382D01*
X261122Y151447D01*
X261119Y151513D01*
Y151538D01*
X261122Y151571D01*
X261126Y151611D01*
X261133Y151658D01*
X261144Y151709D01*
X261159Y151760D01*
X261181Y151815D01*
X261184Y151822D01*
X261192Y151837D01*
X261206Y151862D01*
X261224Y151891D01*
X261246Y151928D01*
X261272Y151961D01*
X261301Y151993D01*
X261333Y152023D01*
X261337Y152026D01*
X261352Y152033D01*
X261370Y152044D01*
X261399Y152059D01*
X261432Y152077D01*
X261472Y152092D01*
X261515Y152106D01*
X261563Y152117D01*
X261566D01*
X261581Y152121D01*
X261603Y152124D01*
X261632D01*
X261676Y152128D01*
X261723Y152132D01*
X261785Y152135D01*
X261854D01*
X262986D01*
Y151826D01*
D02*
G37*
G36*
Y150119D02*
X263437D01*
X263623Y149809D01*
X262986D01*
Y149496D01*
X262746D01*
Y149809D01*
X261672D01*
X261665D01*
X261650D01*
X261628D01*
X261603Y149806D01*
X261545Y149802D01*
X261519Y149798D01*
X261501Y149795D01*
X261494Y149791D01*
X261479Y149780D01*
X261461Y149766D01*
X261443Y149740D01*
X261439Y149733D01*
X261432Y149715D01*
X261424Y149682D01*
X261421Y149635D01*
Y149598D01*
X261424Y149580D01*
Y149555D01*
X261428Y149525D01*
X261432Y149496D01*
X261159Y149456D01*
Y149464D01*
X261155Y149478D01*
X261152Y149504D01*
X261148Y149536D01*
X261141Y149573D01*
X261137Y149613D01*
X261133Y149693D01*
Y149722D01*
X261137Y149751D01*
X261141Y149787D01*
X261144Y149831D01*
X261155Y149875D01*
X261166Y149915D01*
X261184Y149955D01*
X261188Y149959D01*
X261195Y149969D01*
X261206Y149984D01*
X261224Y150006D01*
X261243Y150024D01*
X261268Y150046D01*
X261294Y150068D01*
X261326Y150082D01*
X261330D01*
X261344Y150090D01*
X261370Y150093D01*
X261406Y150101D01*
X261454Y150108D01*
X261483Y150111D01*
X261515D01*
X261556Y150115D01*
X261596Y150119D01*
X261639D01*
X261690D01*
X262746D01*
Y150348D01*
X262986D01*
Y150119D01*
D02*
G37*
G36*
X225239Y153866D02*
X225235D01*
X225221D01*
X225199D01*
X225170Y153870D01*
X225137Y153873D01*
X225101Y153881D01*
X225064Y153888D01*
X225024Y153902D01*
X225021D01*
X225017Y153906D01*
X224995Y153913D01*
X224962Y153928D01*
X224919Y153950D01*
X224868Y153979D01*
X224809Y154015D01*
X224751Y154055D01*
X224689Y154106D01*
X224686D01*
X224682Y154113D01*
X224660Y154132D01*
X224627Y154164D01*
X224580Y154212D01*
X224525Y154266D01*
X224460Y154335D01*
X224387Y154419D01*
X224311Y154510D01*
X224307Y154514D01*
X224296Y154528D01*
X224278Y154550D01*
X224256Y154576D01*
X224227Y154609D01*
X224194Y154649D01*
X224158Y154689D01*
X224118Y154736D01*
X224030Y154827D01*
X223943Y154918D01*
X223899Y154962D01*
X223856Y155002D01*
X223816Y155038D01*
X223776Y155067D01*
X223772D01*
X223768Y155074D01*
X223758Y155082D01*
X223743Y155089D01*
X223703Y155114D01*
X223656Y155144D01*
X223597Y155169D01*
X223535Y155195D01*
X223466Y155209D01*
X223401Y155216D01*
X223397D01*
X223394D01*
X223372Y155213D01*
X223335Y155209D01*
X223295Y155198D01*
X223244Y155184D01*
X223193Y155158D01*
X223142Y155125D01*
X223091Y155082D01*
X223084Y155074D01*
X223070Y155056D01*
X223051Y155031D01*
X223026Y154991D01*
X223004Y154940D01*
X222982Y154882D01*
X222968Y154812D01*
X222964Y154736D01*
Y154714D01*
X222968Y154700D01*
X222971Y154656D01*
X222982Y154605D01*
X222997Y154550D01*
X223022Y154488D01*
X223055Y154430D01*
X223099Y154376D01*
X223106Y154368D01*
X223124Y154354D01*
X223153Y154332D01*
X223197Y154310D01*
X223248Y154285D01*
X223313Y154263D01*
X223386Y154248D01*
X223470Y154241D01*
X223437Y153924D01*
X223433D01*
X223423Y153928D01*
X223404D01*
X223379Y153931D01*
X223350Y153939D01*
X223317Y153946D01*
X223277Y153957D01*
X223237Y153968D01*
X223150Y153997D01*
X223062Y154041D01*
X223019Y154066D01*
X222975Y154099D01*
X222935Y154132D01*
X222898Y154168D01*
X222895Y154172D01*
X222891Y154179D01*
X222880Y154190D01*
X222869Y154208D01*
X222855Y154230D01*
X222840Y154255D01*
X222822Y154285D01*
X222804Y154321D01*
X222786Y154361D01*
X222767Y154405D01*
X222753Y154452D01*
X222738Y154503D01*
X222727Y154558D01*
X222716Y154616D01*
X222713Y154678D01*
X222709Y154743D01*
Y154780D01*
X222713Y154805D01*
X222716Y154834D01*
X222720Y154871D01*
X222727Y154911D01*
X222735Y154951D01*
X222760Y155045D01*
X222797Y155140D01*
X222818Y155187D01*
X222844Y155235D01*
X222877Y155278D01*
X222913Y155318D01*
X222917Y155322D01*
X222920Y155329D01*
X222935Y155336D01*
X222949Y155351D01*
X222968Y155369D01*
X222993Y155387D01*
X223019Y155406D01*
X223051Y155428D01*
X223120Y155464D01*
X223208Y155500D01*
X223252Y155515D01*
X223303Y155522D01*
X223353Y155529D01*
X223408Y155533D01*
X223415D01*
X223433D01*
X223463Y155529D01*
X223503Y155526D01*
X223546Y155518D01*
X223597Y155504D01*
X223652Y155489D01*
X223707Y155468D01*
X223714Y155464D01*
X223732Y155457D01*
X223761Y155442D01*
X223801Y155420D01*
X223845Y155391D01*
X223899Y155355D01*
X223954Y155311D01*
X224016Y155260D01*
X224023Y155253D01*
X224045Y155235D01*
X224063Y155216D01*
X224081Y155198D01*
X224103Y155176D01*
X224132Y155147D01*
X224162Y155118D01*
X224194Y155082D01*
X224231Y155045D01*
X224271Y155002D01*
X224311Y154954D01*
X224358Y154903D01*
X224405Y154845D01*
X224456Y154787D01*
X224460Y154783D01*
X224467Y154776D01*
X224478Y154761D01*
X224493Y154743D01*
X224515Y154721D01*
X224536Y154696D01*
X224584Y154638D01*
X224638Y154576D01*
X224693Y154517D01*
X224740Y154467D01*
X224759Y154445D01*
X224777Y154427D01*
X224780Y154423D01*
X224791Y154412D01*
X224806Y154397D01*
X224828Y154379D01*
X224853Y154361D01*
X224879Y154339D01*
X224940Y154296D01*
Y155537D01*
X225239D01*
Y153866D01*
D02*
G37*
G36*
Y153298D02*
X224715Y152967D01*
X224711D01*
X224704Y152960D01*
X224693Y152952D01*
X224678Y152941D01*
X224638Y152916D01*
X224587Y152883D01*
X224533Y152843D01*
X224475Y152803D01*
X224420Y152763D01*
X224369Y152727D01*
X224365Y152723D01*
X224351Y152712D01*
X224329Y152694D01*
X224304Y152668D01*
X224249Y152614D01*
X224223Y152585D01*
X224201Y152556D01*
X224198Y152552D01*
X224194Y152545D01*
X224187Y152530D01*
X224176Y152508D01*
X224165Y152486D01*
X224154Y152461D01*
X224136Y152403D01*
Y152399D01*
X224132Y152392D01*
Y152377D01*
X224129Y152359D01*
X224125Y152333D01*
Y152304D01*
X224121Y152264D01*
Y151835D01*
X225239D01*
Y151500D01*
X222720D01*
Y152668D01*
X222724Y152698D01*
Y152730D01*
X222727Y152807D01*
X222738Y152887D01*
X222749Y152974D01*
X222767Y153054D01*
X222778Y153094D01*
X222789Y153127D01*
Y153131D01*
X222793Y153134D01*
X222804Y153156D01*
X222818Y153189D01*
X222844Y153229D01*
X222877Y153273D01*
X222920Y153320D01*
X222971Y153364D01*
X223029Y153407D01*
X223033D01*
X223037Y153411D01*
X223059Y153426D01*
X223095Y153440D01*
X223142Y153462D01*
X223197Y153480D01*
X223262Y153498D01*
X223332Y153509D01*
X223408Y153513D01*
X223412D01*
X223419D01*
X223433D01*
X223452Y153509D01*
X223477D01*
X223503Y153506D01*
X223565Y153491D01*
X223637Y153469D01*
X223714Y153440D01*
X223790Y153396D01*
X223827Y153367D01*
X223863Y153338D01*
X223867Y153334D01*
X223870Y153331D01*
X223881Y153320D01*
X223892Y153305D01*
X223907Y153287D01*
X223921Y153265D01*
X223939Y153236D01*
X223961Y153207D01*
X223979Y153171D01*
X223998Y153131D01*
X224020Y153087D01*
X224038Y153040D01*
X224052Y152985D01*
X224071Y152930D01*
X224081Y152869D01*
X224092Y152803D01*
X224096Y152810D01*
X224103Y152825D01*
X224118Y152847D01*
X224132Y152876D01*
X224172Y152941D01*
X224198Y152974D01*
X224220Y153003D01*
X224227Y153010D01*
X224245Y153029D01*
X224274Y153058D01*
X224311Y153094D01*
X224362Y153134D01*
X224416Y153182D01*
X224482Y153229D01*
X224555Y153280D01*
X225239Y153713D01*
Y153298D01*
D02*
G37*
G36*
X245500Y22720D02*
X244332D01*
X244303Y22724D01*
X244270D01*
X244193Y22727D01*
X244113Y22738D01*
X244026Y22749D01*
X243946Y22767D01*
X243906Y22778D01*
X243873Y22789D01*
X243869D01*
X243866Y22793D01*
X243844Y22804D01*
X243811Y22818D01*
X243771Y22844D01*
X243727Y22877D01*
X243680Y22920D01*
X243636Y22971D01*
X243593Y23030D01*
Y23033D01*
X243589Y23037D01*
X243575Y23059D01*
X243560Y23095D01*
X243538Y23142D01*
X243520Y23197D01*
X243502Y23262D01*
X243491Y23332D01*
X243487Y23408D01*
Y23412D01*
Y23419D01*
Y23434D01*
X243491Y23452D01*
Y23477D01*
X243494Y23503D01*
X243509Y23564D01*
X243531Y23637D01*
X243560Y23714D01*
X243604Y23790D01*
X243633Y23827D01*
X243662Y23863D01*
X243666Y23867D01*
X243669Y23870D01*
X243680Y23881D01*
X243695Y23892D01*
X243713Y23907D01*
X243735Y23921D01*
X243764Y23939D01*
X243793Y23961D01*
X243829Y23979D01*
X243869Y23998D01*
X243913Y24020D01*
X243960Y24038D01*
X244015Y24052D01*
X244070Y24070D01*
X244131Y24081D01*
X244197Y24092D01*
X244190Y24096D01*
X244175Y24103D01*
X244153Y24118D01*
X244124Y24132D01*
X244059Y24172D01*
X244026Y24198D01*
X243997Y24220D01*
X243989Y24227D01*
X243971Y24245D01*
X243942Y24274D01*
X243906Y24311D01*
X243866Y24362D01*
X243818Y24416D01*
X243771Y24482D01*
X243720Y24555D01*
X243287Y25239D01*
X243702D01*
X244033Y24715D01*
Y24711D01*
X244040Y24704D01*
X244048Y24693D01*
X244059Y24678D01*
X244084Y24638D01*
X244117Y24587D01*
X244157Y24533D01*
X244197Y24475D01*
X244237Y24420D01*
X244273Y24369D01*
X244277Y24365D01*
X244288Y24351D01*
X244306Y24329D01*
X244332Y24304D01*
X244386Y24249D01*
X244415Y24223D01*
X244444Y24202D01*
X244448Y24198D01*
X244455Y24194D01*
X244470Y24187D01*
X244492Y24176D01*
X244514Y24165D01*
X244539Y24154D01*
X244597Y24136D01*
X244601D01*
X244608Y24132D01*
X244623D01*
X244641Y24129D01*
X244667Y24125D01*
X244696D01*
X244736Y24122D01*
X245165D01*
Y25239D01*
X245500D01*
Y22720D01*
D02*
G37*
G36*
X242235Y23270D02*
X242239Y23273D01*
X242257Y23288D01*
X242279Y23310D01*
X242315Y23335D01*
X242355Y23368D01*
X242406Y23404D01*
X242464Y23444D01*
X242530Y23484D01*
X242533D01*
X242537Y23488D01*
X242559Y23503D01*
X242595Y23521D01*
X242639Y23543D01*
X242690Y23568D01*
X242744Y23594D01*
X242799Y23619D01*
X242854Y23641D01*
Y23343D01*
X242850D01*
X242843Y23335D01*
X242828Y23332D01*
X242810Y23321D01*
X242788Y23310D01*
X242763Y23295D01*
X242701Y23259D01*
X242628Y23219D01*
X242555Y23168D01*
X242479Y23110D01*
X242402Y23048D01*
X242399Y23044D01*
X242395Y23040D01*
X242384Y23030D01*
X242370Y23019D01*
X242337Y22982D01*
X242293Y22939D01*
X242249Y22887D01*
X242202Y22829D01*
X242162Y22771D01*
X242126Y22709D01*
X241926D01*
Y25239D01*
X242235D01*
Y23270D01*
D02*
G37*
G36*
X65253Y264695D02*
X65286Y264692D01*
X65322Y264684D01*
X65362Y264677D01*
X65406Y264670D01*
X65504Y264641D01*
X65552Y264619D01*
X65603Y264597D01*
X65654Y264568D01*
X65701Y264535D01*
X65748Y264499D01*
X65792Y264455D01*
X65795Y264451D01*
X65803Y264444D01*
X65814Y264430D01*
X65828Y264411D01*
X65843Y264386D01*
X65865Y264353D01*
X65883Y264317D01*
X65905Y264277D01*
X65926Y264229D01*
X65945Y264175D01*
X65967Y264120D01*
X65981Y264055D01*
X65996Y263989D01*
X66007Y263913D01*
X66014Y263836D01*
X66018Y263753D01*
Y263749D01*
Y263738D01*
Y263723D01*
Y263702D01*
X66014Y263676D01*
Y263647D01*
X66010Y263614D01*
X66007Y263578D01*
X65996Y263498D01*
X65978Y263410D01*
X65956Y263323D01*
X65923Y263236D01*
Y263232D01*
X65919Y263225D01*
X65912Y263214D01*
X65905Y263199D01*
X65883Y263159D01*
X65850Y263112D01*
X65806Y263057D01*
X65755Y263003D01*
X65694Y262948D01*
X65624Y262904D01*
X65621D01*
X65614Y262901D01*
X65603Y262894D01*
X65588Y262886D01*
X65570Y262879D01*
X65548Y262868D01*
X65493Y262846D01*
X65431Y262828D01*
X65355Y262810D01*
X65275Y262795D01*
X65188Y262792D01*
X65158D01*
X65137Y262795D01*
X65115D01*
X65086Y262799D01*
X65017Y262810D01*
X64940Y262828D01*
X64860Y262857D01*
X64780Y262894D01*
X64704Y262944D01*
X64700D01*
X64696Y262952D01*
X64674Y262973D01*
X64642Y263006D01*
X64602Y263054D01*
X64561Y263112D01*
X64521Y263185D01*
X64485Y263268D01*
X64460Y263367D01*
X64762Y263414D01*
Y263410D01*
X64765Y263407D01*
X64769Y263385D01*
X64780Y263352D01*
X64798Y263312D01*
X64816Y263268D01*
X64846Y263221D01*
X64878Y263177D01*
X64915Y263141D01*
X64918Y263137D01*
X64933Y263126D01*
X64958Y263112D01*
X64987Y263094D01*
X65027Y263075D01*
X65071Y263061D01*
X65122Y263050D01*
X65177Y263046D01*
X65199D01*
X65217Y263050D01*
X65257Y263054D01*
X65311Y263068D01*
X65370Y263086D01*
X65435Y263116D01*
X65497Y263159D01*
X65526Y263185D01*
X65555Y263214D01*
Y263217D01*
X65562Y263221D01*
X65570Y263232D01*
X65577Y263246D01*
X65588Y263265D01*
X65603Y263287D01*
X65614Y263312D01*
X65628Y263341D01*
X65643Y263378D01*
X65654Y263418D01*
X65668Y263461D01*
X65679Y263509D01*
X65686Y263560D01*
X65694Y263618D01*
X65701Y263680D01*
Y263745D01*
Y263749D01*
Y263760D01*
Y263782D01*
X65697Y263804D01*
Y263836D01*
X65694Y263869D01*
X65683Y263949D01*
X65668Y264036D01*
X65643Y264127D01*
X65610Y264208D01*
X65588Y264248D01*
X65562Y264280D01*
X65555Y264288D01*
X65537Y264306D01*
X65504Y264331D01*
X65464Y264360D01*
X65410Y264393D01*
X65348Y264419D01*
X65275Y264437D01*
X65235Y264440D01*
X65195Y264444D01*
X65188D01*
X65166Y264440D01*
X65129Y264437D01*
X65089Y264430D01*
X65042Y264419D01*
X64991Y264397D01*
X64940Y264371D01*
X64893Y264335D01*
X64885Y264331D01*
X64875Y264313D01*
X64853Y264288D01*
X64827Y264248D01*
X64802Y264200D01*
X64773Y264142D01*
X64751Y264069D01*
X64736Y263989D01*
X64430Y264029D01*
Y264033D01*
X64434Y264044D01*
X64438Y264058D01*
X64441Y264080D01*
X64449Y264109D01*
X64456Y264138D01*
X64482Y264211D01*
X64514Y264288D01*
X64561Y264371D01*
X64620Y264451D01*
X64653Y264488D01*
X64689Y264524D01*
X64693Y264528D01*
X64700Y264531D01*
X64711Y264539D01*
X64725Y264550D01*
X64744Y264564D01*
X64769Y264579D01*
X64798Y264593D01*
X64827Y264612D01*
X64900Y264644D01*
X64987Y264670D01*
X65082Y264692D01*
X65137Y264695D01*
X65191Y264699D01*
X65228D01*
X65253Y264695D01*
D02*
G37*
G36*
X63491D02*
X63524Y264692D01*
X63561Y264684D01*
X63601Y264677D01*
X63644Y264670D01*
X63743Y264641D01*
X63790Y264619D01*
X63841Y264597D01*
X63892Y264568D01*
X63939Y264535D01*
X63986Y264499D01*
X64030Y264455D01*
X64034Y264451D01*
X64041Y264444D01*
X64052Y264430D01*
X64066Y264411D01*
X64081Y264386D01*
X64103Y264353D01*
X64121Y264317D01*
X64143Y264277D01*
X64165Y264229D01*
X64183Y264175D01*
X64205Y264120D01*
X64219Y264055D01*
X64234Y263989D01*
X64245Y263913D01*
X64252Y263836D01*
X64256Y263753D01*
Y263749D01*
Y263738D01*
Y263723D01*
Y263702D01*
X64252Y263676D01*
Y263647D01*
X64249Y263614D01*
X64245Y263578D01*
X64234Y263498D01*
X64216Y263410D01*
X64194Y263323D01*
X64161Y263236D01*
Y263232D01*
X64157Y263225D01*
X64150Y263214D01*
X64143Y263199D01*
X64121Y263159D01*
X64088Y263112D01*
X64045Y263057D01*
X63994Y263003D01*
X63932Y262948D01*
X63863Y262904D01*
X63859D01*
X63852Y262901D01*
X63841Y262894D01*
X63826Y262886D01*
X63808Y262879D01*
X63786Y262868D01*
X63732Y262846D01*
X63670Y262828D01*
X63593Y262810D01*
X63513Y262795D01*
X63426Y262792D01*
X63397D01*
X63375Y262795D01*
X63353D01*
X63324Y262799D01*
X63255Y262810D01*
X63178Y262828D01*
X63098Y262857D01*
X63018Y262894D01*
X62942Y262944D01*
X62938D01*
X62934Y262952D01*
X62913Y262973D01*
X62880Y263006D01*
X62840Y263054D01*
X62800Y263112D01*
X62760Y263185D01*
X62723Y263268D01*
X62698Y263367D01*
X63000Y263414D01*
Y263410D01*
X63004Y263407D01*
X63007Y263385D01*
X63018Y263352D01*
X63036Y263312D01*
X63055Y263268D01*
X63084Y263221D01*
X63117Y263177D01*
X63153Y263141D01*
X63156Y263137D01*
X63171Y263126D01*
X63197Y263112D01*
X63226Y263094D01*
X63266Y263075D01*
X63309Y263061D01*
X63360Y263050D01*
X63415Y263046D01*
X63437D01*
X63455Y263050D01*
X63495Y263054D01*
X63550Y263068D01*
X63608Y263086D01*
X63673Y263116D01*
X63735Y263159D01*
X63764Y263185D01*
X63793Y263214D01*
Y263217D01*
X63801Y263221D01*
X63808Y263232D01*
X63815Y263246D01*
X63826Y263265D01*
X63841Y263287D01*
X63852Y263312D01*
X63866Y263341D01*
X63881Y263378D01*
X63892Y263418D01*
X63906Y263461D01*
X63917Y263509D01*
X63924Y263560D01*
X63932Y263618D01*
X63939Y263680D01*
Y263745D01*
Y263749D01*
Y263760D01*
Y263782D01*
X63936Y263804D01*
Y263836D01*
X63932Y263869D01*
X63921Y263949D01*
X63906Y264036D01*
X63881Y264127D01*
X63848Y264208D01*
X63826Y264248D01*
X63801Y264280D01*
X63793Y264288D01*
X63775Y264306D01*
X63743Y264331D01*
X63702Y264360D01*
X63648Y264393D01*
X63586Y264419D01*
X63513Y264437D01*
X63473Y264440D01*
X63433Y264444D01*
X63426D01*
X63404Y264440D01*
X63368Y264437D01*
X63328Y264430D01*
X63280Y264419D01*
X63229Y264397D01*
X63178Y264371D01*
X63131Y264335D01*
X63124Y264331D01*
X63113Y264313D01*
X63091Y264288D01*
X63065Y264248D01*
X63040Y264200D01*
X63011Y264142D01*
X62989Y264069D01*
X62975Y263989D01*
X62669Y264029D01*
Y264033D01*
X62672Y264044D01*
X62676Y264058D01*
X62680Y264080D01*
X62687Y264109D01*
X62694Y264138D01*
X62720Y264211D01*
X62752Y264288D01*
X62800Y264371D01*
X62858Y264451D01*
X62891Y264488D01*
X62927Y264524D01*
X62931Y264528D01*
X62938Y264531D01*
X62949Y264539D01*
X62964Y264550D01*
X62982Y264564D01*
X63007Y264579D01*
X63036Y264593D01*
X63065Y264612D01*
X63138Y264644D01*
X63226Y264670D01*
X63320Y264692D01*
X63375Y264695D01*
X63429Y264699D01*
X63466D01*
X63491Y264695D01*
D02*
G37*
G36*
X68496Y262140D02*
X68132D01*
X67477Y263971D01*
Y263974D01*
X67474Y263982D01*
X67470Y263993D01*
X67463Y264007D01*
X67459Y264029D01*
X67452Y264051D01*
X67434Y264106D01*
X67412Y264167D01*
X67390Y264237D01*
X67346Y264382D01*
Y264379D01*
X67343Y264371D01*
X67339Y264360D01*
X67335Y264346D01*
X67324Y264306D01*
X67306Y264251D01*
X67288Y264189D01*
X67266Y264120D01*
X67241Y264047D01*
X67212Y263971D01*
X66527Y262140D01*
X66189D01*
X67171Y264659D01*
X67521D01*
X68496Y262140D01*
D02*
G37*
G36*
X61398D02*
X61063D01*
Y264360D01*
X59822D01*
Y264659D01*
X61398D01*
Y262140D01*
D02*
G37*
G36*
X59422D02*
X57598D01*
Y262439D01*
X59087D01*
Y263207D01*
X57693D01*
Y263505D01*
X59087D01*
Y264360D01*
X57540D01*
Y264659D01*
X59422D01*
Y262140D01*
D02*
G37*
G36*
X57078D02*
X56109D01*
X56044Y262144D01*
X55971Y262147D01*
X55898Y262155D01*
X55826Y262165D01*
X55764Y262176D01*
X55760D01*
X55753Y262180D01*
X55742D01*
X55727Y262187D01*
X55687Y262198D01*
X55636Y262216D01*
X55578Y262242D01*
X55516Y262275D01*
X55454Y262311D01*
X55396Y262358D01*
X55392Y262362D01*
X55389Y262366D01*
X55378Y262377D01*
X55363Y262387D01*
X55327Y262424D01*
X55283Y262475D01*
X55236Y262537D01*
X55185Y262610D01*
X55138Y262693D01*
X55098Y262788D01*
Y262792D01*
X55094Y262799D01*
X55087Y262813D01*
X55083Y262835D01*
X55072Y262861D01*
X55065Y262890D01*
X55058Y262923D01*
X55047Y262963D01*
X55036Y263003D01*
X55028Y263050D01*
X55010Y263152D01*
X54999Y263265D01*
X54996Y263388D01*
Y263392D01*
Y263399D01*
Y263418D01*
Y263436D01*
X54999Y263461D01*
Y263490D01*
X55003Y263560D01*
X55014Y263640D01*
X55025Y263723D01*
X55043Y263811D01*
X55065Y263898D01*
Y263902D01*
X55068Y263909D01*
X55072Y263920D01*
X55076Y263934D01*
X55090Y263974D01*
X55112Y264025D01*
X55134Y264084D01*
X55163Y264142D01*
X55199Y264204D01*
X55236Y264262D01*
X55239Y264269D01*
X55254Y264288D01*
X55276Y264313D01*
X55305Y264346D01*
X55338Y264382D01*
X55378Y264419D01*
X55418Y264459D01*
X55465Y264491D01*
X55472Y264495D01*
X55487Y264506D01*
X55512Y264521D01*
X55549Y264539D01*
X55593Y264561D01*
X55644Y264579D01*
X55702Y264601D01*
X55767Y264619D01*
X55775D01*
X55786Y264622D01*
X55796Y264626D01*
X55833Y264630D01*
X55884Y264637D01*
X55942Y264644D01*
X56011Y264652D01*
X56088Y264655D01*
X56171Y264659D01*
X57078D01*
Y262140D01*
D02*
G37*
G36*
X258644Y229642D02*
X258673D01*
X258742Y229639D01*
X258822Y229628D01*
X258906Y229617D01*
X258993Y229599D01*
X259080Y229577D01*
X259084D01*
X259091Y229573D01*
X259102Y229570D01*
X259117Y229566D01*
X259157Y229551D01*
X259208Y229530D01*
X259266Y229508D01*
X259324Y229479D01*
X259386Y229442D01*
X259444Y229406D01*
X259452Y229402D01*
X259470Y229388D01*
X259495Y229366D01*
X259528Y229337D01*
X259565Y229304D01*
X259601Y229264D01*
X259641Y229224D01*
X259674Y229176D01*
X259677Y229169D01*
X259688Y229155D01*
X259703Y229129D01*
X259721Y229093D01*
X259743Y229049D01*
X259761Y228998D01*
X259783Y228940D01*
X259801Y228874D01*
Y228867D01*
X259805Y228856D01*
X259808Y228845D01*
X259812Y228809D01*
X259819Y228758D01*
X259827Y228700D01*
X259834Y228630D01*
X259838Y228554D01*
X259841Y228470D01*
Y227564D01*
X257322D01*
Y228532D01*
X257326Y228598D01*
X257330Y228671D01*
X257337Y228743D01*
X257348Y228816D01*
X257359Y228878D01*
Y228882D01*
X257362Y228889D01*
Y228900D01*
X257370Y228914D01*
X257381Y228954D01*
X257399Y229005D01*
X257424Y229064D01*
X257457Y229125D01*
X257493Y229187D01*
X257541Y229246D01*
X257544Y229249D01*
X257548Y229253D01*
X257559Y229264D01*
X257570Y229278D01*
X257606Y229315D01*
X257657Y229358D01*
X257719Y229406D01*
X257792Y229457D01*
X257876Y229504D01*
X257970Y229544D01*
X257974D01*
X257981Y229548D01*
X257996Y229555D01*
X258017Y229559D01*
X258043Y229570D01*
X258072Y229577D01*
X258105Y229584D01*
X258145Y229595D01*
X258185Y229606D01*
X258232Y229613D01*
X258334Y229631D01*
X258447Y229642D01*
X258571Y229646D01*
X258575D01*
X258582D01*
X258600D01*
X258618D01*
X258644Y229642D01*
D02*
G37*
G36*
X259841Y225220D02*
X257322D01*
Y227043D01*
X257621D01*
Y225555D01*
X258389D01*
Y226949D01*
X258687D01*
Y225555D01*
X259543D01*
Y227102D01*
X259841D01*
Y225220D01*
D02*
G37*
G36*
Y223243D02*
X257322D01*
Y223578D01*
X259543D01*
Y224819D01*
X259841D01*
Y223243D01*
D02*
G37*
G36*
Y221966D02*
X259845Y221951D01*
X259848Y221926D01*
X259852Y221893D01*
X259859Y221856D01*
X259863Y221816D01*
X259867Y221736D01*
Y221707D01*
X259863Y221678D01*
X259859Y221642D01*
X259856Y221598D01*
X259845Y221554D01*
X259834Y221514D01*
X259816Y221474D01*
X259812Y221471D01*
X259805Y221460D01*
X259794Y221445D01*
X259776Y221423D01*
X259757Y221405D01*
X259732Y221383D01*
X259706Y221361D01*
X259674Y221347D01*
X259670D01*
X259655Y221340D01*
X259630Y221336D01*
X259594Y221329D01*
X259546Y221321D01*
X259517Y221318D01*
X259485D01*
X259444Y221314D01*
X259404Y221310D01*
X259361D01*
X259310D01*
X258254D01*
Y221081D01*
X258014D01*
Y221310D01*
X257563D01*
X257377Y221620D01*
X258014D01*
Y221933D01*
X258254D01*
Y221620D01*
X259328D01*
X259335D01*
X259350D01*
X259372D01*
X259397Y221623D01*
X259455Y221627D01*
X259481Y221631D01*
X259499Y221634D01*
X259506Y221638D01*
X259521Y221649D01*
X259539Y221663D01*
X259557Y221689D01*
X259561Y221696D01*
X259568Y221714D01*
X259576Y221747D01*
X259579Y221795D01*
Y221831D01*
X259576Y221849D01*
Y221875D01*
X259572Y221904D01*
X259568Y221933D01*
X259841Y221973D01*
Y221966D01*
D02*
G37*
G36*
Y220499D02*
X259576D01*
X259579Y220495D01*
X259590Y220488D01*
X259605Y220477D01*
X259623Y220459D01*
X259645Y220437D01*
X259674Y220411D01*
X259699Y220382D01*
X259728Y220346D01*
X259757Y220306D01*
X259783Y220262D01*
X259808Y220215D01*
X259834Y220164D01*
X259852Y220106D01*
X259867Y220047D01*
X259878Y219982D01*
X259881Y219916D01*
Y219891D01*
X259878Y219858D01*
X259874Y219818D01*
X259867Y219771D01*
X259856Y219720D01*
X259841Y219669D01*
X259819Y219614D01*
X259816Y219607D01*
X259808Y219592D01*
X259794Y219567D01*
X259776Y219538D01*
X259754Y219501D01*
X259728Y219469D01*
X259699Y219436D01*
X259666Y219407D01*
X259663Y219403D01*
X259648Y219396D01*
X259630Y219385D01*
X259601Y219370D01*
X259568Y219352D01*
X259528Y219338D01*
X259485Y219323D01*
X259437Y219312D01*
X259434D01*
X259419Y219308D01*
X259397Y219305D01*
X259368D01*
X259324Y219301D01*
X259277Y219298D01*
X259215Y219294D01*
X259146D01*
X258014D01*
Y219603D01*
X259030D01*
X259033D01*
X259040D01*
X259051D01*
X259069D01*
X259109D01*
X259160Y219607D01*
X259215D01*
X259270Y219611D01*
X259317Y219614D01*
X259357Y219621D01*
X259361D01*
X259375Y219629D01*
X259397Y219636D01*
X259426Y219647D01*
X259455Y219665D01*
X259488Y219687D01*
X259517Y219712D01*
X259546Y219745D01*
X259550Y219749D01*
X259557Y219763D01*
X259568Y219782D01*
X259579Y219811D01*
X259594Y219844D01*
X259605Y219883D01*
X259612Y219927D01*
X259615Y219978D01*
Y220004D01*
X259612Y220029D01*
X259608Y220062D01*
X259597Y220102D01*
X259586Y220146D01*
X259568Y220193D01*
X259546Y220240D01*
X259543Y220248D01*
X259532Y220262D01*
X259517Y220284D01*
X259495Y220309D01*
X259466Y220339D01*
X259434Y220368D01*
X259397Y220393D01*
X259353Y220415D01*
X259346Y220419D01*
X259332Y220422D01*
X259302Y220429D01*
X259262Y220440D01*
X259211Y220451D01*
X259150Y220459D01*
X259077Y220462D01*
X258993Y220466D01*
X258014D01*
Y220775D01*
X259841D01*
Y220499D01*
D02*
G37*
G36*
X258989Y218923D02*
X259019D01*
X259084Y218915D01*
X259164Y218901D01*
X259248Y218882D01*
X259335Y218857D01*
X259423Y218824D01*
X259426D01*
X259434Y218821D01*
X259444Y218813D01*
X259459Y218806D01*
X259499Y218781D01*
X259550Y218748D01*
X259605Y218708D01*
X259659Y218657D01*
X259714Y218599D01*
X259765Y218529D01*
Y218526D01*
X259768Y218522D01*
X259776Y218511D01*
X259783Y218497D01*
X259801Y218460D01*
X259823Y218409D01*
X259845Y218347D01*
X259863Y218282D01*
X259878Y218205D01*
X259881Y218129D01*
Y218104D01*
X259878Y218074D01*
X259874Y218038D01*
X259867Y217994D01*
X259856Y217947D01*
X259841Y217900D01*
X259819Y217852D01*
X259816Y217849D01*
X259808Y217830D01*
X259794Y217809D01*
X259772Y217780D01*
X259750Y217751D01*
X259721Y217714D01*
X259688Y217681D01*
X259652Y217652D01*
X260540D01*
Y217343D01*
X258014D01*
Y217623D01*
X258254D01*
X258247Y217627D01*
X258232Y217641D01*
X258207Y217659D01*
X258178Y217689D01*
X258141Y217721D01*
X258109Y217758D01*
X258076Y217801D01*
X258047Y217845D01*
X258043Y217852D01*
X258036Y217867D01*
X258025Y217896D01*
X258010Y217933D01*
X257996Y217976D01*
X257985Y218027D01*
X257978Y218085D01*
X257974Y218151D01*
Y218191D01*
X257978Y218209D01*
X257981Y218235D01*
X257988Y218289D01*
X258003Y218355D01*
X258025Y218424D01*
X258058Y218493D01*
X258098Y218562D01*
Y218566D01*
X258105Y218569D01*
X258120Y218591D01*
X258149Y218624D01*
X258185Y218664D01*
X258232Y218708D01*
X258291Y218752D01*
X258360Y218795D01*
X258436Y218832D01*
X258440D01*
X258447Y218835D01*
X258458Y218839D01*
X258473Y218846D01*
X258494Y218853D01*
X258520Y218861D01*
X258578Y218879D01*
X258651Y218897D01*
X258731Y218912D01*
X258822Y218923D01*
X258917Y218926D01*
X258920D01*
X258928D01*
X258942D01*
X258964D01*
X258989Y218923D01*
D02*
G37*
G36*
X259841Y216557D02*
X258735D01*
X258731D01*
X258727D01*
X258702D01*
X258669D01*
X258629Y216553D01*
X258582Y216549D01*
X258534Y216542D01*
X258491Y216531D01*
X258451Y216520D01*
X258447D01*
X258436Y216513D01*
X258418Y216502D01*
X258396Y216491D01*
X258374Y216473D01*
X258349Y216451D01*
X258323Y216422D01*
X258301Y216389D01*
X258298Y216386D01*
X258291Y216374D01*
X258283Y216353D01*
X258272Y216327D01*
X258261Y216298D01*
X258250Y216262D01*
X258247Y216218D01*
X258243Y216174D01*
Y216156D01*
X258247Y216142D01*
X258250Y216105D01*
X258258Y216058D01*
X258276Y216007D01*
X258298Y215949D01*
X258327Y215890D01*
X258371Y215836D01*
X258378Y215828D01*
X258396Y215814D01*
X258411Y215803D01*
X258429Y215792D01*
X258451Y215778D01*
X258476Y215767D01*
X258505Y215752D01*
X258542Y215738D01*
X258582Y215727D01*
X258625Y215716D01*
X258673Y215708D01*
X258724Y215701D01*
X258786Y215694D01*
X258847D01*
X259841D01*
Y215385D01*
X258014D01*
Y215661D01*
X258276D01*
X258272Y215665D01*
X258261Y215672D01*
X258247Y215683D01*
X258229Y215698D01*
X258207Y215719D01*
X258181Y215745D01*
X258152Y215774D01*
X258123Y215810D01*
X258098Y215847D01*
X258068Y215890D01*
X258043Y215938D01*
X258021Y215989D01*
X258003Y216047D01*
X257988Y216105D01*
X257978Y216171D01*
X257974Y216240D01*
Y216269D01*
X257978Y216298D01*
X257981Y216338D01*
X257988Y216386D01*
X257999Y216436D01*
X258014Y216491D01*
X258036Y216542D01*
X258039Y216549D01*
X258047Y216564D01*
X258058Y216589D01*
X258076Y216618D01*
X258098Y216655D01*
X258127Y216688D01*
X258156Y216720D01*
X258192Y216750D01*
X258196Y216753D01*
X258210Y216760D01*
X258229Y216771D01*
X258254Y216790D01*
X258291Y216804D01*
X258327Y216819D01*
X258371Y216837D01*
X258418Y216848D01*
X258422D01*
X258436Y216851D01*
X258458Y216855D01*
X258487Y216859D01*
X258531D01*
X258582Y216862D01*
X258644Y216866D01*
X258720D01*
X259841D01*
Y216557D01*
D02*
G37*
G36*
Y214500D02*
X257322D01*
Y214835D01*
X259841D01*
Y214500D01*
D02*
G37*
G36*
X92201Y44722D02*
X92205Y44708D01*
X92208Y44682D01*
X92212Y44649D01*
X92219Y44613D01*
X92223Y44573D01*
X92227Y44493D01*
Y44464D01*
X92223Y44435D01*
X92219Y44398D01*
X92216Y44355D01*
X92205Y44311D01*
X92194Y44271D01*
X92176Y44231D01*
X92172Y44227D01*
X92165Y44216D01*
X92154Y44202D01*
X92136Y44180D01*
X92117Y44162D01*
X92092Y44140D01*
X92066Y44118D01*
X92034Y44103D01*
X92030D01*
X92015Y44096D01*
X91990Y44092D01*
X91954Y44085D01*
X91906Y44078D01*
X91877Y44074D01*
X91844D01*
X91804Y44071D01*
X91764Y44067D01*
X91721D01*
X91670D01*
X90614D01*
Y43838D01*
X90374D01*
Y44067D01*
X89922D01*
X89737Y44376D01*
X90374D01*
Y44689D01*
X90614D01*
Y44376D01*
X91688D01*
X91695D01*
X91710D01*
X91732D01*
X91757Y44380D01*
X91815Y44384D01*
X91841Y44387D01*
X91859Y44391D01*
X91866Y44394D01*
X91881Y44405D01*
X91899Y44420D01*
X91917Y44445D01*
X91921Y44453D01*
X91928Y44471D01*
X91935Y44504D01*
X91939Y44551D01*
Y44587D01*
X91935Y44606D01*
Y44631D01*
X91932Y44660D01*
X91928Y44689D01*
X92201Y44729D01*
Y44722D01*
D02*
G37*
G36*
Y43131D02*
X89682D01*
Y43466D01*
X92201D01*
Y43131D01*
D02*
G37*
G36*
X91444Y41741D02*
X91135D01*
Y42698D01*
X91444D01*
Y41741D01*
D02*
G37*
G36*
X92201Y41592D02*
X92205Y41577D01*
X92208Y41552D01*
X92212Y41519D01*
X92219Y41482D01*
X92223Y41442D01*
X92227Y41362D01*
Y41333D01*
X92223Y41304D01*
X92219Y41268D01*
X92216Y41224D01*
X92205Y41180D01*
X92194Y41140D01*
X92176Y41100D01*
X92172Y41097D01*
X92165Y41086D01*
X92154Y41071D01*
X92136Y41049D01*
X92117Y41031D01*
X92092Y41009D01*
X92066Y40988D01*
X92034Y40973D01*
X92030D01*
X92015Y40966D01*
X91990Y40962D01*
X91954Y40955D01*
X91906Y40947D01*
X91877Y40944D01*
X91844D01*
X91804Y40940D01*
X91764Y40936D01*
X91721D01*
X91670D01*
X90614D01*
Y40707D01*
X90374D01*
Y40936D01*
X89922D01*
X89737Y41246D01*
X90374D01*
Y41559D01*
X90614D01*
Y41246D01*
X91688D01*
X91695D01*
X91710D01*
X91732D01*
X91757Y41250D01*
X91815Y41253D01*
X91841Y41257D01*
X91859Y41260D01*
X91866Y41264D01*
X91881Y41275D01*
X91899Y41290D01*
X91917Y41315D01*
X91921Y41322D01*
X91928Y41341D01*
X91935Y41373D01*
X91939Y41421D01*
Y41457D01*
X91935Y41475D01*
Y41501D01*
X91932Y41530D01*
X91928Y41559D01*
X92201Y41599D01*
Y41592D01*
D02*
G37*
G36*
X91721Y40514D02*
X91761Y40507D01*
X91804Y40496D01*
X91852Y40478D01*
X91906Y40456D01*
X91957Y40427D01*
X91965Y40423D01*
X91979Y40409D01*
X92005Y40391D01*
X92034Y40361D01*
X92066Y40321D01*
X92103Y40278D01*
X92136Y40227D01*
X92168Y40165D01*
Y40161D01*
X92172Y40158D01*
X92179Y40136D01*
X92190Y40099D01*
X92205Y40052D01*
X92219Y39994D01*
X92230Y39928D01*
X92238Y39859D01*
X92241Y39779D01*
Y39746D01*
X92238Y39721D01*
Y39692D01*
X92234Y39655D01*
X92230Y39619D01*
X92223Y39579D01*
X92205Y39491D01*
X92179Y39400D01*
X92143Y39313D01*
X92121Y39273D01*
X92096Y39237D01*
X92092Y39233D01*
X92088Y39229D01*
X92066Y39208D01*
X92034Y39175D01*
X91983Y39138D01*
X91921Y39098D01*
X91848Y39058D01*
X91757Y39026D01*
X91655Y39000D01*
X91608Y39306D01*
X91611D01*
X91615D01*
X91637Y39313D01*
X91673Y39320D01*
X91713Y39335D01*
X91757Y39353D01*
X91804Y39375D01*
X91852Y39408D01*
X91892Y39448D01*
X91895Y39455D01*
X91906Y39470D01*
X91921Y39499D01*
X91939Y39535D01*
X91957Y39582D01*
X91972Y39637D01*
X91983Y39703D01*
X91986Y39779D01*
Y39815D01*
X91983Y39852D01*
X91975Y39899D01*
X91965Y39950D01*
X91950Y40005D01*
X91932Y40052D01*
X91903Y40096D01*
X91899Y40099D01*
X91888Y40114D01*
X91870Y40128D01*
X91844Y40150D01*
X91815Y40168D01*
X91779Y40187D01*
X91742Y40198D01*
X91699Y40201D01*
X91695D01*
X91681D01*
X91662Y40198D01*
X91637Y40190D01*
X91611Y40179D01*
X91586Y40161D01*
X91557Y40139D01*
X91535Y40107D01*
X91531Y40103D01*
X91528Y40092D01*
X91517Y40074D01*
X91506Y40045D01*
X91491Y40001D01*
X91480Y39976D01*
X91473Y39946D01*
X91462Y39914D01*
X91451Y39877D01*
X91440Y39837D01*
X91429Y39790D01*
Y39786D01*
X91426Y39775D01*
X91422Y39757D01*
X91415Y39735D01*
X91408Y39706D01*
X91397Y39673D01*
X91378Y39604D01*
X91353Y39524D01*
X91331Y39448D01*
X91306Y39375D01*
X91291Y39342D01*
X91280Y39317D01*
X91277Y39309D01*
X91269Y39295D01*
X91255Y39273D01*
X91237Y39244D01*
X91211Y39211D01*
X91182Y39178D01*
X91149Y39146D01*
X91109Y39116D01*
X91105Y39113D01*
X91091Y39106D01*
X91065Y39095D01*
X91036Y39084D01*
X91000Y39073D01*
X90956Y39062D01*
X90912Y39055D01*
X90862Y39051D01*
X90854D01*
X90840D01*
X90818Y39055D01*
X90785Y39058D01*
X90752Y39066D01*
X90712Y39073D01*
X90676Y39087D01*
X90636Y39106D01*
X90632Y39109D01*
X90618Y39116D01*
X90600Y39127D01*
X90574Y39146D01*
X90548Y39167D01*
X90516Y39193D01*
X90487Y39222D01*
X90461Y39259D01*
X90457Y39262D01*
X90454Y39273D01*
X90443Y39288D01*
X90432Y39309D01*
X90417Y39339D01*
X90403Y39371D01*
X90388Y39411D01*
X90374Y39455D01*
X90370Y39462D01*
X90367Y39477D01*
X90359Y39502D01*
X90352Y39535D01*
X90345Y39575D01*
X90341Y39619D01*
X90334Y39670D01*
Y39757D01*
X90337Y39797D01*
X90341Y39852D01*
X90348Y39910D01*
X90363Y39972D01*
X90377Y40037D01*
X90399Y40099D01*
Y40103D01*
X90403Y40107D01*
X90410Y40125D01*
X90425Y40154D01*
X90443Y40190D01*
X90468Y40230D01*
X90498Y40270D01*
X90530Y40307D01*
X90567Y40340D01*
X90570Y40343D01*
X90585Y40350D01*
X90610Y40365D01*
X90640Y40383D01*
X90683Y40401D01*
X90731Y40420D01*
X90785Y40434D01*
X90847Y40449D01*
X90887Y40147D01*
X90880D01*
X90865Y40143D01*
X90840Y40136D01*
X90807Y40125D01*
X90774Y40107D01*
X90738Y40085D01*
X90701Y40059D01*
X90669Y40023D01*
X90665Y40019D01*
X90658Y40005D01*
X90643Y39983D01*
X90629Y39950D01*
X90614Y39914D01*
X90600Y39866D01*
X90592Y39808D01*
X90589Y39746D01*
Y39710D01*
X90592Y39673D01*
X90596Y39626D01*
X90607Y39579D01*
X90618Y39528D01*
X90636Y39481D01*
X90661Y39441D01*
X90665Y39437D01*
X90672Y39426D01*
X90687Y39411D01*
X90709Y39397D01*
X90731Y39379D01*
X90760Y39364D01*
X90792Y39353D01*
X90825Y39349D01*
X90829D01*
X90836D01*
X90847Y39353D01*
X90862D01*
X90898Y39364D01*
X90934Y39386D01*
X90938Y39390D01*
X90942Y39393D01*
X90953Y39400D01*
X90964Y39415D01*
X90974Y39430D01*
X90989Y39451D01*
X91000Y39477D01*
X91014Y39506D01*
Y39510D01*
X91018Y39517D01*
X91022Y39531D01*
X91033Y39557D01*
X91044Y39593D01*
X91054Y39641D01*
X91065Y39670D01*
X91073Y39703D01*
X91084Y39739D01*
X91094Y39779D01*
Y39783D01*
X91098Y39794D01*
X91102Y39812D01*
X91109Y39834D01*
X91116Y39859D01*
X91124Y39892D01*
X91145Y39961D01*
X91167Y40037D01*
X91193Y40114D01*
X91218Y40183D01*
X91229Y40212D01*
X91240Y40238D01*
X91244Y40245D01*
X91251Y40260D01*
X91262Y40281D01*
X91280Y40314D01*
X91302Y40347D01*
X91331Y40380D01*
X91364Y40412D01*
X91400Y40442D01*
X91404Y40445D01*
X91418Y40452D01*
X91440Y40467D01*
X91473Y40481D01*
X91513Y40492D01*
X91557Y40507D01*
X91608Y40514D01*
X91666Y40518D01*
X91673D01*
X91691D01*
X91721Y40514D01*
D02*
G37*
G36*
X92201Y38341D02*
X90374D01*
Y38651D01*
X92201D01*
Y38341D01*
D02*
G37*
G36*
X90035D02*
X89682D01*
Y38651D01*
X90035D01*
Y38341D01*
D02*
G37*
G36*
X92201Y37504D02*
Y37187D01*
X91109Y36896D01*
X90796Y36823D01*
X92201Y36456D01*
Y36128D01*
X90374Y35575D01*
Y35899D01*
X91429Y36190D01*
X91822Y36292D01*
X91819D01*
X91812Y36296D01*
X91793Y36299D01*
X91782Y36303D01*
X91764Y36306D01*
X91742Y36310D01*
X91717Y36317D01*
X91688Y36325D01*
X91651Y36336D01*
X91611Y36347D01*
X91564Y36357D01*
X91509Y36372D01*
X91448Y36386D01*
X90374Y36678D01*
Y36994D01*
X91437Y37267D01*
X91786Y37358D01*
X91433Y37464D01*
X90374Y37777D01*
Y38079D01*
X92201Y37504D01*
D02*
G37*
G36*
X89981Y34665D02*
X92201D01*
Y34330D01*
X89981D01*
Y33500D01*
X89682D01*
Y35495D01*
X89981D01*
Y34665D01*
D02*
G37*
G36*
X200748Y204758D02*
X200781Y204754D01*
X200821Y204750D01*
X200861Y204747D01*
X200909Y204736D01*
X201007Y204714D01*
X201116Y204681D01*
X201171Y204660D01*
X201222Y204634D01*
X201273Y204601D01*
X201324Y204569D01*
X201327Y204565D01*
X201335Y204561D01*
X201349Y204550D01*
X201367Y204532D01*
X201385Y204514D01*
X201411Y204488D01*
X201436Y204459D01*
X201466Y204430D01*
X201495Y204394D01*
X201524Y204350D01*
X201556Y204306D01*
X201586Y204259D01*
X201611Y204205D01*
X201640Y204150D01*
X201662Y204092D01*
X201684Y204026D01*
X201356Y203950D01*
Y203953D01*
X201353Y203961D01*
X201345Y203975D01*
X201338Y203993D01*
X201331Y204015D01*
X201320Y204044D01*
X201291Y204102D01*
X201254Y204168D01*
X201211Y204234D01*
X201156Y204295D01*
X201098Y204350D01*
X201091Y204357D01*
X201069Y204372D01*
X201032Y204390D01*
X200985Y204416D01*
X200923Y204437D01*
X200854Y204459D01*
X200770Y204474D01*
X200679Y204478D01*
X200650D01*
X200632Y204474D01*
X200606D01*
X200577Y204470D01*
X200508Y204459D01*
X200432Y204445D01*
X200352Y204419D01*
X200268Y204383D01*
X200192Y204335D01*
X200188D01*
X200184Y204328D01*
X200159Y204310D01*
X200126Y204281D01*
X200086Y204237D01*
X200039Y204183D01*
X199995Y204121D01*
X199955Y204044D01*
X199919Y203961D01*
Y203957D01*
X199915Y203950D01*
X199911Y203939D01*
X199908Y203921D01*
X199900Y203899D01*
X199893Y203873D01*
X199882Y203811D01*
X199868Y203739D01*
X199853Y203659D01*
X199846Y203571D01*
X199842Y203477D01*
Y203473D01*
Y203462D01*
Y203444D01*
Y203422D01*
X199846Y203396D01*
Y203364D01*
X199849Y203327D01*
X199853Y203287D01*
X199864Y203200D01*
X199882Y203105D01*
X199904Y203011D01*
X199933Y202916D01*
Y202912D01*
X199937Y202905D01*
X199944Y202894D01*
X199951Y202876D01*
X199973Y202832D01*
X200006Y202781D01*
X200046Y202723D01*
X200097Y202661D01*
X200155Y202607D01*
X200224Y202555D01*
X200228D01*
X200235Y202552D01*
X200246Y202545D01*
X200261Y202537D01*
X200279Y202530D01*
X200301Y202519D01*
X200352Y202497D01*
X200417Y202476D01*
X200490Y202457D01*
X200570Y202443D01*
X200654Y202439D01*
X200679D01*
X200701Y202443D01*
X200727D01*
X200752Y202446D01*
X200818Y202461D01*
X200894Y202479D01*
X200971Y202508D01*
X201051Y202548D01*
X201091Y202570D01*
X201127Y202599D01*
X201131Y202603D01*
X201134Y202607D01*
X201145Y202617D01*
X201160Y202628D01*
X201174Y202647D01*
X201193Y202668D01*
X201214Y202690D01*
X201233Y202719D01*
X201254Y202752D01*
X201280Y202788D01*
X201302Y202825D01*
X201324Y202869D01*
X201342Y202916D01*
X201360Y202967D01*
X201378Y203022D01*
X201393Y203080D01*
X201728Y202996D01*
Y202992D01*
X201724Y202978D01*
X201717Y202956D01*
X201706Y202927D01*
X201695Y202894D01*
X201680Y202854D01*
X201662Y202810D01*
X201640Y202763D01*
X201589Y202661D01*
X201524Y202559D01*
X201484Y202508D01*
X201444Y202457D01*
X201400Y202414D01*
X201349Y202370D01*
X201345Y202366D01*
X201338Y202359D01*
X201320Y202352D01*
X201302Y202337D01*
X201273Y202319D01*
X201243Y202301D01*
X201203Y202283D01*
X201163Y202264D01*
X201116Y202242D01*
X201065Y202224D01*
X201010Y202206D01*
X200952Y202188D01*
X200890Y202173D01*
X200825Y202166D01*
X200756Y202159D01*
X200683Y202155D01*
X200643D01*
X200614Y202159D01*
X200581D01*
X200541Y202162D01*
X200497Y202170D01*
X200446Y202177D01*
X200341Y202195D01*
X200232Y202224D01*
X200122Y202264D01*
X200071Y202290D01*
X200021Y202319D01*
X200017Y202323D01*
X200009Y202326D01*
X199995Y202337D01*
X199980Y202352D01*
X199959Y202366D01*
X199933Y202388D01*
X199904Y202414D01*
X199875Y202443D01*
X199846Y202476D01*
X199813Y202508D01*
X199748Y202592D01*
X199686Y202690D01*
X199631Y202799D01*
Y202803D01*
X199624Y202814D01*
X199620Y202832D01*
X199609Y202854D01*
X199602Y202883D01*
X199591Y202920D01*
X199576Y202960D01*
X199565Y203003D01*
X199555Y203051D01*
X199540Y203105D01*
X199522Y203218D01*
X199507Y203345D01*
X199500Y203477D01*
Y203480D01*
Y203495D01*
Y203517D01*
X199504Y203542D01*
Y203578D01*
X199507Y203615D01*
X199511Y203662D01*
X199518Y203709D01*
X199536Y203815D01*
X199562Y203931D01*
X199598Y204048D01*
X199649Y204161D01*
X199653Y204164D01*
X199656Y204175D01*
X199664Y204190D01*
X199678Y204208D01*
X199693Y204234D01*
X199711Y204263D01*
X199758Y204328D01*
X199820Y204401D01*
X199893Y204474D01*
X199977Y204547D01*
X200075Y204608D01*
X200079Y204612D01*
X200090Y204616D01*
X200104Y204623D01*
X200122Y204634D01*
X200151Y204645D01*
X200181Y204656D01*
X200217Y204670D01*
X200257Y204685D01*
X200301Y204699D01*
X200348Y204714D01*
X200450Y204736D01*
X200567Y204754D01*
X200687Y204761D01*
X200723D01*
X200748Y204758D01*
D02*
G37*
G36*
X207861Y204063D02*
X207887Y204059D01*
X207941Y204052D01*
X208007Y204037D01*
X208076Y204015D01*
X208145Y203982D01*
X208214Y203942D01*
X208218D01*
X208221Y203935D01*
X208243Y203921D01*
X208276Y203891D01*
X208316Y203855D01*
X208360Y203808D01*
X208403Y203749D01*
X208447Y203680D01*
X208484Y203604D01*
Y203600D01*
X208487Y203593D01*
X208491Y203582D01*
X208498Y203568D01*
X208505Y203546D01*
X208513Y203520D01*
X208531Y203462D01*
X208549Y203389D01*
X208563Y203309D01*
X208575Y203218D01*
X208578Y203123D01*
Y203120D01*
Y203113D01*
Y203098D01*
Y203076D01*
X208575Y203051D01*
Y203022D01*
X208567Y202956D01*
X208553Y202876D01*
X208534Y202792D01*
X208509Y202705D01*
X208476Y202617D01*
Y202614D01*
X208473Y202607D01*
X208465Y202596D01*
X208458Y202581D01*
X208433Y202541D01*
X208400Y202490D01*
X208360Y202435D01*
X208309Y202381D01*
X208250Y202326D01*
X208181Y202275D01*
X208178D01*
X208174Y202272D01*
X208163Y202264D01*
X208149Y202257D01*
X208112Y202239D01*
X208061Y202217D01*
X207999Y202195D01*
X207934Y202177D01*
X207857Y202162D01*
X207781Y202159D01*
X207755D01*
X207726Y202162D01*
X207690Y202166D01*
X207646Y202173D01*
X207599Y202184D01*
X207552Y202199D01*
X207504Y202221D01*
X207501Y202224D01*
X207483Y202232D01*
X207461Y202246D01*
X207432Y202268D01*
X207402Y202290D01*
X207366Y202319D01*
X207333Y202352D01*
X207304Y202388D01*
Y201500D01*
X206995D01*
Y204026D01*
X207275D01*
Y203786D01*
X207279Y203793D01*
X207293Y203808D01*
X207311Y203833D01*
X207341Y203862D01*
X207373Y203899D01*
X207410Y203931D01*
X207453Y203964D01*
X207497Y203993D01*
X207504Y203997D01*
X207519Y204004D01*
X207548Y204015D01*
X207584Y204030D01*
X207628Y204044D01*
X207679Y204055D01*
X207737Y204063D01*
X207803Y204066D01*
X207843D01*
X207861Y204063D01*
D02*
G37*
G36*
X205950D02*
X205990Y204059D01*
X206037Y204052D01*
X206088Y204041D01*
X206143Y204026D01*
X206194Y204004D01*
X206201Y204001D01*
X206216Y203993D01*
X206241Y203982D01*
X206270Y203964D01*
X206307Y203942D01*
X206340Y203913D01*
X206372Y203884D01*
X206401Y203848D01*
X206405Y203844D01*
X206412Y203830D01*
X206423Y203811D01*
X206441Y203786D01*
X206456Y203749D01*
X206471Y203713D01*
X206489Y203669D01*
X206500Y203622D01*
Y203618D01*
X206503Y203604D01*
X206507Y203582D01*
X206511Y203553D01*
Y203509D01*
X206514Y203458D01*
X206518Y203396D01*
Y203320D01*
Y202199D01*
X206208D01*
Y203305D01*
Y203309D01*
Y203313D01*
Y203338D01*
Y203371D01*
X206205Y203411D01*
X206201Y203458D01*
X206194Y203506D01*
X206183Y203549D01*
X206172Y203589D01*
Y203593D01*
X206165Y203604D01*
X206154Y203622D01*
X206143Y203644D01*
X206125Y203666D01*
X206103Y203691D01*
X206074Y203717D01*
X206041Y203739D01*
X206037Y203742D01*
X206027Y203749D01*
X206005Y203757D01*
X205979Y203768D01*
X205950Y203779D01*
X205914Y203789D01*
X205870Y203793D01*
X205826Y203797D01*
X205808D01*
X205793Y203793D01*
X205757Y203789D01*
X205710Y203782D01*
X205659Y203764D01*
X205601Y203742D01*
X205542Y203713D01*
X205488Y203669D01*
X205481Y203662D01*
X205466Y203644D01*
X205455Y203629D01*
X205444Y203611D01*
X205430Y203589D01*
X205419Y203564D01*
X205404Y203535D01*
X205389Y203498D01*
X205379Y203458D01*
X205368Y203415D01*
X205360Y203367D01*
X205353Y203316D01*
X205346Y203254D01*
Y203193D01*
Y202199D01*
X205036D01*
Y204026D01*
X205313D01*
Y203764D01*
X205317Y203768D01*
X205324Y203779D01*
X205335Y203793D01*
X205349Y203811D01*
X205371Y203833D01*
X205397Y203859D01*
X205426Y203888D01*
X205462Y203917D01*
X205499Y203942D01*
X205542Y203972D01*
X205590Y203997D01*
X205641Y204019D01*
X205699Y204037D01*
X205757Y204052D01*
X205823Y204063D01*
X205892Y204066D01*
X205921D01*
X205950Y204063D01*
D02*
G37*
G36*
X210427Y202199D02*
X210151D01*
Y202465D01*
X210147Y202461D01*
X210140Y202450D01*
X210129Y202435D01*
X210111Y202417D01*
X210089Y202395D01*
X210063Y202366D01*
X210034Y202341D01*
X209998Y202312D01*
X209958Y202283D01*
X209914Y202257D01*
X209867Y202232D01*
X209816Y202206D01*
X209757Y202188D01*
X209699Y202173D01*
X209634Y202162D01*
X209568Y202159D01*
X209543D01*
X209510Y202162D01*
X209470Y202166D01*
X209423Y202173D01*
X209372Y202184D01*
X209321Y202199D01*
X209266Y202221D01*
X209259Y202224D01*
X209244Y202232D01*
X209219Y202246D01*
X209190Y202264D01*
X209153Y202286D01*
X209120Y202312D01*
X209088Y202341D01*
X209059Y202374D01*
X209055Y202377D01*
X209048Y202392D01*
X209037Y202410D01*
X209022Y202439D01*
X209004Y202472D01*
X208989Y202512D01*
X208975Y202555D01*
X208964Y202603D01*
Y202607D01*
X208960Y202621D01*
X208957Y202643D01*
Y202672D01*
X208953Y202716D01*
X208949Y202763D01*
X208946Y202825D01*
Y202894D01*
Y204026D01*
X209255D01*
Y203011D01*
Y203007D01*
Y203000D01*
Y202989D01*
Y202971D01*
Y202930D01*
X209259Y202880D01*
Y202825D01*
X209262Y202770D01*
X209266Y202723D01*
X209273Y202683D01*
Y202679D01*
X209281Y202665D01*
X209288Y202643D01*
X209299Y202614D01*
X209317Y202585D01*
X209339Y202552D01*
X209364Y202523D01*
X209397Y202494D01*
X209401Y202490D01*
X209415Y202483D01*
X209434Y202472D01*
X209463Y202461D01*
X209495Y202446D01*
X209535Y202435D01*
X209579Y202428D01*
X209630Y202425D01*
X209655D01*
X209681Y202428D01*
X209714Y202432D01*
X209754Y202443D01*
X209798Y202454D01*
X209845Y202472D01*
X209892Y202494D01*
X209899Y202497D01*
X209914Y202508D01*
X209936Y202523D01*
X209961Y202545D01*
X209990Y202574D01*
X210019Y202607D01*
X210045Y202643D01*
X210067Y202687D01*
X210070Y202694D01*
X210074Y202708D01*
X210081Y202738D01*
X210092Y202778D01*
X210103Y202829D01*
X210111Y202890D01*
X210114Y202963D01*
X210118Y203047D01*
Y204026D01*
X210427D01*
Y202199D01*
D02*
G37*
G36*
X204487D02*
X204152D01*
Y204718D01*
X204487D01*
Y202199D01*
D02*
G37*
G36*
X211272Y204026D02*
X211585D01*
Y203786D01*
X211272D01*
Y202712D01*
Y202705D01*
Y202690D01*
Y202668D01*
X211275Y202643D01*
X211279Y202585D01*
X211283Y202559D01*
X211286Y202541D01*
X211290Y202534D01*
X211301Y202519D01*
X211315Y202501D01*
X211341Y202483D01*
X211348Y202479D01*
X211366Y202472D01*
X211399Y202465D01*
X211446Y202461D01*
X211483D01*
X211501Y202465D01*
X211526D01*
X211556Y202468D01*
X211585Y202472D01*
X211625Y202199D01*
X211617D01*
X211603Y202195D01*
X211578Y202192D01*
X211545Y202188D01*
X211508Y202181D01*
X211468Y202177D01*
X211388Y202173D01*
X211359D01*
X211330Y202177D01*
X211294Y202181D01*
X211250Y202184D01*
X211206Y202195D01*
X211166Y202206D01*
X211126Y202224D01*
X211122Y202228D01*
X211111Y202235D01*
X211097Y202246D01*
X211075Y202264D01*
X211057Y202283D01*
X211035Y202308D01*
X211013Y202333D01*
X210999Y202366D01*
Y202370D01*
X210991Y202384D01*
X210988Y202410D01*
X210981Y202446D01*
X210973Y202494D01*
X210970Y202523D01*
Y202555D01*
X210966Y202596D01*
X210962Y202636D01*
Y202679D01*
Y202730D01*
Y203786D01*
X210733D01*
Y204026D01*
X210962D01*
Y204478D01*
X211272Y204663D01*
Y204026D01*
D02*
G37*
G36*
X203861Y201500D02*
X201811D01*
Y201722D01*
X203861D01*
Y201500D01*
D02*
G37*
G36*
X196158Y24516D02*
X195200D01*
Y24825D01*
X196158D01*
Y24516D01*
D02*
G37*
G36*
X199321Y25979D02*
X198491D01*
Y23759D01*
X198156D01*
Y25979D01*
X197326D01*
Y26278D01*
X199321D01*
Y25979D01*
D02*
G37*
G36*
X196926Y23759D02*
X196591D01*
Y26278D01*
X196926D01*
Y23759D01*
D02*
G37*
G36*
X194105Y26274D02*
X194167Y26270D01*
X194232Y26267D01*
X194294Y26260D01*
X194349Y26252D01*
X194356D01*
X194381Y26245D01*
X194414Y26238D01*
X194458Y26227D01*
X194505Y26209D01*
X194556Y26187D01*
X194611Y26161D01*
X194658Y26132D01*
X194665Y26129D01*
X194680Y26118D01*
X194702Y26096D01*
X194731Y26070D01*
X194763Y26037D01*
X194796Y25994D01*
X194833Y25947D01*
X194862Y25892D01*
X194865Y25885D01*
X194873Y25866D01*
X194887Y25834D01*
X194902Y25790D01*
X194913Y25739D01*
X194927Y25681D01*
X194934Y25615D01*
X194938Y25546D01*
Y25543D01*
Y25532D01*
Y25517D01*
X194934Y25491D01*
X194931Y25466D01*
X194927Y25433D01*
X194920Y25397D01*
X194913Y25357D01*
X194887Y25273D01*
X194873Y25229D01*
X194851Y25182D01*
X194825Y25135D01*
X194800Y25091D01*
X194767Y25047D01*
X194731Y25004D01*
X194727Y25000D01*
X194720Y24993D01*
X194709Y24982D01*
X194691Y24971D01*
X194669Y24953D01*
X194640Y24935D01*
X194603Y24913D01*
X194563Y24895D01*
X194516Y24873D01*
X194461Y24851D01*
X194403Y24833D01*
X194334Y24818D01*
X194261Y24804D01*
X194181Y24793D01*
X194090Y24785D01*
X193995Y24782D01*
X193351D01*
Y23759D01*
X193016D01*
Y26278D01*
X194050D01*
X194105Y26274D01*
D02*
G37*
G36*
X192427Y23759D02*
X192092D01*
Y26278D01*
X192427D01*
Y23759D01*
D02*
G37*
G36*
X190698Y26274D02*
X190730D01*
X190807Y26270D01*
X190887Y26260D01*
X190974Y26249D01*
X191054Y26230D01*
X191094Y26219D01*
X191127Y26209D01*
X191131D01*
X191134Y26205D01*
X191156Y26194D01*
X191189Y26180D01*
X191229Y26154D01*
X191273Y26121D01*
X191320Y26078D01*
X191364Y26027D01*
X191407Y25968D01*
Y25965D01*
X191411Y25961D01*
X191426Y25939D01*
X191440Y25903D01*
X191462Y25855D01*
X191480Y25801D01*
X191498Y25735D01*
X191509Y25666D01*
X191513Y25590D01*
Y25586D01*
Y25579D01*
Y25564D01*
X191509Y25546D01*
Y25521D01*
X191506Y25495D01*
X191491Y25433D01*
X191469Y25361D01*
X191440Y25284D01*
X191396Y25208D01*
X191367Y25171D01*
X191338Y25135D01*
X191335Y25131D01*
X191331Y25128D01*
X191320Y25117D01*
X191305Y25106D01*
X191287Y25091D01*
X191265Y25077D01*
X191236Y25058D01*
X191207Y25036D01*
X191171Y25018D01*
X191131Y25000D01*
X191087Y24978D01*
X191040Y24960D01*
X190985Y24946D01*
X190930Y24927D01*
X190869Y24916D01*
X190803Y24905D01*
X190810Y24902D01*
X190825Y24895D01*
X190847Y24880D01*
X190876Y24865D01*
X190941Y24825D01*
X190974Y24800D01*
X191003Y24778D01*
X191011Y24771D01*
X191029Y24753D01*
X191058Y24724D01*
X191094Y24687D01*
X191134Y24636D01*
X191182Y24581D01*
X191229Y24516D01*
X191280Y24443D01*
X191713Y23759D01*
X191298D01*
X190967Y24283D01*
Y24287D01*
X190960Y24294D01*
X190952Y24305D01*
X190941Y24319D01*
X190916Y24360D01*
X190883Y24410D01*
X190843Y24465D01*
X190803Y24523D01*
X190763Y24578D01*
X190727Y24629D01*
X190723Y24633D01*
X190712Y24647D01*
X190694Y24669D01*
X190668Y24694D01*
X190614Y24749D01*
X190585Y24774D01*
X190556Y24796D01*
X190552Y24800D01*
X190545Y24804D01*
X190530Y24811D01*
X190508Y24822D01*
X190486Y24833D01*
X190461Y24844D01*
X190403Y24862D01*
X190399D01*
X190392Y24865D01*
X190377D01*
X190359Y24869D01*
X190334Y24873D01*
X190304D01*
X190264Y24876D01*
X189835D01*
Y23759D01*
X189500D01*
Y26278D01*
X190668D01*
X190698Y26274D01*
D02*
G37*
%LPC*%
G36*
X257273Y102760D02*
X256676D01*
Y102003D01*
X257294D01*
X257342Y102007D01*
X257393Y102011D01*
X257444Y102014D01*
X257495Y102022D01*
X257535Y102029D01*
X257542Y102032D01*
X257557Y102036D01*
X257578Y102047D01*
X257608Y102061D01*
X257637Y102076D01*
X257669Y102098D01*
X257702Y102127D01*
X257728Y102156D01*
X257731Y102160D01*
X257738Y102171D01*
X257749Y102193D01*
X257760Y102218D01*
X257771Y102247D01*
X257782Y102284D01*
X257789Y102327D01*
X257793Y102374D01*
Y102382D01*
Y102396D01*
X257789Y102418D01*
X257786Y102447D01*
X257779Y102484D01*
X257768Y102520D01*
X257753Y102557D01*
X257731Y102593D01*
X257728Y102597D01*
X257720Y102608D01*
X257706Y102626D01*
X257688Y102644D01*
X257662Y102666D01*
X257633Y102688D01*
X257596Y102709D01*
X257557Y102724D01*
X257553D01*
X257535Y102731D01*
X257509Y102735D01*
X257469Y102742D01*
X257415Y102750D01*
X257353Y102753D01*
X257273Y102760D01*
D02*
G37*
G36*
X257338Y101705D02*
X256676D01*
Y100838D01*
X257393D01*
X257469Y100842D01*
X257502Y100846D01*
X257531Y100849D01*
X257535D01*
X257549Y100853D01*
X257571Y100857D01*
X257596Y100864D01*
X257658Y100886D01*
X257720Y100915D01*
X257724Y100919D01*
X257735Y100926D01*
X257749Y100937D01*
X257768Y100951D01*
X257786Y100973D01*
X257811Y100995D01*
X257829Y101024D01*
X257851Y101057D01*
X257855Y101060D01*
X257859Y101071D01*
X257866Y101093D01*
X257877Y101119D01*
X257888Y101148D01*
X257895Y101184D01*
X257899Y101228D01*
X257902Y101272D01*
Y101279D01*
Y101294D01*
X257899Y101323D01*
X257891Y101355D01*
X257884Y101392D01*
X257870Y101432D01*
X257851Y101472D01*
X257826Y101512D01*
X257822Y101515D01*
X257811Y101530D01*
X257797Y101548D01*
X257775Y101570D01*
X257746Y101596D01*
X257709Y101621D01*
X257669Y101643D01*
X257622Y101661D01*
X257615Y101665D01*
X257600Y101668D01*
X257567Y101676D01*
X257527Y101683D01*
X257476Y101690D01*
X257415Y101698D01*
X257338Y101705D01*
D02*
G37*
G36*
X248406Y102760D02*
X247685D01*
Y101861D01*
X248362D01*
X248387Y101865D01*
X248413D01*
X248442Y101869D01*
X248511Y101876D01*
X248588Y101890D01*
X248664Y101912D01*
X248733Y101941D01*
X248766Y101960D01*
X248791Y101981D01*
X248799Y101989D01*
X248813Y102003D01*
X248835Y102032D01*
X248861Y102069D01*
X248886Y102116D01*
X248908Y102174D01*
X248922Y102240D01*
X248930Y102316D01*
Y102320D01*
Y102324D01*
Y102342D01*
X248926Y102374D01*
X248919Y102411D01*
X248911Y102451D01*
X248897Y102498D01*
X248875Y102542D01*
X248850Y102586D01*
X248846Y102589D01*
X248835Y102604D01*
X248817Y102622D01*
X248795Y102648D01*
X248762Y102673D01*
X248726Y102695D01*
X248686Y102717D01*
X248639Y102735D01*
X248635D01*
X248620Y102739D01*
X248599Y102742D01*
X248569Y102750D01*
X248526Y102753D01*
X248471Y102757D01*
X248406Y102760D01*
D02*
G37*
G36*
X263319Y102153D02*
X263297D01*
X263279Y102149D01*
X263239Y102145D01*
X263184Y102131D01*
X263122Y102109D01*
X263057Y102080D01*
X262995Y102036D01*
X262962Y102007D01*
X262933Y101978D01*
Y101974D01*
X262926Y101971D01*
X262918Y101960D01*
X262907Y101945D01*
X262896Y101927D01*
X262885Y101905D01*
X262871Y101876D01*
X262856Y101847D01*
X262842Y101810D01*
X262827Y101774D01*
X262816Y101730D01*
X262805Y101683D01*
X262794Y101632D01*
X262787Y101577D01*
X262784Y101515D01*
X262780Y101454D01*
Y101450D01*
Y101439D01*
Y101421D01*
X262784Y101395D01*
Y101366D01*
X262787Y101333D01*
X262798Y101257D01*
X262816Y101170D01*
X262845Y101082D01*
X262882Y100999D01*
X262907Y100962D01*
X262933Y100926D01*
X262936D01*
X262940Y100919D01*
X262962Y100900D01*
X262995Y100871D01*
X263038Y100842D01*
X263093Y100809D01*
X263158Y100780D01*
X263235Y100762D01*
X263275Y100758D01*
X263319Y100755D01*
X263340D01*
X263359Y100758D01*
X263399Y100766D01*
X263453Y100777D01*
X263511Y100798D01*
X263577Y100828D01*
X263639Y100871D01*
X263672Y100900D01*
X263701Y100929D01*
X263704Y100933D01*
X263708Y100937D01*
X263715Y100948D01*
X263726Y100962D01*
X263737Y100980D01*
X263752Y101002D01*
X263766Y101031D01*
X263781Y101060D01*
X263795Y101097D01*
X263806Y101137D01*
X263821Y101181D01*
X263832Y101228D01*
X263843Y101283D01*
X263850Y101337D01*
X263857Y101399D01*
Y101464D01*
Y101468D01*
Y101479D01*
Y101497D01*
X263854Y101519D01*
Y101548D01*
X263850Y101581D01*
X263839Y101657D01*
X263821Y101737D01*
X263792Y101825D01*
X263752Y101905D01*
X263730Y101945D01*
X263701Y101978D01*
Y101981D01*
X263694Y101985D01*
X263672Y102007D01*
X263639Y102032D01*
X263595Y102065D01*
X263541Y102098D01*
X263475Y102127D01*
X263402Y102145D01*
X263362Y102149D01*
X263319Y102153D01*
D02*
G37*
G36*
X114628Y264580D02*
X113835D01*
Y263746D01*
X114585D01*
X114628Y263750D01*
X114679Y263753D01*
X114738Y263757D01*
X114796Y263764D01*
X114854Y263775D01*
X114905Y263790D01*
X114912Y263793D01*
X114927Y263801D01*
X114949Y263812D01*
X114978Y263826D01*
X115010Y263848D01*
X115043Y263874D01*
X115076Y263906D01*
X115102Y263943D01*
X115105Y263946D01*
X115112Y263961D01*
X115123Y263983D01*
X115138Y264012D01*
X115149Y264045D01*
X115160Y264081D01*
X115167Y264125D01*
X115171Y264168D01*
Y264172D01*
Y264176D01*
X115167Y264197D01*
X115163Y264230D01*
X115156Y264274D01*
X115138Y264318D01*
X115116Y264369D01*
X115083Y264416D01*
X115040Y264463D01*
X115032Y264467D01*
X115014Y264481D01*
X114985Y264500D01*
X114938Y264522D01*
X114883Y264543D01*
X114810Y264562D01*
X114727Y264576D01*
X114628Y264580D01*
D02*
G37*
G36*
X263397Y160165D02*
X262564D01*
Y159415D01*
X262567Y159372D01*
X262571Y159321D01*
X262575Y159262D01*
X262582Y159204D01*
X262593Y159146D01*
X262608Y159095D01*
X262611Y159088D01*
X262618Y159073D01*
X262629Y159051D01*
X262644Y159022D01*
X262666Y158989D01*
X262691Y158957D01*
X262724Y158924D01*
X262760Y158898D01*
X262764Y158895D01*
X262779Y158888D01*
X262800Y158877D01*
X262830Y158862D01*
X262862Y158851D01*
X262899Y158840D01*
X262942Y158833D01*
X262986Y158829D01*
X262990D01*
X262993D01*
X263015Y158833D01*
X263048Y158837D01*
X263092Y158844D01*
X263135Y158862D01*
X263186Y158884D01*
X263234Y158917D01*
X263281Y158960D01*
X263284Y158968D01*
X263299Y158986D01*
X263317Y159015D01*
X263339Y159062D01*
X263361Y159117D01*
X263379Y159190D01*
X263394Y159273D01*
X263397Y159372D01*
Y160165D01*
D02*
G37*
G36*
X262127Y153806D02*
X262062D01*
X262058D01*
X262047D01*
X262029D01*
X262003Y153802D01*
X261974D01*
X261941Y153799D01*
X261865Y153788D01*
X261778Y153770D01*
X261694Y153748D01*
X261610Y153711D01*
X261574Y153690D01*
X261541Y153664D01*
X261534Y153657D01*
X261515Y153639D01*
X261486Y153610D01*
X261457Y153569D01*
X261428Y153518D01*
X261399Y153460D01*
X261381Y153395D01*
X261377Y153358D01*
X261373Y153322D01*
Y153300D01*
X261377Y153286D01*
X261385Y153249D01*
X261395Y153198D01*
X261417Y153144D01*
X261446Y153085D01*
X261490Y153027D01*
X261515Y152998D01*
X261545Y152969D01*
X261548D01*
X261552Y152962D01*
X261563Y152954D01*
X261577Y152947D01*
X261596Y152933D01*
X261621Y152922D01*
X261647Y152907D01*
X261679Y152892D01*
X261712Y152882D01*
X261756Y152867D01*
X261799Y152852D01*
X261847Y152841D01*
X261901Y152834D01*
X261960Y152827D01*
X262021Y152820D01*
X262087D01*
X262091D01*
X262102D01*
X262120D01*
X262145Y152823D01*
X262174D01*
X262207Y152827D01*
X262284Y152838D01*
X262367Y152856D01*
X262451Y152882D01*
X262535Y152918D01*
X262575Y152940D01*
X262608Y152965D01*
X262611D01*
X262615Y152972D01*
X262637Y152991D01*
X262662Y153020D01*
X262695Y153060D01*
X262728Y153111D01*
X262757Y153169D01*
X262775Y153235D01*
X262779Y153271D01*
X262782Y153307D01*
Y153326D01*
X262779Y153340D01*
X262771Y153376D01*
X262760Y153424D01*
X262738Y153479D01*
X262706Y153537D01*
X262684Y153569D01*
X262659Y153599D01*
X262629Y153628D01*
X262597Y153657D01*
X262593D01*
X262589Y153664D01*
X262578Y153671D01*
X262564Y153679D01*
X262542Y153690D01*
X262520Y153704D01*
X262491Y153719D01*
X262462Y153730D01*
X262425Y153744D01*
X262386Y153759D01*
X262342Y153770D01*
X262295Y153784D01*
X262240Y153791D01*
X262185Y153799D01*
X262127Y153806D01*
D02*
G37*
G36*
X223412Y153171D02*
X223408D01*
X223404D01*
X223382Y153167D01*
X223350Y153163D01*
X223306Y153156D01*
X223262Y153138D01*
X223212Y153116D01*
X223164Y153083D01*
X223117Y153040D01*
X223113Y153032D01*
X223099Y153014D01*
X223080Y152985D01*
X223059Y152938D01*
X223037Y152883D01*
X223019Y152810D01*
X223004Y152727D01*
X223000Y152628D01*
Y151835D01*
X223834D01*
Y152585D01*
X223830Y152628D01*
X223827Y152679D01*
X223823Y152738D01*
X223816Y152796D01*
X223805Y152854D01*
X223790Y152905D01*
X223787Y152912D01*
X223779Y152927D01*
X223768Y152949D01*
X223754Y152978D01*
X223732Y153010D01*
X223707Y153043D01*
X223674Y153076D01*
X223637Y153102D01*
X223634Y153105D01*
X223619Y153112D01*
X223597Y153123D01*
X223568Y153138D01*
X223535Y153149D01*
X223499Y153160D01*
X223455Y153167D01*
X223412Y153171D01*
D02*
G37*
G36*
X245165Y23834D02*
X244415D01*
X244372Y23830D01*
X244321Y23827D01*
X244262Y23823D01*
X244204Y23816D01*
X244146Y23805D01*
X244095Y23790D01*
X244088Y23787D01*
X244073Y23779D01*
X244051Y23768D01*
X244022Y23754D01*
X243989Y23732D01*
X243957Y23707D01*
X243924Y23674D01*
X243898Y23637D01*
X243895Y23634D01*
X243887Y23619D01*
X243877Y23597D01*
X243862Y23568D01*
X243851Y23535D01*
X243840Y23499D01*
X243833Y23455D01*
X243829Y23412D01*
Y23408D01*
Y23404D01*
X243833Y23383D01*
X243836Y23350D01*
X243844Y23306D01*
X243862Y23262D01*
X243884Y23212D01*
X243917Y23164D01*
X243960Y23117D01*
X243968Y23113D01*
X243986Y23099D01*
X244015Y23080D01*
X244062Y23059D01*
X244117Y23037D01*
X244190Y23019D01*
X244273Y23004D01*
X244372Y23000D01*
X245165D01*
Y23834D01*
D02*
G37*
G36*
X56743Y264360D02*
X56146D01*
X56120Y264357D01*
X56066Y264353D01*
X56004Y264350D01*
X55938Y264342D01*
X55873Y264331D01*
X55818Y264317D01*
X55811Y264313D01*
X55793Y264309D01*
X55767Y264299D01*
X55735Y264284D01*
X55698Y264262D01*
X55662Y264240D01*
X55625Y264215D01*
X55589Y264186D01*
X55585Y264178D01*
X55571Y264164D01*
X55549Y264138D01*
X55523Y264102D01*
X55494Y264055D01*
X55462Y264000D01*
X55432Y263938D01*
X55407Y263869D01*
Y263865D01*
X55403Y263858D01*
X55400Y263847D01*
X55396Y263833D01*
X55392Y263814D01*
X55385Y263789D01*
X55378Y263763D01*
X55371Y263734D01*
X55360Y263662D01*
X55349Y263578D01*
X55341Y263483D01*
X55338Y263381D01*
Y263378D01*
Y263363D01*
Y263345D01*
X55341Y263316D01*
Y263283D01*
X55345Y263246D01*
X55349Y263203D01*
X55352Y263159D01*
X55371Y263061D01*
X55392Y262959D01*
X55425Y262864D01*
X55447Y262817D01*
X55469Y262777D01*
Y262773D01*
X55476Y262766D01*
X55483Y262755D01*
X55491Y262741D01*
X55520Y262704D01*
X55556Y262661D01*
X55603Y262613D01*
X55658Y262566D01*
X55720Y262526D01*
X55786Y262493D01*
X55793Y262489D01*
X55811Y262486D01*
X55844Y262475D01*
X55891Y262464D01*
X55949Y262457D01*
X56022Y262446D01*
X56066Y262442D01*
X56113D01*
X56160Y262439D01*
X56743D01*
Y264360D01*
D02*
G37*
G36*
X258563Y229304D02*
X258560D01*
X258545D01*
X258527D01*
X258498Y229300D01*
X258465D01*
X258429Y229296D01*
X258385Y229293D01*
X258342Y229289D01*
X258243Y229271D01*
X258141Y229249D01*
X258047Y229217D01*
X257999Y229195D01*
X257959Y229173D01*
X257956D01*
X257948Y229166D01*
X257938Y229158D01*
X257923Y229151D01*
X257887Y229122D01*
X257843Y229085D01*
X257796Y229038D01*
X257748Y228983D01*
X257708Y228922D01*
X257675Y228856D01*
X257672Y228849D01*
X257668Y228831D01*
X257657Y228798D01*
X257646Y228751D01*
X257639Y228692D01*
X257628Y228620D01*
X257624Y228576D01*
Y228528D01*
X257621Y228481D01*
Y227899D01*
X259543D01*
Y228496D01*
X259539Y228521D01*
X259535Y228576D01*
X259532Y228638D01*
X259524Y228703D01*
X259514Y228769D01*
X259499Y228823D01*
X259495Y228831D01*
X259492Y228849D01*
X259481Y228874D01*
X259466Y228907D01*
X259444Y228943D01*
X259423Y228980D01*
X259397Y229016D01*
X259368Y229053D01*
X259361Y229056D01*
X259346Y229071D01*
X259321Y229093D01*
X259284Y229118D01*
X259237Y229147D01*
X259182Y229180D01*
X259120Y229209D01*
X259051Y229235D01*
X259048D01*
X259040Y229238D01*
X259030Y229242D01*
X259015Y229246D01*
X258997Y229249D01*
X258971Y229257D01*
X258946Y229264D01*
X258917Y229271D01*
X258844Y229282D01*
X258760Y229293D01*
X258665Y229300D01*
X258563Y229304D01*
D02*
G37*
G36*
X258979Y218609D02*
X258913D01*
X258909D01*
X258898D01*
X258880D01*
X258855Y218606D01*
X258826D01*
X258793Y218602D01*
X258716Y218591D01*
X258633Y218573D01*
X258549Y218548D01*
X258465Y218511D01*
X258425Y218489D01*
X258393Y218464D01*
X258389D01*
X258385Y218457D01*
X258363Y218438D01*
X258338Y218409D01*
X258305Y218369D01*
X258272Y218318D01*
X258243Y218260D01*
X258225Y218195D01*
X258221Y218158D01*
X258218Y218122D01*
Y218104D01*
X258221Y218089D01*
X258229Y218053D01*
X258240Y218005D01*
X258261Y217951D01*
X258294Y217892D01*
X258316Y217860D01*
X258342Y217830D01*
X258371Y217801D01*
X258403Y217772D01*
X258407D01*
X258411Y217765D01*
X258422Y217758D01*
X258436Y217751D01*
X258458Y217740D01*
X258480Y217725D01*
X258509Y217710D01*
X258538Y217700D01*
X258575Y217685D01*
X258614Y217670D01*
X258658Y217659D01*
X258705Y217645D01*
X258760Y217638D01*
X258815Y217630D01*
X258873Y217623D01*
X258939D01*
X258942D01*
X258953D01*
X258971D01*
X258997Y217627D01*
X259026D01*
X259059Y217630D01*
X259135Y217641D01*
X259222Y217659D01*
X259306Y217681D01*
X259390Y217718D01*
X259426Y217740D01*
X259459Y217765D01*
X259466Y217772D01*
X259485Y217791D01*
X259514Y217820D01*
X259543Y217860D01*
X259572Y217911D01*
X259601Y217969D01*
X259619Y218034D01*
X259623Y218071D01*
X259626Y218107D01*
Y218129D01*
X259623Y218144D01*
X259615Y218180D01*
X259605Y218231D01*
X259583Y218286D01*
X259554Y218344D01*
X259510Y218402D01*
X259485Y218431D01*
X259455Y218460D01*
X259452D01*
X259448Y218467D01*
X259437Y218475D01*
X259423Y218482D01*
X259404Y218497D01*
X259379Y218508D01*
X259353Y218522D01*
X259321Y218537D01*
X259288Y218548D01*
X259244Y218562D01*
X259201Y218577D01*
X259153Y218588D01*
X259099Y218595D01*
X259040Y218602D01*
X258979Y218609D01*
D02*
G37*
G36*
X207774Y203822D02*
X207755D01*
X207741Y203819D01*
X207704Y203811D01*
X207657Y203800D01*
X207603Y203779D01*
X207544Y203746D01*
X207512Y203724D01*
X207483Y203698D01*
X207453Y203669D01*
X207424Y203637D01*
Y203633D01*
X207417Y203629D01*
X207410Y203618D01*
X207402Y203604D01*
X207392Y203582D01*
X207377Y203560D01*
X207362Y203531D01*
X207351Y203502D01*
X207337Y203466D01*
X207322Y203426D01*
X207311Y203382D01*
X207297Y203334D01*
X207290Y203280D01*
X207282Y203225D01*
X207275Y203167D01*
Y203101D01*
Y203098D01*
Y203087D01*
Y203069D01*
X207279Y203043D01*
Y203014D01*
X207282Y202981D01*
X207293Y202905D01*
X207311Y202818D01*
X207333Y202734D01*
X207370Y202650D01*
X207392Y202614D01*
X207417Y202581D01*
X207424Y202574D01*
X207442Y202555D01*
X207471Y202526D01*
X207512Y202497D01*
X207563Y202468D01*
X207621Y202439D01*
X207686Y202421D01*
X207723Y202417D01*
X207759Y202414D01*
X207781D01*
X207796Y202417D01*
X207832Y202425D01*
X207883Y202435D01*
X207938Y202457D01*
X207996Y202486D01*
X208054Y202530D01*
X208083Y202555D01*
X208112Y202585D01*
Y202588D01*
X208120Y202592D01*
X208127Y202603D01*
X208134Y202617D01*
X208149Y202636D01*
X208159Y202661D01*
X208174Y202687D01*
X208189Y202719D01*
X208200Y202752D01*
X208214Y202796D01*
X208229Y202839D01*
X208240Y202887D01*
X208247Y202941D01*
X208254Y203000D01*
X208261Y203062D01*
Y203127D01*
Y203131D01*
Y203142D01*
Y203160D01*
X208258Y203185D01*
Y203214D01*
X208254Y203247D01*
X208243Y203324D01*
X208225Y203407D01*
X208200Y203491D01*
X208163Y203575D01*
X208141Y203615D01*
X208116Y203648D01*
Y203651D01*
X208109Y203655D01*
X208090Y203677D01*
X208061Y203702D01*
X208021Y203735D01*
X207970Y203768D01*
X207912Y203797D01*
X207846Y203815D01*
X207810Y203819D01*
X207774Y203822D01*
D02*
G37*
G36*
X194072Y25979D02*
X193351D01*
Y25080D01*
X194028D01*
X194054Y25084D01*
X194079D01*
X194108Y25087D01*
X194177Y25095D01*
X194254Y25109D01*
X194330Y25131D01*
X194399Y25160D01*
X194432Y25179D01*
X194458Y25200D01*
X194465Y25208D01*
X194480Y25222D01*
X194501Y25251D01*
X194527Y25288D01*
X194552Y25335D01*
X194574Y25393D01*
X194589Y25459D01*
X194596Y25535D01*
Y25539D01*
Y25543D01*
Y25561D01*
X194592Y25593D01*
X194585Y25630D01*
X194578Y25670D01*
X194563Y25717D01*
X194541Y25761D01*
X194516Y25805D01*
X194512Y25808D01*
X194501Y25823D01*
X194483Y25841D01*
X194461Y25866D01*
X194429Y25892D01*
X194392Y25914D01*
X194352Y25936D01*
X194305Y25954D01*
X194301D01*
X194287Y25957D01*
X194265Y25961D01*
X194236Y25968D01*
X194192Y25972D01*
X194137Y25976D01*
X194072Y25979D01*
D02*
G37*
G36*
X190628Y25997D02*
X189835D01*
Y25164D01*
X190585D01*
X190628Y25168D01*
X190679Y25171D01*
X190738Y25175D01*
X190796Y25182D01*
X190854Y25193D01*
X190905Y25208D01*
X190912Y25211D01*
X190927Y25218D01*
X190949Y25229D01*
X190978Y25244D01*
X191011Y25266D01*
X191043Y25291D01*
X191076Y25324D01*
X191102Y25361D01*
X191105Y25364D01*
X191112Y25379D01*
X191123Y25401D01*
X191138Y25430D01*
X191149Y25462D01*
X191160Y25499D01*
X191167Y25543D01*
X191171Y25586D01*
Y25590D01*
Y25593D01*
X191167Y25615D01*
X191164Y25648D01*
X191156Y25692D01*
X191138Y25735D01*
X191116Y25786D01*
X191083Y25834D01*
X191040Y25881D01*
X191032Y25885D01*
X191014Y25899D01*
X190985Y25917D01*
X190938Y25939D01*
X190883Y25961D01*
X190810Y25979D01*
X190727Y25994D01*
X190628Y25997D01*
D02*
G37*
%LPD*%
D13*
X90961Y257685D02*
Y268315D01*
Y257685D02*
X136039D01*
Y268315D01*
X90961D02*
X136039D01*
X255185Y183039D02*
X265815D01*
X255185Y137961D02*
Y183039D01*
Y137961D02*
X265815D01*
Y183039D01*
X219185Y128961D02*
X229815D01*
Y174039D01*
X219185D02*
X229815D01*
X219185Y128961D02*
Y174039D01*
X268039Y19185D02*
Y29815D01*
X222961D02*
X268039D01*
X222961Y19185D02*
Y29815D01*
Y19185D02*
X268039D01*
X234074Y87306D02*
Y113694D01*
Y87306D02*
X260626D01*
Y113694D01*
X234074D02*
X260626D01*
X86106Y18106D02*
X96894D01*
Y48894D01*
X86106D02*
X96894D01*
X86106Y18106D02*
Y48894D01*
X174106Y19106D02*
Y29894D01*
Y19106D02*
X204894D01*
Y29894D01*
X174106D02*
X204894D01*
M02*
