G04*
G04 #@! TF.GenerationSoftware,Altium Limited,Altium Designer,23.8.1 (32)*
G04*
G04 Layer_Color=2752767*
%FSLAX25Y25*%
%MOIN*%
G70*
G04*
G04 #@! TF.SameCoordinates,520AAA89-0166-4477-BFE6-35E59259A02F*
G04*
G04*
G04 #@! TF.FilePolarity,Positive*
G04*
G01*
G75*
%ADD57C,0.00500*%
%ADD58C,0.00667*%
%ADD59C,0.00400*%
D57*
X147500Y88500D02*
Y87500D01*
X149500D01*
Y88500D01*
X150500D01*
Y90500D01*
X149500D01*
Y91500D01*
X147500D01*
Y90500D01*
X146500D01*
Y88500D01*
X147500D01*
X237500Y58500D02*
Y62500D01*
X241500D01*
Y58500D01*
X237500D01*
Y48500D02*
Y52500D01*
X241500D01*
Y48500D01*
X237500D01*
X257500Y262000D02*
Y266000D01*
X261500D01*
Y262000D01*
X257500D01*
Y252000D02*
Y256000D01*
X261500D01*
Y252000D01*
X257500D01*
X181500Y282000D02*
Y286000D01*
X185500D01*
Y282000D01*
X181500D01*
X191500D02*
Y286000D01*
X195500D01*
Y282000D01*
X191500D01*
X63500Y262000D02*
X64500Y263000D01*
X65500D01*
X64500Y264000D01*
X65500Y265000D01*
X64500D01*
X63500Y266000D01*
X62500Y265000D01*
X61500D01*
X62500Y264000D01*
X61500Y263000D01*
X62500D01*
X63500Y262000D01*
X73500D02*
X74500Y263000D01*
X75500D01*
X74500Y264000D01*
X75500Y265000D01*
X74500D01*
X73500Y266000D01*
X72500Y265000D01*
X71500D01*
X72500Y264000D01*
X71500Y263000D01*
X72500D01*
X73500Y262000D01*
X260500Y217500D02*
X261500Y218500D01*
X262500D01*
X261500Y219500D01*
X262500Y220500D01*
X261500D01*
X260500Y221500D01*
X259500Y220500D01*
X258500D01*
X259500Y219500D01*
X258500Y218500D01*
X259500D01*
X260500Y217500D01*
Y207500D02*
X261500Y208500D01*
X262500D01*
X261500Y209500D01*
X262500Y210500D01*
X261500D01*
X260500Y211500D01*
X259500Y210500D01*
X258500D01*
X259500Y209500D01*
X258500Y208500D01*
X259500D01*
X260500Y207500D01*
X51500Y36500D02*
Y40500D01*
X55500D01*
Y36500D01*
X51500D01*
Y26500D02*
Y30500D01*
X55500D01*
Y26500D01*
X51500D01*
X117500Y88500D02*
Y87500D01*
X119500D01*
Y88500D01*
X120500D01*
Y90500D01*
X119500D01*
Y91500D01*
X117500D01*
Y90500D01*
X116500D01*
Y88500D01*
X117500D01*
X120500Y29500D02*
X122500Y31500D01*
X124500Y29500D01*
X122500Y27500D01*
X120500Y29500D01*
X130500D02*
X132500Y31500D01*
X134500Y29500D01*
X132500Y27500D01*
X130500Y29500D01*
X140500D02*
X142500Y31500D01*
X144500Y29500D01*
X142500Y27500D01*
X140500Y29500D01*
X150500D02*
X152500Y31500D01*
X154500Y29500D01*
X152500Y27500D01*
X150500Y29500D01*
X198500Y252000D02*
Y256000D01*
X202500D01*
Y252000D01*
X198500D01*
X188500D02*
Y256000D01*
X192500D01*
Y252000D01*
X188500D01*
X178500D02*
Y256000D01*
X182500D01*
Y252000D01*
X178500D01*
X257200Y98500D02*
X255200Y102500D01*
X259200D01*
X257200Y98500D01*
X237500D02*
X235500Y102500D01*
X239500D01*
X237500Y98500D01*
X89500Y41500D02*
X90500Y43500D01*
X89500Y45500D01*
X91500Y44500D01*
X93500Y45500D01*
X92500Y43500D01*
X93500Y41500D01*
X91500Y42500D01*
X89500Y41500D01*
Y31500D02*
X90500Y33500D01*
X89500Y35500D01*
X91500Y34500D01*
X93500Y35500D01*
X92500Y33500D01*
X93500Y31500D01*
X91500Y32500D01*
X89500Y31500D01*
Y21500D02*
X90500Y23500D01*
X89500Y25500D01*
X91500Y24500D01*
X93500Y25500D01*
X92500Y23500D01*
X93500Y21500D01*
X91500Y22500D01*
X89500Y21500D01*
X11000Y145500D02*
Y149500D01*
X15000D01*
Y145500D01*
X11000D01*
X11800Y146300D02*
Y148700D01*
X14200D01*
Y146300D01*
X11800D01*
X11000Y135500D02*
Y139500D01*
X15000D01*
Y135500D01*
X11000D01*
X11800Y136300D02*
Y138700D01*
X14200D01*
Y136300D01*
X11800D01*
X11000Y125500D02*
Y129500D01*
X15000D01*
Y125500D01*
X11000D01*
X11800Y126300D02*
Y128700D01*
X14200D01*
Y126300D01*
X11800D01*
X21000Y145500D02*
Y149500D01*
X25000D01*
Y145500D01*
X21000D01*
X21800Y146300D02*
Y148700D01*
X24200D01*
Y146300D01*
X21800D01*
X21000Y135500D02*
Y139500D01*
X25000D01*
Y135500D01*
X21000D01*
X21800Y136300D02*
Y138700D01*
X24200D01*
Y136300D01*
X21800D01*
X21000Y125500D02*
Y129500D01*
X25000D01*
Y125500D01*
X21000D01*
X21800Y126300D02*
Y128700D01*
X24200D01*
Y126300D01*
X21800D01*
X197500Y22500D02*
X198500Y24500D01*
X197500Y26500D01*
X199500Y25500D01*
X201500Y26500D01*
X200500Y24500D01*
X201500Y22500D01*
X199500Y23500D01*
X197500Y22500D01*
X187500D02*
X188500Y24500D01*
X187500Y26500D01*
X189500Y25500D01*
X191500Y26500D01*
X190500Y24500D01*
X191500Y22500D01*
X189500Y23500D01*
X187500Y22500D01*
X177500D02*
X178500Y24500D01*
X177500Y26500D01*
X179500Y25500D01*
X181500Y26500D01*
X180500Y24500D01*
X181500Y22500D01*
X179500Y23500D01*
X177500Y22500D01*
X147500Y98500D02*
Y97500D01*
X149500D01*
Y98500D01*
X150500D01*
Y100500D01*
X149500D01*
Y101500D01*
X147500D01*
Y100500D01*
X146500D01*
Y98500D01*
X147500D01*
Y108500D02*
Y107500D01*
X149500D01*
Y108500D01*
X150500D01*
Y110500D01*
X149500D01*
Y111500D01*
X147500D01*
Y110500D01*
X146500D01*
Y108500D01*
X147500D01*
Y118500D02*
Y117500D01*
X149500D01*
Y118500D01*
X150500D01*
Y120500D01*
X149500D01*
Y121500D01*
X147500D01*
Y120500D01*
X146500D01*
Y118500D01*
X147500D01*
Y128500D02*
Y127500D01*
X149500D01*
Y128500D01*
X150500D01*
Y130500D01*
X149500D01*
Y131500D01*
X147500D01*
Y130500D01*
X146500D01*
Y128500D01*
X147500D01*
Y138500D02*
Y137500D01*
X149500D01*
Y138500D01*
X150500D01*
Y140500D01*
X149500D01*
Y141500D01*
X147500D01*
Y140500D01*
X146500D01*
Y138500D01*
X147500D01*
Y148500D02*
Y147500D01*
X149500D01*
Y148500D01*
X150500D01*
Y150500D01*
X149500D01*
Y151500D01*
X147500D01*
Y150500D01*
X146500D01*
Y148500D01*
X147500D01*
Y158500D02*
Y157500D01*
X149500D01*
Y158500D01*
X150500D01*
Y160500D01*
X149500D01*
Y161500D01*
X147500D01*
Y160500D01*
X146500D01*
Y158500D01*
X147500D01*
Y168500D02*
Y167500D01*
X149500D01*
Y168500D01*
X150500D01*
Y170500D01*
X149500D01*
Y171500D01*
X147500D01*
Y170500D01*
X146500D01*
Y168500D01*
X147500D01*
Y178500D02*
Y177500D01*
X149500D01*
Y178500D01*
X150500D01*
Y180500D01*
X149500D01*
Y181500D01*
X147500D01*
Y180500D01*
X146500D01*
Y178500D01*
X147500D01*
Y188500D02*
Y187500D01*
X149500D01*
Y188500D01*
X150500D01*
Y190500D01*
X149500D01*
Y191500D01*
X147500D01*
Y190500D01*
X146500D01*
Y188500D01*
X147500D01*
Y198500D02*
Y197500D01*
X149500D01*
Y198500D01*
X150500D01*
Y200500D01*
X149500D01*
Y201500D01*
X147500D01*
Y200500D01*
X146500D01*
Y198500D01*
X147500D01*
Y208500D02*
Y207500D01*
X149500D01*
Y208500D01*
X150500D01*
Y210500D01*
X149500D01*
Y211500D01*
X147500D01*
Y210500D01*
X146500D01*
Y208500D01*
X147500D01*
Y218500D02*
Y217500D01*
X149500D01*
Y218500D01*
X150500D01*
Y220500D01*
X149500D01*
Y221500D01*
X147500D01*
Y220500D01*
X146500D01*
Y218500D01*
X147500D01*
X117500Y98500D02*
Y97500D01*
X119500D01*
Y98500D01*
X120500D01*
Y100500D01*
X119500D01*
Y101500D01*
X117500D01*
Y100500D01*
X116500D01*
Y98500D01*
X117500D01*
Y108500D02*
Y107500D01*
X119500D01*
Y108500D01*
X120500D01*
Y110500D01*
X119500D01*
Y111500D01*
X117500D01*
Y110500D01*
X116500D01*
Y108500D01*
X117500D01*
Y118500D02*
Y117500D01*
X119500D01*
Y118500D01*
X120500D01*
Y120500D01*
X119500D01*
Y121500D01*
X117500D01*
Y120500D01*
X116500D01*
Y118500D01*
X117500D01*
Y128500D02*
Y127500D01*
X119500D01*
Y128500D01*
X120500D01*
Y130500D01*
X119500D01*
Y131500D01*
X117500D01*
Y130500D01*
X116500D01*
Y128500D01*
X117500D01*
Y138500D02*
Y137500D01*
X119500D01*
Y138500D01*
X120500D01*
Y140500D01*
X119500D01*
Y141500D01*
X117500D01*
Y140500D01*
X116500D01*
Y138500D01*
X117500D01*
Y148500D02*
Y147500D01*
X119500D01*
Y148500D01*
X120500D01*
Y150500D01*
X119500D01*
Y151500D01*
X117500D01*
Y150500D01*
X116500D01*
Y148500D01*
X117500D01*
Y158500D02*
Y157500D01*
X119500D01*
Y158500D01*
X120500D01*
Y160500D01*
X119500D01*
Y161500D01*
X117500D01*
Y160500D01*
X116500D01*
Y158500D01*
X117500D01*
Y168500D02*
Y167500D01*
X119500D01*
Y168500D01*
X120500D01*
Y170500D01*
X119500D01*
Y171500D01*
X117500D01*
Y170500D01*
X116500D01*
Y168500D01*
X117500D01*
Y178500D02*
Y177500D01*
X119500D01*
Y178500D01*
X120500D01*
Y180500D01*
X119500D01*
Y181500D01*
X117500D01*
Y180500D01*
X116500D01*
Y178500D01*
X117500D01*
Y188500D02*
Y187500D01*
X119500D01*
Y188500D01*
X120500D01*
Y190500D01*
X119500D01*
Y191500D01*
X117500D01*
Y190500D01*
X116500D01*
Y188500D01*
X117500D01*
Y198500D02*
Y197500D01*
X119500D01*
Y198500D01*
X120500D01*
Y200500D01*
X119500D01*
Y201500D01*
X117500D01*
Y200500D01*
X116500D01*
Y198500D01*
X117500D01*
Y208500D02*
Y207500D01*
X119500D01*
Y208500D01*
X120500D01*
Y210500D01*
X119500D01*
Y211500D01*
X117500D01*
Y210500D01*
X116500D01*
Y208500D01*
X117500D01*
Y218500D02*
Y217500D01*
X119500D01*
Y218500D01*
X120500D01*
Y220500D01*
X119500D01*
Y221500D01*
X117500D01*
Y220500D01*
X116500D01*
Y218500D01*
X117500D01*
X13000Y72500D02*
X14000D01*
X15000Y73500D01*
X16000Y72500D01*
X17000D01*
Y73500D01*
X16000Y74500D01*
X17000Y75500D01*
Y76500D01*
X16000D01*
X15000Y75500D01*
X14000Y76500D01*
X13000D01*
Y75500D01*
X14000Y74500D01*
X13000Y73500D01*
Y72500D01*
Y92500D02*
X14000D01*
X15000Y93500D01*
X16000Y92500D01*
X17000D01*
Y93500D01*
X16000Y94500D01*
X17000Y95500D01*
Y96500D01*
X16000D01*
X15000Y95500D01*
X14000Y96500D01*
X13000D01*
Y95500D01*
X14000Y94500D01*
X13000Y93500D01*
Y92500D01*
Y43500D02*
X14000D01*
X15000Y44500D01*
X16000Y43500D01*
X17000D01*
Y44500D01*
X16000Y45500D01*
X17000Y46500D01*
Y47500D01*
X16000D01*
X15000Y46500D01*
X14000Y47500D01*
X13000D01*
Y46500D01*
X14000Y45500D01*
X13000Y44500D01*
Y43500D01*
Y23500D02*
X14000D01*
X15000Y24500D01*
X16000Y23500D01*
X17000D01*
Y24500D01*
X16000Y25500D01*
X17000Y26500D01*
Y27500D01*
X16000D01*
X15000Y26500D01*
X14000Y27500D01*
X13000D01*
Y26500D01*
X14000Y25500D01*
X13000Y24500D01*
Y23500D01*
X58500Y144500D02*
Y148500D01*
X62500D01*
Y144500D01*
X58500D01*
X59300Y145300D02*
Y147700D01*
X61700D01*
Y145300D01*
X59300D01*
X58500Y154500D02*
Y158500D01*
X62500D01*
Y154500D01*
X58500D01*
X59300Y155300D02*
Y157700D01*
X61700D01*
Y155300D01*
X59300D01*
X58500Y164500D02*
Y168500D01*
X62500D01*
Y164500D01*
X58500D01*
X59300Y165300D02*
Y167700D01*
X61700D01*
Y165300D01*
X59300D01*
X58500Y174500D02*
Y178500D01*
X62500D01*
Y174500D01*
X58500D01*
X59300Y175300D02*
Y177700D01*
X61700D01*
Y175300D01*
X59300D01*
X58500Y134500D02*
Y138500D01*
X62500D01*
Y134500D01*
X58500D01*
X59300Y135300D02*
Y137700D01*
X61700D01*
Y135300D01*
X59300D01*
X58500Y124500D02*
Y128500D01*
X62500D01*
Y124500D01*
X58500D01*
X59300Y125300D02*
Y127700D01*
X61700D01*
Y125300D01*
X59300D01*
X53500Y67500D02*
X54500D01*
X55500Y68500D01*
X56500Y67500D01*
X57500D01*
Y68500D01*
X56500Y69500D01*
X57500Y70500D01*
Y71500D01*
X56500D01*
X55500Y70500D01*
X54500Y71500D01*
X53500D01*
Y70500D01*
X54500Y69500D01*
X53500Y68500D01*
Y67500D01*
Y87500D02*
X54500D01*
X55500Y88500D01*
X56500Y87500D01*
X57500D01*
Y88500D01*
X56500Y89500D01*
X57500Y90500D01*
Y91500D01*
X56500D01*
X55500Y90500D01*
X54500Y91500D01*
X53500D01*
Y90500D01*
X54500Y89500D01*
X53500Y88500D01*
Y87500D01*
X18000Y237500D02*
X20000Y239500D01*
X22000Y237500D01*
X20000Y235500D01*
X18000Y237500D01*
Y227500D02*
X20000Y229500D01*
X22000Y227500D01*
X20000Y225500D01*
X18000Y227500D01*
Y217500D02*
X20000Y219500D01*
X22000Y217500D01*
X20000Y215500D01*
X18000Y217500D01*
Y207500D02*
X20000Y209500D01*
X22000Y207500D01*
X20000Y205500D01*
X18000Y207500D01*
D58*
X135185Y263000D02*
G03*
X135185Y263000I-2000J0D01*
G01*
X95815D02*
G03*
X95815Y263000I-2000J0D01*
G01*
X262500Y140815D02*
G03*
X262500Y140815I-2000J0D01*
G01*
Y180185D02*
G03*
X262500Y180185I-2000J0D01*
G01*
X226500Y171185D02*
G03*
X226500Y171185I-2000J0D01*
G01*
Y131815D02*
G03*
X226500Y131815I-2000J0D01*
G01*
X227815Y24500D02*
G03*
X227815Y24500I-2000J0D01*
G01*
X267185D02*
G03*
X267185Y24500I-2000J0D01*
G01*
X211343Y201500D02*
G03*
X211343Y201500I-2000J0D01*
G01*
X191657D02*
G03*
X191657Y201500I-2000J0D01*
G01*
X125100Y104900D02*
G03*
X125100Y104900I-2000J0D01*
G01*
X141900Y164100D02*
G03*
X141900Y164100I-2000J0D01*
G01*
D59*
X124300Y104900D02*
G03*
X124300Y104900I-1200J0D01*
G01*
X141100Y164100D02*
G03*
X141100Y164100I-1200J0D01*
G01*
M02*
