M48
;Layer_Color=9474304
;FILE_FORMAT=2:4
INCH,LZ
;TYPE=PLATED
T01F00S00C0.0197
T02F00S00C0.0295
T03F00S00C0.0315
T04F00S00C0.0354
T05F00S00C0.0390
T06F00S00C0.0394
T07F00S00C0.0402
T08F00S00C0.0413
T09F00S00C0.0433
T10F00S00C0.0500
%
T01
X01231Y01049
X01399Y01641
T02
X022582Y00245
X026518
X02605Y014081
Y018018
X02245Y017119
Y013182
X020934Y02015
X018966
X013319Y0263
X009381
T03
X0015Y00255
Y00455
X00555Y00695
Y00895
X0015Y00945
Y00745
T04
X01185Y00895
Y00995
Y01095
Y01195
Y01295
Y01395
Y01495
Y01595
Y01695
Y01795
Y01895
Y01995
X01485
Y01895
Y01795
Y01695
Y01595
Y01495
Y01395
Y01295
Y01195
Y01095
Y00995
Y00895
Y02095
Y02195
X01185
Y02095
T05
X02375Y01005
X02572
T06
X00915Y00235
Y00335
Y00435
X01795Y00245
X01895
X01995
T07
X00605Y01265
Y01365
Y01465
Y01565
Y01665
Y01765
X0023Y01475
X0013
Y01375
Y01275
X0023
Y01375
T08
X00635Y0264
X00735
X02605Y02195
Y02095
T09
X00535Y00285
Y00385
X02395Y00505
Y00605
X02005Y0254
X01905
X01805
X01835Y0284
X01935
X02595Y0264
Y0254
T10
X01225Y00295
X01325
X01425
X01525
X002Y02075
Y02175
Y02275
Y02375
M30
