G04*
G04 #@! TF.GenerationSoftware,Altium Limited,Altium Designer,23.8.1 (32)*
G04*
G04 Layer_Color=8388736*
%FSLAX25Y25*%
%MOIN*%
G70*
G04*
G04 #@! TF.SameCoordinates,520AAA89-0166-4477-BFE6-35E59259A02F*
G04*
G04*
G04 #@! TF.FilePolarity,Positive*
G04*
G01*
G75*
%ADD10C,0.00591*%
%ADD13C,0.00787*%
%ADD54C,0.00394*%
D10*
X75094Y264000D02*
G03*
X75094Y264000I-6594J0D01*
G01*
X267094Y214500D02*
G03*
X267094Y214500I-6594J0D01*
G01*
X220169Y201500D02*
G03*
X220169Y201500I-20669J0D01*
G01*
D13*
X100705Y258079D02*
Y267921D01*
Y258079D02*
X126295D01*
Y267921D01*
X100705D02*
X126295D01*
X255579Y173295D02*
X265421D01*
X255579Y147705D02*
Y173295D01*
Y147705D02*
X265421D01*
Y173295D01*
X219579Y138705D02*
X229421D01*
Y164295D01*
X219579D02*
X229421D01*
X219579Y138705D02*
Y164295D01*
X258295Y19579D02*
Y29421D01*
X232705D02*
X258295D01*
X232705Y19579D02*
Y29421D01*
Y19579D02*
X258295D01*
X234550Y87700D02*
Y113300D01*
Y87700D02*
X260150D01*
Y113300D01*
X234550D02*
X260150D01*
X86500Y18500D02*
X96500D01*
Y48500D01*
X86500D02*
X96500D01*
X86500Y18500D02*
Y48500D01*
X174500Y19500D02*
Y29500D01*
Y19500D02*
X204500D01*
Y29500D01*
X174500D02*
X204500D01*
D54*
X234500Y65500D02*
X244500D01*
X234500Y45500D02*
Y65500D01*
Y45500D02*
X244500D01*
Y65500D01*
X254500Y269000D02*
X264500D01*
X254500Y249000D02*
Y269000D01*
Y249000D02*
X264500D01*
Y269000D01*
X178500Y279000D02*
Y289000D01*
Y279000D02*
X198500D01*
Y289000D01*
X178500D02*
X198500D01*
X48500Y43500D02*
X58500D01*
X48500Y23500D02*
Y43500D01*
Y23500D02*
X58500D01*
Y43500D01*
M02*
