G04*
G04 #@! TF.GenerationSoftware,Altium Limited,Altium Designer,23.8.1 (32)*
G04*
G04 Layer_Color=128*
%FSLAX25Y25*%
%MOIN*%
G70*
G04*
G04 #@! TF.SameCoordinates,520AAA89-0166-4477-BFE6-35E59259A02F*
G04*
G04*
G04 #@! TF.FilePolarity,Positive*
G04*
G01*
G75*
%ADD57C,0.00500*%
D57*
X146728Y89500D02*
X150272D01*
X148500Y87728D02*
Y91272D01*
X237335Y60500D02*
X241665D01*
X239500Y58335D02*
Y62665D01*
X237335Y50500D02*
X241665D01*
X239500Y48335D02*
Y52665D01*
X257335Y264000D02*
X261665D01*
X259500Y261835D02*
Y266165D01*
X257335Y254000D02*
X261665D01*
X259500Y251835D02*
Y256165D01*
X181335Y284000D02*
X185665D01*
X183500Y281835D02*
Y286165D01*
X191335Y284000D02*
X195665D01*
X193500Y281835D02*
Y286165D01*
X131709Y263000D02*
X134661D01*
X133185Y261524D02*
Y264476D01*
X92339Y263000D02*
X95291D01*
X93815Y261524D02*
Y264476D01*
X259024Y140815D02*
X261976D01*
X260500Y139339D02*
Y142291D01*
X259024Y180185D02*
X261976D01*
X260500Y178709D02*
Y181661D01*
X223024Y171185D02*
X225976D01*
X224500Y169709D02*
Y172661D01*
X223024Y131815D02*
X225976D01*
X224500Y130339D02*
Y133291D01*
X224339Y24500D02*
X227291D01*
X225815Y23024D02*
Y25976D01*
X263709Y24500D02*
X266661D01*
X265185Y23024D02*
Y25976D01*
X61433Y264000D02*
X65567D01*
X63500Y261933D02*
Y266067D01*
X71433Y264000D02*
X75567D01*
X73500Y261933D02*
Y266067D01*
X258433Y219500D02*
X262567D01*
X260500Y217433D02*
Y221567D01*
X258433Y209500D02*
X262567D01*
X260500Y207433D02*
Y211567D01*
X51335Y38500D02*
X55665D01*
X53500Y36335D02*
Y40665D01*
X51335Y28500D02*
X55665D01*
X53500Y26335D02*
Y30665D01*
X116728Y89500D02*
X120272D01*
X118500Y87728D02*
Y91272D01*
X120000Y29500D02*
X125000D01*
X122500Y27000D02*
Y32000D01*
X130000Y29500D02*
X135000D01*
X132500Y27000D02*
Y32000D01*
X140000Y29500D02*
X145000D01*
X142500Y27000D02*
Y32000D01*
X150000Y29500D02*
X155000D01*
X152500Y27000D02*
Y32000D01*
X198335Y254000D02*
X202665D01*
X200500Y251835D02*
Y256165D01*
X188335Y254000D02*
X192665D01*
X190500Y251835D02*
Y256165D01*
X178335Y254000D02*
X182665D01*
X180500Y251835D02*
Y256165D01*
X255250Y100500D02*
X259150D01*
X257200Y98550D02*
Y102450D01*
X235550Y100500D02*
X239450D01*
X237500Y98550D02*
Y102450D01*
X89531Y43500D02*
X93468D01*
X91500Y41532D02*
Y45469D01*
X89531Y33500D02*
X93468D01*
X91500Y31532D02*
Y35469D01*
X89531Y23500D02*
X93468D01*
X91500Y21531D02*
Y25469D01*
X10992Y147500D02*
X15008D01*
X13000Y145492D02*
Y149508D01*
X10992Y137500D02*
X15008D01*
X13000Y135492D02*
Y139508D01*
X10992Y127500D02*
X15008D01*
X13000Y125492D02*
Y129508D01*
X20992Y147500D02*
X25008D01*
X23000Y145492D02*
Y149508D01*
X20992Y137500D02*
X25008D01*
X23000Y135492D02*
Y139508D01*
X20992Y127500D02*
X25008D01*
X23000Y125492D02*
Y129508D01*
X207866Y201500D02*
X210819D01*
X209343Y200024D02*
Y202976D01*
X188181Y201500D02*
X191134D01*
X189657Y200024D02*
Y202976D01*
X197531Y24500D02*
X201468D01*
X199500Y22532D02*
Y26469D01*
X187531Y24500D02*
X191469D01*
X189500Y22532D02*
Y26469D01*
X177532Y24500D02*
X181468D01*
X179500Y22532D02*
Y26469D01*
X146728Y99500D02*
X150272D01*
X148500Y97728D02*
Y101272D01*
X146728Y109500D02*
X150272D01*
X148500Y107728D02*
Y111272D01*
X146728Y119500D02*
X150272D01*
X148500Y117728D02*
Y121272D01*
X146728Y129500D02*
X150272D01*
X148500Y127728D02*
Y131272D01*
X146728Y139500D02*
X150272D01*
X148500Y137728D02*
Y141272D01*
X146728Y149500D02*
X150272D01*
X148500Y147728D02*
Y151272D01*
X146728Y159500D02*
X150272D01*
X148500Y157728D02*
Y161272D01*
X146728Y169500D02*
X150272D01*
X148500Y167728D02*
Y171272D01*
X146728Y179500D02*
X150272D01*
X148500Y177728D02*
Y181272D01*
X146728Y189500D02*
X150272D01*
X148500Y187728D02*
Y191272D01*
X146728Y199500D02*
X150272D01*
X148500Y197728D02*
Y201272D01*
X146728Y209500D02*
X150272D01*
X148500Y207728D02*
Y211272D01*
X146728Y219500D02*
X150272D01*
X148500Y217728D02*
Y221272D01*
X116728Y99500D02*
X120272D01*
X118500Y97728D02*
Y101272D01*
X116728Y109500D02*
X120272D01*
X118500Y107728D02*
Y111272D01*
X116728Y119500D02*
X120272D01*
X118500Y117728D02*
Y121272D01*
X116728Y129500D02*
X120272D01*
X118500Y127728D02*
Y131272D01*
X116728Y139500D02*
X120272D01*
X118500Y137728D02*
Y141272D01*
X116728Y149500D02*
X120272D01*
X118500Y147728D02*
Y151272D01*
X116728Y159500D02*
X120272D01*
X118500Y157728D02*
Y161272D01*
X116728Y169500D02*
X120272D01*
X118500Y167728D02*
Y171272D01*
X116728Y179500D02*
X120272D01*
X118500Y177728D02*
Y181272D01*
X116728Y189500D02*
X120272D01*
X118500Y187728D02*
Y191272D01*
X116728Y199500D02*
X120272D01*
X118500Y197728D02*
Y201272D01*
X116728Y209500D02*
X120272D01*
X118500Y207728D02*
Y211272D01*
X116728Y219500D02*
X120272D01*
X118500Y217728D02*
Y221272D01*
X13425Y74500D02*
X16575D01*
X15000Y72925D02*
Y76075D01*
X13425Y94500D02*
X16575D01*
X15000Y92925D02*
Y96075D01*
X13425Y45500D02*
X16575D01*
X15000Y43925D02*
Y47075D01*
X13425Y25500D02*
X16575D01*
X15000Y23925D02*
Y27075D01*
X58492Y146500D02*
X62508D01*
X60500Y144492D02*
Y148508D01*
X58492Y156500D02*
X62508D01*
X60500Y154492D02*
Y158508D01*
X58492Y166500D02*
X62508D01*
X60500Y164492D02*
Y168508D01*
X58492Y176500D02*
X62508D01*
X60500Y174492D02*
Y178508D01*
X58492Y136500D02*
X62508D01*
X60500Y134492D02*
Y138508D01*
X58492Y126500D02*
X62508D01*
X60500Y124492D02*
Y128508D01*
X53925Y69500D02*
X57075D01*
X55500Y67925D02*
Y71075D01*
X53925Y89500D02*
X57075D01*
X55500Y87925D02*
Y91075D01*
X17500Y237500D02*
X22500D01*
X20000Y235000D02*
Y240000D01*
X17500Y227500D02*
X22500D01*
X20000Y225000D02*
Y230000D01*
X17500Y217500D02*
X22500D01*
X20000Y215000D02*
Y220000D01*
X17500Y207500D02*
X22500D01*
X20000Y205000D02*
Y210000D01*
X122116Y104900D02*
X124084D01*
X123100Y103916D02*
Y105884D01*
X138916Y164100D02*
X140884D01*
X139900Y163116D02*
Y165084D01*
M02*
