G04*
G04 #@! TF.GenerationSoftware,Altium Limited,Altium Designer,23.8.1 (32)*
G04*
G04 Layer_Color=255*
%FSLAX25Y25*%
%MOIN*%
G70*
G04*
G04 #@! TF.SameCoordinates,520AAA89-0166-4477-BFE6-35E59259A02F*
G04*
G04*
G04 #@! TF.FilePolarity,Positive*
G04*
G01*
G75*
%ADD19C,0.04921*%
%ADD20R,0.04921X0.04921*%
%ADD21R,0.04921X0.04921*%
%ADD22C,0.06299*%
%ADD23R,0.06299X0.06299*%
%ADD24R,0.06299X0.06299*%
%ADD29C,0.06065*%
%ADD30R,0.06065X0.06065*%
%ADD31C,0.06102*%
%ADD32R,0.06102X0.06102*%
%ADD35R,0.06102X0.06102*%
%ADD42C,0.05906*%
G04:AMPARAMS|DCode=43|XSize=62.99mil|YSize=62.99mil|CornerRadius=15.75mil|HoleSize=0mil|Usage=FLASHONLY|Rotation=270.000|XOffset=0mil|YOffset=0mil|HoleType=Round|Shape=RoundedRectangle|*
%AMROUNDEDRECTD43*
21,1,0.06299,0.03150,0,0,270.0*
21,1,0.03150,0.06299,0,0,270.0*
1,1,0.03150,-0.01575,-0.01575*
1,1,0.03150,-0.01575,0.01575*
1,1,0.03150,0.01575,0.01575*
1,1,0.03150,0.01575,-0.01575*
%
%ADD43ROUNDEDRECTD43*%
G04:AMPARAMS|DCode=44|XSize=62.99mil|YSize=62.99mil|CornerRadius=15.75mil|HoleSize=0mil|Usage=FLASHONLY|Rotation=0.000|XOffset=0mil|YOffset=0mil|HoleType=Round|Shape=RoundedRectangle|*
%AMROUNDEDRECTD44*
21,1,0.06299,0.03150,0,0,0.0*
21,1,0.03150,0.06299,0,0,0.0*
1,1,0.03150,0.01575,-0.01575*
1,1,0.03150,-0.01575,-0.01575*
1,1,0.03150,-0.01575,0.01575*
1,1,0.03150,0.01575,0.01575*
%
%ADD44ROUNDEDRECTD44*%
%ADD45C,0.07087*%
%ADD46R,0.07087X0.07087*%
%ADD47C,0.06693*%
%ADD48R,0.06693X0.06693*%
%ADD49R,0.05906X0.05906*%
%ADD50R,0.05118X0.05118*%
%ADD51C,0.05118*%
%ADD52R,0.07087X0.07087*%
D19*
X133185Y263000D02*
D03*
X260500Y140815D02*
D03*
X224500Y171185D02*
D03*
X225815Y24500D02*
D03*
X209343Y201500D02*
D03*
D20*
X93815Y263000D02*
D03*
X265185Y24500D02*
D03*
X189657Y201500D02*
D03*
D21*
X260500Y180185D02*
D03*
X224500Y131815D02*
D03*
D22*
X239500Y50500D02*
D03*
X259500Y254000D02*
D03*
X193500Y284000D02*
D03*
X63500Y264000D02*
D03*
X260500Y219500D02*
D03*
X53500Y28500D02*
D03*
D23*
X73500Y264000D02*
D03*
D24*
X260500Y209500D02*
D03*
D29*
X257200Y100500D02*
D03*
D30*
X237500D02*
D03*
D31*
X91500Y43500D02*
D03*
Y33500D02*
D03*
X13000Y147500D02*
D03*
Y137500D02*
D03*
Y127500D02*
D03*
X23000Y147500D02*
D03*
Y137500D02*
D03*
X199500Y24500D02*
D03*
X189500D02*
D03*
X60500Y146500D02*
D03*
Y156500D02*
D03*
Y166500D02*
D03*
Y176500D02*
D03*
Y136500D02*
D03*
D32*
X91500Y23500D02*
D03*
X23000Y127500D02*
D03*
X60500Y126500D02*
D03*
D35*
X179500Y24500D02*
D03*
D42*
X148500Y89500D02*
D03*
X118500D02*
D03*
X148500Y99500D02*
D03*
Y109500D02*
D03*
Y119500D02*
D03*
Y129500D02*
D03*
Y139500D02*
D03*
Y149500D02*
D03*
Y159500D02*
D03*
Y169500D02*
D03*
Y179500D02*
D03*
Y189500D02*
D03*
Y199500D02*
D03*
Y209500D02*
D03*
Y219500D02*
D03*
X118500Y99500D02*
D03*
Y109500D02*
D03*
Y119500D02*
D03*
Y129500D02*
D03*
Y139500D02*
D03*
Y149500D02*
D03*
Y159500D02*
D03*
Y169500D02*
D03*
Y179500D02*
D03*
Y189500D02*
D03*
Y199500D02*
D03*
Y209500D02*
D03*
D43*
X239500Y60500D02*
D03*
X259500Y264000D02*
D03*
X53500Y38500D02*
D03*
D44*
X183500Y284000D02*
D03*
D45*
X122500Y29500D02*
D03*
X132500D02*
D03*
X142500D02*
D03*
X20000Y237500D02*
D03*
Y227500D02*
D03*
Y217500D02*
D03*
D46*
X152500Y29500D02*
D03*
D47*
X200500Y254000D02*
D03*
X190500D02*
D03*
D48*
X180500D02*
D03*
D49*
X118500Y219500D02*
D03*
D50*
X15000Y74500D02*
D03*
Y45500D02*
D03*
X55500Y69500D02*
D03*
D51*
X15000Y94500D02*
D03*
Y25500D02*
D03*
X55500Y89500D02*
D03*
D52*
X20000Y207500D02*
D03*
M02*
