G04*
G04 #@! TF.GenerationSoftware,Altium Limited,Altium Designer,23.8.1 (32)*
G04*
G04 Layer_Physical_Order=1*
G04 Layer_Color=255*
%FSLAX25Y25*%
%MOIN*%
G70*
G04*
G04 #@! TF.SameCoordinates,520AAA89-0166-4477-BFE6-35E59259A02F*
G04*
G04*
G04 #@! TF.FilePolarity,Positive*
G04*
G01*
G75*
%ADD19C,0.04921*%
%ADD20R,0.04921X0.04921*%
%ADD21R,0.04921X0.04921*%
%ADD22C,0.06299*%
%ADD23R,0.06299X0.06299*%
%ADD24R,0.06299X0.06299*%
%ADD29C,0.06065*%
%ADD30R,0.06065X0.06065*%
%ADD31C,0.06102*%
%ADD32R,0.06102X0.06102*%
%ADD35R,0.06102X0.06102*%
%ADD41C,0.01500*%
%ADD42C,0.05906*%
G04:AMPARAMS|DCode=43|XSize=62.99mil|YSize=62.99mil|CornerRadius=15.75mil|HoleSize=0mil|Usage=FLASHONLY|Rotation=270.000|XOffset=0mil|YOffset=0mil|HoleType=Round|Shape=RoundedRectangle|*
%AMROUNDEDRECTD43*
21,1,0.06299,0.03150,0,0,270.0*
21,1,0.03150,0.06299,0,0,270.0*
1,1,0.03150,-0.01575,-0.01575*
1,1,0.03150,-0.01575,0.01575*
1,1,0.03150,0.01575,0.01575*
1,1,0.03150,0.01575,-0.01575*
%
%ADD43ROUNDEDRECTD43*%
G04:AMPARAMS|DCode=44|XSize=62.99mil|YSize=62.99mil|CornerRadius=15.75mil|HoleSize=0mil|Usage=FLASHONLY|Rotation=0.000|XOffset=0mil|YOffset=0mil|HoleType=Round|Shape=RoundedRectangle|*
%AMROUNDEDRECTD44*
21,1,0.06299,0.03150,0,0,0.0*
21,1,0.03150,0.06299,0,0,0.0*
1,1,0.03150,0.01575,-0.01575*
1,1,0.03150,-0.01575,-0.01575*
1,1,0.03150,-0.01575,0.01575*
1,1,0.03150,0.01575,0.01575*
%
%ADD44ROUNDEDRECTD44*%
%ADD45C,0.07087*%
%ADD46R,0.07087X0.07087*%
%ADD47C,0.06693*%
%ADD48R,0.06693X0.06693*%
%ADD49R,0.05906X0.05906*%
%ADD50R,0.05118X0.05118*%
%ADD51C,0.05118*%
%ADD52R,0.07087X0.07087*%
%ADD53C,0.03937*%
D19*
X133185Y263000D02*
D03*
X260500Y140815D02*
D03*
X224500Y171185D02*
D03*
X225815Y24500D02*
D03*
X209343Y201500D02*
D03*
D20*
X93815Y263000D02*
D03*
X265185Y24500D02*
D03*
X189657Y201500D02*
D03*
D21*
X260500Y180185D02*
D03*
X224500Y131815D02*
D03*
D22*
X239500Y50500D02*
D03*
X259500Y254000D02*
D03*
X193500Y284000D02*
D03*
X63500Y264000D02*
D03*
X260500Y219500D02*
D03*
X53500Y28500D02*
D03*
D23*
X73500Y264000D02*
D03*
D24*
X260500Y209500D02*
D03*
D29*
X257200Y100500D02*
D03*
D30*
X237500D02*
D03*
D31*
X91500Y43500D02*
D03*
Y33500D02*
D03*
X13000Y147500D02*
D03*
Y137500D02*
D03*
Y127500D02*
D03*
X23000Y147500D02*
D03*
Y137500D02*
D03*
X199500Y24500D02*
D03*
X189500D02*
D03*
X60500Y146500D02*
D03*
Y156500D02*
D03*
Y166500D02*
D03*
Y176500D02*
D03*
Y136500D02*
D03*
D32*
X91500Y23500D02*
D03*
X23000Y127500D02*
D03*
X60500Y126500D02*
D03*
D35*
X179500Y24500D02*
D03*
D41*
X60500Y74500D02*
Y126500D01*
Y74500D02*
X91500Y43500D01*
X39500Y147500D02*
X60500Y126500D01*
X23000Y147500D02*
X39500D01*
X91500Y43500D02*
X117680Y17320D01*
X140320D01*
X152500Y29500D01*
X23000Y147500D02*
X27400Y151900D01*
Y230100D01*
X20000Y237500D02*
X27400Y230100D01*
X148500Y139500D02*
Y149500D01*
X199500Y24500D02*
X209400Y14600D01*
X228700D01*
X244200Y30100D01*
Y55800D01*
X239500Y60500D02*
X244200Y55800D01*
X209343Y186342D02*
X224500Y171185D01*
X209343Y186342D02*
Y201500D01*
X200500Y210343D02*
X209343Y201500D01*
X200500Y210343D02*
Y254000D01*
X15000Y45500D02*
Y74500D01*
X23000Y82500D01*
Y127500D01*
X18300Y132200D02*
X23000Y127500D01*
X18300Y132200D02*
Y173100D01*
X25100Y179900D01*
Y222400D01*
X20000Y227500D02*
X25100Y222400D01*
X60500Y136500D02*
X73500Y149500D01*
X118500D01*
X257200Y32485D02*
X265185Y24500D01*
X257200Y32485D02*
Y100500D01*
X148500Y159500D02*
X184500D01*
X189657Y164657D01*
Y201500D01*
X257200Y100500D02*
X260500Y103800D01*
Y140815D01*
X189657Y201500D02*
X190500Y228643D01*
Y254000D01*
X183500Y261000D02*
X190500Y254000D01*
X183500Y261000D02*
Y284000D01*
X224500Y113500D02*
Y131815D01*
Y113500D02*
X237500Y100500D01*
X15000Y25500D02*
Y29000D01*
X55500Y69500D01*
X225815Y36815D02*
X239500Y50500D01*
X225815Y24500D02*
Y36815D01*
X60500Y156500D02*
X62900Y154100D01*
X121200D01*
X123100Y152200D01*
Y104900D02*
Y152200D01*
X139900Y118100D02*
Y164100D01*
Y118100D02*
X148500Y109500D01*
X60500Y176500D02*
X112800Y228800D01*
X154006D01*
X155303Y227503D01*
Y168803D02*
Y227503D01*
X151400Y164900D02*
X155303Y168803D01*
X146100Y164900D02*
X151400D01*
X143997Y162797D02*
X146100Y164900D01*
X143997Y124003D02*
Y162797D01*
Y124003D02*
X148500Y119500D01*
X136381Y177381D02*
X148500Y189500D01*
X136381Y158818D02*
Y177381D01*
Y158818D02*
X136921Y158279D01*
Y77079D02*
Y158279D01*
Y77079D02*
X189500Y24500D01*
X91500Y33500D02*
X121600Y3400D01*
X136600D01*
X157600Y24400D01*
Y53121D01*
X134621Y76100D02*
X157600Y53121D01*
X134621Y76100D02*
Y86661D01*
X134081Y87200D02*
X134621Y86661D01*
X134081Y87200D02*
Y185081D01*
X148500Y199500D01*
X122500Y29500D02*
X126700Y33700D01*
Y207100D01*
X143700Y224100D01*
X150900D01*
X153003Y221997D01*
Y214003D02*
Y221997D01*
X148500Y209500D02*
X153003Y214003D01*
X131781Y202781D02*
X148500Y219500D01*
X131781Y75919D02*
Y202781D01*
Y75919D02*
X132500Y75200D01*
Y29500D02*
Y75200D01*
X260500Y180185D02*
Y209500D01*
X259500Y237800D02*
Y254000D01*
Y237800D02*
X260500Y236800D01*
Y219500D02*
Y236800D01*
D42*
X148500Y89500D02*
D03*
X118500D02*
D03*
X148500Y99500D02*
D03*
Y109500D02*
D03*
Y119500D02*
D03*
Y129500D02*
D03*
Y139500D02*
D03*
Y149500D02*
D03*
Y159500D02*
D03*
Y169500D02*
D03*
Y179500D02*
D03*
Y189500D02*
D03*
Y199500D02*
D03*
Y209500D02*
D03*
Y219500D02*
D03*
X118500Y99500D02*
D03*
Y109500D02*
D03*
Y119500D02*
D03*
Y129500D02*
D03*
Y139500D02*
D03*
Y149500D02*
D03*
Y159500D02*
D03*
Y169500D02*
D03*
Y179500D02*
D03*
Y189500D02*
D03*
Y199500D02*
D03*
Y209500D02*
D03*
D43*
X239500Y60500D02*
D03*
X259500Y264000D02*
D03*
X53500Y38500D02*
D03*
D44*
X183500Y284000D02*
D03*
D45*
X122500Y29500D02*
D03*
X132500D02*
D03*
X142500D02*
D03*
X20000Y237500D02*
D03*
Y227500D02*
D03*
Y217500D02*
D03*
D46*
X152500Y29500D02*
D03*
D47*
X200500Y254000D02*
D03*
X190500D02*
D03*
D48*
X180500D02*
D03*
D49*
X118500Y219500D02*
D03*
D50*
X15000Y74500D02*
D03*
Y45500D02*
D03*
X55500Y69500D02*
D03*
D51*
X15000Y94500D02*
D03*
Y25500D02*
D03*
X55500Y89500D02*
D03*
D52*
X20000Y207500D02*
D03*
D53*
X123100Y104900D02*
D03*
X139900Y164100D02*
D03*
M02*
