G04*
G04 #@! TF.GenerationSoftware,Altium Limited,Altium Designer,23.8.1 (32)*
G04*
G04 Layer_Color=32768*
%FSLAX25Y25*%
%MOIN*%
G70*
G04*
G04 #@! TF.SameCoordinates,520AAA89-0166-4477-BFE6-35E59259A02F*
G04*
G04*
G04 #@! TF.FilePolarity,Positive*
G04*
G01*
G75*
%ADD54C,0.00394*%
%ADD55C,0.00197*%
D54*
X137500Y27532D02*
Y31469D01*
X135532Y29500D02*
X139469D01*
X188532Y254000D02*
X192469D01*
X190500Y252031D02*
Y255969D01*
X133500Y152532D02*
Y156469D01*
X131532Y154500D02*
X135469D01*
X13032Y84500D02*
X16969D01*
X15000Y82531D02*
Y86469D01*
X13031Y35500D02*
X16969D01*
X15000Y33532D02*
Y37469D01*
X58532Y151500D02*
X62469D01*
X60500Y149531D02*
Y153469D01*
X53532Y79500D02*
X57469D01*
X55500Y77531D02*
Y81469D01*
X18032Y222500D02*
X21969D01*
X20000Y220532D02*
Y224469D01*
D55*
X117106Y42413D02*
X157894D01*
Y19106D02*
Y42413D01*
X117106Y19106D02*
X157894D01*
X117106D02*
Y42413D01*
X7114Y120866D02*
Y154134D01*
Y120866D02*
X28886D01*
Y154134D01*
X7114D02*
X28886D01*
X23406Y70110D02*
Y98890D01*
X6594Y70110D02*
Y98890D01*
Y70110D02*
X23406D01*
X6594Y98890D02*
X23406D01*
X6594Y21110D02*
Y49890D01*
X23406Y21110D02*
Y49890D01*
X6594D02*
X23406D01*
X6594Y21110D02*
X23406D01*
X47606Y121106D02*
Y181894D01*
X73394Y121106D02*
Y181894D01*
X47606Y121106D02*
X73394D01*
X47606Y181894D02*
X73394D01*
X63906Y65110D02*
Y93890D01*
X47094Y65110D02*
Y93890D01*
Y65110D02*
X63906D01*
X47094Y93890D02*
X63906D01*
X32913Y202106D02*
Y242894D01*
X9606Y202106D02*
X32913D01*
X9606D02*
Y242894D01*
X32913D01*
M02*
