G04*
G04 #@! TF.GenerationSoftware,Altium Limited,Altium Designer,23.8.1 (32)*
G04*
G04 Layer_Color=65535*
%FSLAX25Y25*%
%MOIN*%
G70*
G04*
G04 #@! TF.SameCoordinates,520AAA89-0166-4477-BFE6-35E59259A02F*
G04*
G04*
G04 #@! TF.FilePolarity,Positive*
G04*
G01*
G75*
%ADD10C,0.00591*%
%ADD11C,0.00984*%
%ADD12C,0.02362*%
%ADD13C,0.00787*%
%ADD14C,0.01000*%
D10*
X78736Y264000D02*
G03*
X78736Y264000I-10236J0D01*
G01*
X270736Y214500D02*
G03*
X270736Y214500I-10236J0D01*
G01*
X220169Y201500D02*
G03*
X220169Y201500I-20669J0D01*
G01*
D11*
X81394Y264000D02*
G03*
X81394Y264000I-492J0D01*
G01*
X260992Y202098D02*
G03*
X260992Y202098I-492J0D01*
G01*
X160567Y29500D02*
G03*
X160567Y29500I-500J0D01*
G01*
X173079Y249669D02*
G03*
X173079Y249669I-492J0D01*
G01*
X92091Y15980D02*
G03*
X92091Y15980I-492J0D01*
G01*
X172472Y24402D02*
G03*
X172472Y24402I-492J0D01*
G01*
X118992Y224618D02*
G03*
X118992Y224618I-492J0D01*
G01*
X15648Y68189D02*
G03*
X15648Y68189I-492J0D01*
G01*
X15337Y51811D02*
G03*
X15337Y51811I-492J0D01*
G01*
X60992Y118941D02*
G03*
X60992Y118941I-492J0D01*
G01*
X56148Y63189D02*
G03*
X56148Y63189I-492J0D01*
G01*
X20500Y199933D02*
G03*
X20500Y199933I-500J0D01*
G01*
D12*
X128185Y220248D02*
G03*
X128185Y220248I-1181J0D01*
G01*
D13*
X131000Y224185D02*
G03*
X136000Y224185I2500J0D01*
G01*
X234205Y44909D02*
Y66091D01*
X244795D01*
Y44909D02*
Y66091D01*
X234205Y44909D02*
X244795D01*
X254205Y248409D02*
Y269591D01*
X264795D01*
Y248409D02*
Y269591D01*
X254205Y248409D02*
X264795D01*
X177909Y278705D02*
X199091D01*
X177909D02*
Y289295D01*
X199091D01*
Y278705D02*
Y289295D01*
X126295Y263000D02*
X129150D01*
X97850D02*
X100705D01*
Y258079D02*
Y267921D01*
Y258079D02*
X126295D01*
Y267921D01*
X100705D02*
X126295D01*
X260500Y144850D02*
Y147705D01*
Y173295D02*
Y176150D01*
X255579Y173295D02*
X265421D01*
X255579Y147705D02*
Y173295D01*
Y147705D02*
X265421D01*
Y173295D01*
X224500Y164295D02*
Y167150D01*
Y135850D02*
Y138705D01*
X219579D02*
X229421D01*
Y164295D01*
X219579D02*
X229421D01*
X219579Y138705D02*
Y164295D01*
X229850Y24500D02*
X232705D01*
X258295D02*
X261150D01*
X258295Y19579D02*
Y29421D01*
X232705D02*
X258295D01*
X232705Y19579D02*
Y29421D01*
Y19579D02*
X258295D01*
X48205Y22909D02*
Y44091D01*
X58795D01*
Y22909D02*
Y44091D01*
X48205Y22909D02*
X58795D01*
X117500Y42020D02*
X157500D01*
Y19500D02*
Y42020D01*
X117500Y19500D02*
X157500D01*
X117500D02*
Y42020D01*
X170028Y263252D02*
X210972D01*
X170028Y247110D02*
Y265220D01*
Y247110D02*
X210972D01*
Y265220D01*
X170028D02*
X210972D01*
X234550Y105009D02*
Y113300D01*
Y87700D02*
Y95991D01*
Y87700D02*
X260150D01*
Y105009D02*
Y113300D01*
Y87700D02*
Y95991D01*
X234550Y113300D02*
X260150D01*
X86500Y18500D02*
X96500D01*
Y48500D01*
X86500D02*
X96500D01*
X86500Y18500D02*
Y48500D01*
X8000Y121752D02*
Y153248D01*
Y121752D02*
X28000D01*
Y153248D01*
X8000D02*
X28000D01*
X183161Y189689D02*
Y213311D01*
X174500Y19500D02*
Y29500D01*
Y19500D02*
X204500D01*
Y29500D01*
X174500D02*
X204500D01*
X123067Y84815D02*
X143933D01*
X136000Y224185D02*
X143933D01*
X123067D02*
X131000D01*
X143933Y84815D02*
Y224185D01*
X123067Y84815D02*
Y224185D01*
X6988Y70504D02*
Y98496D01*
X23012Y70504D02*
Y98496D01*
X6988Y70504D02*
X23012D01*
X6988Y98496D02*
X23012D01*
Y21504D02*
Y49496D01*
X6988Y21504D02*
Y49496D01*
X23012D01*
X6988Y21504D02*
X23012D01*
X48000Y121500D02*
Y181500D01*
X73000Y121500D02*
Y181500D01*
X48000Y121500D02*
X73000D01*
X48000Y181500D02*
X73000D01*
X47488Y65504D02*
Y93496D01*
X63512Y65504D02*
Y93496D01*
X47488Y65504D02*
X63512D01*
X47488Y93496D02*
X63512D01*
X32520Y202500D02*
Y242500D01*
X10000Y202500D02*
X32520D01*
X10000D02*
Y242500D01*
X32520D01*
D14*
X219501Y52003D02*
X218501Y51003D01*
Y49004D01*
X219501Y48004D01*
X220500D01*
X221500Y49004D01*
Y51003D01*
X222500Y52003D01*
X223499D01*
X224499Y51003D01*
Y49004D01*
X223499Y48004D01*
X219501Y55002D02*
X220500D01*
Y54002D01*
Y56001D01*
Y55002D01*
X223499D01*
X224499Y56001D01*
X220500Y60000D02*
Y61999D01*
X221500Y62999D01*
X224499D01*
Y60000D01*
X223499Y59000D01*
X222500Y60000D01*
Y62999D01*
X220500Y64999D02*
X224499D01*
X222500D01*
X221500Y65998D01*
X220500Y66998D01*
Y67998D01*
X219501Y71996D02*
X220500D01*
Y70997D01*
Y72996D01*
Y71996D01*
X223499D01*
X224499Y72996D01*
X209510Y116501D02*
Y122499D01*
X212509D01*
X213509Y121499D01*
Y119500D01*
X212509Y118500D01*
X209510D01*
X215508Y120500D02*
Y117501D01*
X216508Y116501D01*
X219507D01*
Y120500D01*
X221506Y116501D02*
X224505D01*
X225505Y117501D01*
X224505Y118500D01*
X222506D01*
X221506Y119500D01*
X222506Y120500D01*
X225505D01*
X227504Y122499D02*
Y116501D01*
Y119500D01*
X228504Y120500D01*
X230503D01*
X231503Y119500D01*
Y116501D01*
X239500Y122499D02*
Y116501D01*
X242499D01*
X243499Y117501D01*
Y118500D01*
X242499Y119500D01*
X239500D01*
X242499D01*
X243499Y120500D01*
Y121499D01*
X242499Y122499D01*
X239500D01*
X245498Y120500D02*
Y117501D01*
X246498Y116501D01*
X249497D01*
Y120500D01*
X252496Y121499D02*
Y120500D01*
X251497D01*
X253496D01*
X252496D01*
Y117501D01*
X253496Y116501D01*
X257494Y121499D02*
Y120500D01*
X256495D01*
X258494D01*
X257494D01*
Y117501D01*
X258494Y116501D01*
X262493D02*
X264492D01*
X265492Y117501D01*
Y119500D01*
X264492Y120500D01*
X262493D01*
X261493Y119500D01*
Y117501D01*
X262493Y116501D01*
X267491D02*
Y120500D01*
X270490D01*
X271490Y119500D01*
Y116501D01*
X238506Y274501D02*
Y280499D01*
X241505D01*
X242504Y279499D01*
Y277500D01*
X241505Y276500D01*
X238506D01*
X244504Y278500D02*
Y275501D01*
X245503Y274501D01*
X246503Y275501D01*
X247503Y274501D01*
X248502Y275501D01*
Y278500D01*
X250502D02*
Y274501D01*
Y276500D01*
X251501Y277500D01*
X252501Y278500D01*
X253501D01*
X266496Y279499D02*
X265497Y280499D01*
X263497D01*
X262498Y279499D01*
Y278500D01*
X263497Y277500D01*
X265497D01*
X266496Y276500D01*
Y275501D01*
X265497Y274501D01*
X263497D01*
X262498Y275501D01*
X268496Y278500D02*
Y275501D01*
X269496Y274501D01*
X270495Y275501D01*
X271495Y274501D01*
X272495Y275501D01*
Y278500D01*
X-6491Y160501D02*
Y166499D01*
X-3492D01*
X-2492Y165499D01*
Y163500D01*
X-3492Y162500D01*
X-6491D01*
X-493Y164499D02*
Y160501D01*
Y162500D01*
X507Y163500D01*
X1507Y164499D01*
X2506D01*
X6505Y160501D02*
X8504D01*
X9504Y161500D01*
Y163500D01*
X8504Y164499D01*
X6505D01*
X5505Y163500D01*
Y161500D01*
X6505Y160501D01*
X13503Y158501D02*
X14502D01*
X15502Y159501D01*
Y164499D01*
X12503D01*
X11503Y163500D01*
Y161500D01*
X12503Y160501D01*
X15502D01*
X17502Y164499D02*
Y160501D01*
Y162500D01*
X18501Y163500D01*
X19501Y164499D01*
X20501D01*
X24499D02*
X26499D01*
X27498Y163500D01*
Y160501D01*
X24499D01*
X23499Y161500D01*
X24499Y162500D01*
X27498D01*
X29498Y160501D02*
Y164499D01*
X30497D01*
X31497Y163500D01*
Y160501D01*
Y163500D01*
X32497Y164499D01*
X33496Y163500D01*
Y160501D01*
X35496D02*
Y164499D01*
X36495D01*
X37495Y163500D01*
Y160501D01*
Y163500D01*
X38495Y164499D01*
X39494Y163500D01*
Y160501D01*
X44493D02*
X42493D01*
X41494Y161500D01*
Y163500D01*
X42493Y164499D01*
X44493D01*
X45492Y163500D01*
Y162500D01*
X41494D01*
X47492Y164499D02*
Y160501D01*
Y162500D01*
X48491Y163500D01*
X49491Y164499D01*
X50491D01*
X202004Y283001D02*
Y288999D01*
X205003D01*
X206003Y287999D01*
Y286000D01*
X205003Y285000D01*
X202004D01*
X209002Y283001D02*
X211001D01*
X212001Y284001D01*
Y286000D01*
X211001Y287000D01*
X209002D01*
X208002Y286000D01*
Y284001D01*
X209002Y283001D01*
X214001Y287000D02*
Y284001D01*
X215000Y283001D01*
X216000Y284001D01*
X217000Y283001D01*
X217999Y284001D01*
Y287000D01*
X222998Y283001D02*
X220998D01*
X219999Y284001D01*
Y286000D01*
X220998Y287000D01*
X222998D01*
X223997Y286000D01*
Y285000D01*
X219999D01*
X225997Y287000D02*
Y283001D01*
Y285000D01*
X226996Y286000D01*
X227996Y287000D01*
X228996D01*
X51999Y101998D02*
X50999Y102998D01*
X49000D01*
X48000Y101998D01*
Y98000D01*
X49000Y97000D01*
X50999D01*
X51999Y98000D01*
X53998Y102998D02*
Y97000D01*
X57997D01*
X59996Y102998D02*
Y97000D01*
Y98999D01*
X63995Y102998D01*
X60996Y99999D01*
X63995Y97000D01*
X97505Y275001D02*
Y280999D01*
X100504D01*
X101503Y279999D01*
Y278000D01*
X100504Y277000D01*
X97505D01*
X99504D02*
X101503Y275001D01*
X109501Y280999D02*
Y277000D01*
X111500Y275001D01*
X113499Y277000D01*
Y280999D01*
X119497Y279000D02*
X116498D01*
X115499Y278000D01*
Y276001D01*
X116498Y275001D01*
X119497D01*
X125496Y279000D02*
X122496D01*
X121497Y278000D01*
Y276001D01*
X122496Y275001D01*
X125496D01*
X246499Y142006D02*
X240501D01*
Y145005D01*
X241501Y146005D01*
X243500D01*
X244500Y145005D01*
Y142006D01*
Y144005D02*
X246499Y146005D01*
X240501Y154002D02*
Y156001D01*
Y155002D01*
X246499D01*
Y154002D01*
Y156001D01*
Y159001D02*
X242501D01*
Y161999D01*
X243500Y162999D01*
X246499D01*
X248499Y164999D02*
X242501D01*
Y167998D01*
X243500Y168997D01*
X245500D01*
X246499Y167998D01*
Y164999D01*
X242501Y170997D02*
X245500D01*
X246499Y171996D01*
Y174995D01*
X242501D01*
X241501Y177994D02*
X242501D01*
Y176995D01*
Y178994D01*
Y177994D01*
X245500D01*
X246499Y178994D01*
X219800Y177400D02*
Y183398D01*
X222799D01*
X223799Y182398D01*
Y180399D01*
X222799Y179399D01*
X219800D01*
X221799D02*
X223799Y177400D01*
X229797D02*
X225798D01*
X229797Y181399D01*
Y182398D01*
X228797Y183398D01*
X226798D01*
X225798Y182398D01*
X258501Y34501D02*
Y40499D01*
X261500D01*
X262500Y39499D01*
Y37500D01*
X261500Y36500D01*
X258501D01*
X260501D02*
X262500Y34501D01*
X264499D02*
X266499D01*
X265499D01*
Y40499D01*
X264499Y39499D01*
X35506Y283999D02*
Y280000D01*
X37506Y278001D01*
X39505Y280000D01*
Y283999D01*
X45503Y282000D02*
X42504D01*
X41504Y281000D01*
Y279001D01*
X42504Y278001D01*
X45503D01*
X51501Y282000D02*
X48502D01*
X47503Y281000D01*
Y279001D01*
X48502Y278001D01*
X51501D01*
X59499Y283999D02*
Y278001D01*
X63497D01*
X69495Y283999D02*
X65497D01*
Y278001D01*
X69495D01*
X65497Y281000D02*
X67496D01*
X71495Y283999D02*
Y278001D01*
X74494D01*
X75494Y279001D01*
Y282999D01*
X74494Y283999D01*
X71495D01*
X239501Y189508D02*
Y191507D01*
Y190508D01*
X245499D01*
Y189508D01*
Y191507D01*
Y194507D02*
X241501D01*
Y197505D01*
X242500Y198505D01*
X245499D01*
X247499Y200504D02*
X241501D01*
Y203504D01*
X242500Y204503D01*
X244500D01*
X245499Y203504D01*
Y200504D01*
X241501Y206503D02*
X244500D01*
X245499Y207502D01*
Y210501D01*
X241501D01*
X240501Y213500D02*
X241501D01*
Y212501D01*
Y214500D01*
Y213500D01*
X244500D01*
X245499Y214500D01*
X239501Y223497D02*
X245499D01*
Y227496D01*
X239501Y233494D02*
Y229495D01*
X245499D01*
Y233494D01*
X242500Y229495D02*
Y231494D01*
X239501Y235493D02*
X245499D01*
Y238492D01*
X244500Y239492D01*
X240501D01*
X239501Y238492D01*
Y235493D01*
X37501Y24005D02*
X36501Y23005D01*
Y21006D01*
X37501Y20006D01*
X38501D01*
X39500Y21006D01*
Y23005D01*
X40500Y24005D01*
X41500D01*
X42499Y23005D01*
Y21006D01*
X41500Y20006D01*
X44499Y26004D02*
X38501D01*
Y29003D01*
X39500Y30003D01*
X41500D01*
X42499Y29003D01*
Y26004D01*
Y35002D02*
Y33002D01*
X41500Y32002D01*
X39500D01*
X38501Y33002D01*
Y35002D01*
X39500Y36001D01*
X40500D01*
Y32002D01*
X38501Y39000D02*
Y40999D01*
X39500Y41999D01*
X42499D01*
Y39000D01*
X41500Y38001D01*
X40500Y39000D01*
Y41999D01*
X42499Y43999D02*
X36501D01*
X40500D02*
X38501Y46998D01*
X40500Y43999D02*
X42499Y46998D01*
Y52996D02*
Y50996D01*
X41500Y49997D01*
X39500D01*
X38501Y50996D01*
Y52996D01*
X39500Y53995D01*
X40500D01*
Y49997D01*
X38501Y55995D02*
X42499D01*
X40500D01*
X39500Y56994D01*
X38501Y57994D01*
Y58994D01*
X73501Y22007D02*
Y26005D01*
Y24006D01*
X79499D01*
X75500Y28005D02*
X78499D01*
X79499Y29004D01*
X78499Y30004D01*
X79499Y31004D01*
X78499Y32003D01*
X75500D01*
X79499Y34003D02*
Y36002D01*
Y35002D01*
X75500D01*
Y34003D01*
X79499Y39001D02*
Y42000D01*
X78499Y43000D01*
X77500Y42000D01*
Y40001D01*
X76500Y39001D01*
X75500Y40001D01*
Y43000D01*
X74501Y45999D02*
X75500D01*
Y44999D01*
Y46999D01*
Y45999D01*
X78499D01*
X79499Y46999D01*
X76500Y49998D02*
Y53996D01*
X73501Y55996D02*
Y57995D01*
Y56995D01*
X79499D01*
Y55996D01*
Y57995D01*
X74501Y61994D02*
X75500D01*
Y60994D01*
Y62993D01*
Y61994D01*
X78499D01*
X79499Y62993D01*
X52499Y191998D02*
X51499Y192998D01*
X49500D01*
X48500Y191998D01*
Y190999D01*
X49500Y189999D01*
X51499D01*
X52499Y188999D01*
Y188000D01*
X51499Y187000D01*
X49500D01*
X48500Y188000D01*
X54498Y192998D02*
Y187000D01*
X57497D01*
X58497Y188000D01*
Y191998D01*
X57497Y192998D01*
X54498D01*
X66494Y187000D02*
Y190999D01*
X68493Y192998D01*
X70493Y190999D01*
Y187000D01*
Y189999D01*
X66494D01*
X76491Y192998D02*
Y187000D01*
X73492D01*
X72492Y188000D01*
Y189999D01*
X73492Y190999D01*
X76491D01*
X79490D02*
X81489D01*
X82489Y189999D01*
Y187000D01*
X79490D01*
X78490Y188000D01*
X79490Y188999D01*
X82489D01*
X84488Y185001D02*
Y190999D01*
X87487D01*
X88487Y189999D01*
Y188000D01*
X87487Y187000D01*
X84488D01*
X91486Y191998D02*
Y190999D01*
X90486D01*
X92486D01*
X91486D01*
Y188000D01*
X92486Y187000D01*
X98484D02*
X96485D01*
X95485Y188000D01*
Y189999D01*
X96485Y190999D01*
X98484D01*
X99484Y189999D01*
Y188999D01*
X95485D01*
X101483Y190999D02*
Y187000D01*
Y188999D01*
X102482Y189999D01*
X103482Y190999D01*
X104482D01*
X14499Y250998D02*
X13499Y251998D01*
X11500D01*
X10500Y250998D01*
Y249999D01*
X11500Y248999D01*
X13499D01*
X14499Y247999D01*
Y247000D01*
X13499Y246000D01*
X11500D01*
X10500Y247000D01*
X20497Y249999D02*
X17498D01*
X16498Y248999D01*
Y247000D01*
X17498Y246000D01*
X20497D01*
X22496Y249999D02*
Y246000D01*
Y247999D01*
X23496Y248999D01*
X24496Y249999D01*
X25495D01*
X31493Y246000D02*
X29494D01*
X28494Y247000D01*
Y248999D01*
X29494Y249999D01*
X31493D01*
X32493Y248999D01*
Y247999D01*
X28494D01*
X37491Y246000D02*
X35492D01*
X34492Y247000D01*
Y248999D01*
X35492Y249999D01*
X37491D01*
X38491Y248999D01*
Y247999D01*
X34492D01*
X40490Y246000D02*
Y249999D01*
X43489D01*
X44489Y248999D01*
Y246000D01*
X172000Y33300D02*
Y39298D01*
X174999D01*
X175999Y38298D01*
Y36299D01*
X174999Y35299D01*
X172000D01*
X173999D02*
X175999Y33300D01*
X177998Y39298D02*
X179997D01*
X178998D01*
Y33300D01*
X177998D01*
X179997D01*
X182996D02*
Y39298D01*
X185995D01*
X186995Y38298D01*
Y36299D01*
X185995Y35299D01*
X182996D01*
X188995Y36299D02*
X192993D01*
X194993Y39298D02*
X196992D01*
X195992D01*
Y33300D01*
X194993D01*
X196992D01*
X199991Y39298D02*
X203990D01*
X201990D01*
Y33300D01*
X163499Y230009D02*
X157501D01*
Y233008D01*
X158501Y234008D01*
X160500D01*
X161500Y233008D01*
Y230009D01*
X163499Y237007D02*
Y239006D01*
X162499Y240006D01*
X160500D01*
X159500Y239006D01*
Y237007D01*
X160500Y236007D01*
X162499D01*
X163499Y237007D01*
X159500Y242005D02*
X162499D01*
X163499Y243005D01*
X162499Y244005D01*
X163499Y245005D01*
X162499Y246004D01*
X159500D01*
X163499Y251003D02*
Y249003D01*
X162499Y248004D01*
X160500D01*
X159500Y249003D01*
Y251003D01*
X160500Y252002D01*
X161500D01*
Y248004D01*
X159500Y254002D02*
X163499D01*
X161500D01*
X160500Y255001D01*
X159500Y256001D01*
Y257001D01*
X158501Y269996D02*
X157501Y268997D01*
Y266997D01*
X158501Y265998D01*
X162499D01*
X163499Y266997D01*
Y268997D01*
X162499Y269996D01*
X163499Y272995D02*
Y274995D01*
X162499Y275994D01*
X160500D01*
X159500Y274995D01*
Y272995D01*
X160500Y271996D01*
X162499D01*
X163499Y272995D01*
Y277994D02*
X159500D01*
Y280993D01*
X160500Y281993D01*
X163499D01*
X159500Y283992D02*
X163499Y285991D01*
X159500Y287991D01*
X118000Y45500D02*
Y51498D01*
X120999D01*
X121999Y50498D01*
Y48499D01*
X120999Y47499D01*
X118000D01*
X124998Y45500D02*
X126997D01*
X127997Y46500D01*
Y48499D01*
X126997Y49499D01*
X124998D01*
X123998Y48499D01*
Y46500D01*
X124998Y45500D01*
X129996Y49499D02*
Y46500D01*
X130996Y45500D01*
X133995D01*
Y49499D01*
X135994D02*
Y45500D01*
Y47499D01*
X136994Y48499D01*
X137994Y49499D01*
X138993D01*
X141992Y48499D02*
X145991D01*
X147990Y51498D02*
X149990D01*
X148990D01*
Y45500D01*
X147990D01*
X149990D01*
X153988Y50498D02*
Y49499D01*
X152989D01*
X154988D01*
X153988D01*
Y46500D01*
X154988Y45500D01*
X182999Y232998D02*
X181999Y233998D01*
X180000D01*
X179000Y232998D01*
Y229000D01*
X180000Y228000D01*
X181999D01*
X182999Y229000D01*
X184998Y227000D02*
X188997D01*
X190996Y233998D02*
X192996D01*
X191996D01*
Y228000D01*
X190996D01*
X192996D01*
X195994D02*
Y231999D01*
X198994D01*
X199993Y230999D01*
Y228000D01*
X201993Y226001D02*
Y231999D01*
X204992D01*
X205991Y230999D01*
Y229000D01*
X204992Y228000D01*
X201993D01*
X207991Y231999D02*
Y229000D01*
X208990Y228000D01*
X211989D01*
Y231999D01*
X214988Y232998D02*
Y231999D01*
X213989D01*
X215988D01*
X214988D01*
Y229000D01*
X215988Y228000D01*
X11499Y60798D02*
X10499Y61798D01*
X8500D01*
X7500Y60798D01*
Y56800D01*
X8500Y55800D01*
X10499D01*
X11499Y56800D01*
X17497Y55800D02*
X13498D01*
X17497Y59799D01*
Y60798D01*
X16497Y61798D01*
X14498D01*
X13498Y60798D01*
X11499Y106998D02*
X10499Y107998D01*
X8500D01*
X7500Y106998D01*
Y103000D01*
X8500Y102000D01*
X10499D01*
X11499Y103000D01*
X13498Y102000D02*
X15497D01*
X14498D01*
Y107998D01*
X13498Y106998D01*
X116100Y230600D02*
Y234599D01*
X118099Y236598D01*
X120099Y234599D01*
Y230600D01*
Y233599D01*
X116100D01*
X122098Y236598D02*
X126097D01*
X124097D01*
Y230600D01*
X128096D02*
Y236598D01*
X130096Y234599D01*
X132095Y236598D01*
Y230600D01*
X137093D02*
X135094D01*
X134094Y231600D01*
Y233599D01*
X135094Y234599D01*
X137093D01*
X138093Y233599D01*
Y232599D01*
X134094D01*
X142092Y228601D02*
X143091D01*
X144091Y229600D01*
Y234599D01*
X141092D01*
X140092Y233599D01*
Y231600D01*
X141092Y230600D01*
X144091D01*
X147090Y234599D02*
X149089D01*
X150089Y233599D01*
Y230600D01*
X147090D01*
X146090Y231600D01*
X147090Y232599D01*
X150089D01*
M02*
